<svg xmlns="http://www.w3.org/2000/svg" xmlns:xlink="http://www.w3.org/1999/xlink" xml:space="preserve" width="130.818" height="141.232" viewBox="0 0 130.818 141.232"><defs><path id="a" d="M39.143 95.297v11.283h3.052V95.297Z"/><path id="b" d="M30.162 114.287h-6.597v3.006h6.597Z"/><path id="c" d="M23.794 120.316h2.873v1.517h-2.874Z"/><path id="d" d="M28.325 75.143v3.07h1.44v-3.07Z"/><path id="e" d="m75.19 95.25 9.07.016-.009 2.951-9.07-.015Z"/><path id="f" d="M87.087 63.396v8.309h2.976v-8.309Z"/><path id="g" d="M86.183 49.887V39.552h4.96v10.335Z"/><path id="h" d="M98.587 39.146h2.931V37.88h-2.931Z"/><path id="i" d="M98.458 9.622v1.423h2.942V9.622Z"/><path id="j" d="M45.857 62.773h1.362v4.886h-1.362Z"/><path id="k" d="M54.414 60.033h1.362v4.885h-1.362Z"/><path id="o" d="M30.335 39.708h-6.357v3.205h6.357Zm-1.563 1.526v.153H25.46v-.153Z"/><path id="n" d="M30.335 65.867h-6.357v3.205h6.357Zm-1.563 1.526v.153H25.46v-.153Z"/><path id="m" d="M33.332 94.616h-1.279v2.905h1.279Z"/><path id="r" d="M92.297 42.948V48.8h3.141v-5.853Zm1.496 1.125h.15v3.601h-.15Z"/><path id="l" d="M53.684 6.4h2.932v1.32h-2.932Z"/><path id="p" d="M53.18 30.076h2.956v-1.229H53.18Z"/><path id="q" d="M78.177 37.657h-2.878v1.357h2.878Z"/><path id="s" d="M.148 74.724V71.8h1.41v2.925Z"/></defs><g style="filter:drop-shadow(0 0 2px #000)"><g style="fill:#70777f"><path d="M78.96 44.17h1.525v6.639H78.96zM74.888 44.17h1.526v6.639h-1.526z"/><path d="m94.744 0-.002 10.102h.715v.285h-.715l-.002 8.146h-4.22v3.469H82.7v5.463H75.26v.988h-6.154V12.566H60.32v-.63h.504V6.302h-7.648v2.922h4.748v3.341h-4.748V30.45h8.972v11.385h2.938v9.434h.346v.652H45.693v4.185h-19.71V45.192h7.14v-5.476H25.5v1.701h3.238v1.777h-4.777v25.83h6.645v.596H17.758v2.596h-.608v-.31h-4.357v3.929h-.3v-.35H8.138v1.041H2.97v-7.213H0v9.2h12.492v-.452h.6v.465h4.058v-.523h.62v.475h3.18v-6.573h-1.204v-.285h8.002v-.857h.297l.004 7.754h2.06v9.091h-6.086l.02 8.274h-.672v-1.998h-5.588v7.474h5.588v-4.398h.676l.006 2.508 6.137.03-.03 14.819-6.373-.029v3.026l6.654.029v.545h-6.464v4.297h9.148v-12.629h9.08V95.248h-3.053v11.332h-6.027V84.871h12.568v2.453h10.205v-8.416h9.213v5.49h3.032v-5.49h7.052v12.569h-6.449v6.9H82.56v-3.662l-7.358-.02v-.533l14.703-.012v4.409h.94v.394H89.09v1.483H69.334v4.419h43.439v-4.419H93.781v-1.483H92.03v-.394h.864v-4.41l9.962-.006V72.357h-2.037V59.883h-2.002v.598h-8.742v-6.59h8.742v.586h2.002v-.586h2.446V34.883h.683v-7.397h-.683V9.216l-5.976.008v2.052l-.376-.007v-.882h-.46v-.285h.46V2.023h2.621V0Zm2.168 12.414.376.007v.504l3.191-.007v11.814h-3.567zm0 14.274h3.567v8.916h-3.233v.771h-9.021v.445h-.32v-.445h-4.792v-2.643h-5.877v-.543h-.44v-.226l.44.004v-2.518h19.676Zm-32.789 3.761H75.26v2.5l.486.004v.236h-.486v.543h-1.95v5.557h5.803v.543h-14.99Zm23.781 8.494h.32v.346h5.557v.568h-1.506v4.471h3.163V39.29h5.041v12.63H90.074v-2.032h1.069v-6.828h-4.96v6.828h.877v2.033h-8.392v-9.074h2.1v-3.014h-.569v-.543h7.705zm-19.781 3.903h8.594v9.074h-1.75v1.97h.785l-.016 6.59h-7.593v-6.59h.623v-1.97H67.68v-.652h.443ZM55.898 54.895h9.213v8.56h.438v.244h-.438v11.873h.438v.284h-9.65Zm-22.804 3.193h12.6v23.808H33.122l-.041-12.277h-1.476v-.596h1.488zm34.588 5.367H87.06v5.156h2.974v-5.156h7.86v8.902h-22.7v3.498h-7.513v-.283h.46V63.7h-.46z"/></g><g style="fill:gold"><use xlink:href="#a"/><use xlink:href="#b"/><use xlink:href="#c"/><use xlink:href="#d"/><use xlink:href="#e"/><use xlink:href="#f"/><use xlink:href="#g"/><use xlink:href="#h"/><use xlink:href="#i"/><use xlink:href="#j"/><use xlink:href="#k"/><use xlink:href="#l"/><use xlink:href="#m"/><use xlink:href="#n"/><use xlink:href="#o"/><use xlink:href="#p"/><use xlink:href="#q"/><use xlink:href="#r"/><use xlink:href="#s"/></g><g style="fill:#1a2632"><path d="M54.519 81.14a3.596 3.596 0 1 1-7.192 0 3.596 3.596 0 0 1 7.192 0zM54.519 58.877a3.596 3.596 0 1 1-7.192 0 3.596 3.596 0 0 1 7.192 0zM54.519 69.65a3.596 3.596 0 1 1-7.193-.001 3.596 3.596 0 0 1 7.193 0zM91.7 87.014l1.456-6.348 2.03.466-1.455 6.348zM94.01 87.41l.37-2.16 2.054.351-.37 2.16zM89.855 85.414h1.666v1.744h-1.666zM90.26 84.817l.383-1.797 1.735.37-.382 1.796zM86.413 87.775h1.127v1.127h-1.127zM86.413 77.898h1.127v1.126h-1.127zM100.071 81.293h1.852v1.852h-1.852zM100.472 83.593h1.513v2.546h-1.513zM99.98 86.278h1.851v1.852H99.98z"/></g></g></svg>