<svg xmlns="http://www.w3.org/2000/svg" xmlns:xlink="http://www.w3.org/1999/xlink" xml:space="preserve" width="130.818" height="141.232" viewBox="0 0 130.818 141.232"><defs><path id="c" d="M18.214 111.316v6.069h2.736v-6.069Zm1.303 1.166h.13v3.735h-.13Z"/><path id="d" d="M14.176 69.464v5.853h2.736v-5.853Zm1.303 1.125h.13v3.601h-.13Z"/><path id="e" d="M52.088 93.47v6.047h2.736V93.47Zm1.303 1.163h.13v3.72h-.13Z"/><path id="f" d="M70.335 93.47v6.047h2.736v-6.046Zm1.303 1.163h.13v3.72h-.13Z"/><path id="g" d="M96.729 21.854h-5.854v2.736h5.854Zm-1.125 1.302v.131h-3.602v-.13Z"/><path id="h" d="M46.685 43.537v6.055h2.736v-6.055Zm1.303 1.164h.13v3.725h-.13Z"/><path id="a" d="M30.335 39.708h-6.357v3.205h6.357Zm-1.563 1.526v.153H25.46v-.153Z"/><path id="b" d="M30.335 65.867h-6.357v3.205h6.357Zm-1.563 1.526v.153H25.46v-.153Z"/></defs><g style="filter:drop-shadow(0 0 2px #000)"><path d="M25.293 10.236v.91h5.096v12.038h-5.096v.876h59.674v-.876H34.315V11.146h62.529v-.91zm69.527 14.31v.235l-69.527-.006v.907l25.148.002v12.205l-13.164-.002v.906h3.207l-.062 1.709H33.38v-1.031h-4.612l-.011.142-.012.145h-4.178v3.234h6.506v3.633h-.168v-3.377h-4.925v6.104h4.925v-1.83h.168v4.005h-.168v-1.832h-4.925v4.618l4.925-.192V52.29h.168v4.064h-.168V54.35l-4.925.21v11.006h4.925v-3.51h.168v3.759l-3.254-.004-3.252-.004v3.232h6.914v.305H3.896l-.005 48.045h14.42v-2.024h-.303l.006-43.869h15.945l-.002 27.961h.906l.002-10.098h14.743l-.002 10.098h.906l.006-54.115h.64l-.006 54.115h16.553l.006-56.066h1.473l-.006 56.066h16.554l.006-47.896h.553l-.004 47.896h.906l.002-15.074h14.741l-.002 15.074h.906l.006-47.896h.516V39.699H84.057v.809l-16.346-.002v-.496h-.31l.134-.203-.594-.397.334-.5-.172-.115 29.838.004V24.547Zm-40.494 1.138 40.494.004v12.205l-40.494-.004Zm-12.87 13.109 24.882.002-.197.295.27.18-.366.548.353.235.05-.072.357.236v.289l-24.573-.004h-.84zm-8.075 4.592h.582l-.002 25.959h-.58v-12.99Zm1.488 0h7.363l6.333.006v.255H46.71v1.696h2.9l-.004 39.451H34.865Zm14.961.006h1.328v.255H49.83zm2.235 0h14.74l-.002 9.677h-14.74Zm18.025 0h13.967v8.17h.775l-.002 20.53H70.088Zm17.107 8.17h14.742l-.002 28.253H87.195Zm-34.466 3.634h13.374v.502H52.732zm-21.825 1.94h.168v4.12h-.168v-2.06zm21.157.69h14.74l-.004 39.67h-14.74ZM13.807 71.495h3.3v3.043h-.302v2.072h.302l-.003 22.371H4.799l.004-25.48h9.004zm56.28 5.164H84.83l-.004 20.676H70.084v-.082h.191v-1.895h-.191ZM4.8 102.836h12.305l-.002 12.529H4.797Z" style="fill:#70777f"/><g style="fill:none;stroke:#000;stroke-width:.2"><path d="M33.463 43.385v-.509M33.463 41.18v-.677M11.087 72.036h.926v-2.692M9.543 72.036H4.566v-2.692M30.906 60.497H28.72"/></g><g style="fill:gold"><use xlink:href="#a"/><use xlink:href="#b"/><use xlink:href="#c"/><use xlink:href="#d"/><use xlink:href="#e"/><use xlink:href="#f"/><use xlink:href="#g"/><use xlink:href="#h"/></g></g></svg>