<svg xmlns="http://www.w3.org/2000/svg" xmlns:xlink="http://www.w3.org/1999/xlink" xml:space="preserve" id="svg176" width="130.818" height="141.232" viewBox="0 0 130.818 141.232"><style id="style_common">.building{fill:#1a2632}</style><defs id="defs1"><path id="stair-1" d="M39.143 95.297v11.283h3.052V95.297Z"/><path id="stair-2" d="M30.162 114.287h-6.597v3.006h6.597Z"/><path id="stair-3" d="M23.794 120.316h2.873v1.517h-2.874Z"/><path id="stair-4" d="M28.325 75.143v3.07h1.44v-3.07Z"/><path id="stair-7" d="m75.19 95.25 9.07.016-.009 2.951-9.07-.015Z"/><path id="stair-8" d="M87.087 63.396v8.309h2.976v-8.309Z"/><path id="stair-220" d="M86.183 49.887V39.552h4.96v10.335Z"/><path id="stair-221" d="M98.587 39.146h2.931V37.88h-2.931Z"/><path id="stair-222" d="M98.458 9.622v1.423h2.942V9.622Z"/><path id="stair-223" d="M45.857 62.773h1.362v4.886h-1.362Z"/><path id="stair-224" d="M54.414 60.033h1.362v4.885h-1.362Z"/><path id="stair-69" d="M18.214 111.316v6.069h2.736v-6.069Zm1.303 1.166h.13v3.735h-.13Z"/><path id="stair-96" d="M14.176 69.464v5.853h2.736v-5.853Zm1.303 1.125h.13v3.601h-.13Z"/><path id="stair-97" d="M52.088 93.47v6.047h2.736V93.47Zm1.303 1.163h.13v3.72h-.13Z"/><path id="stair-100" d="M70.335 93.47v6.047h2.736v-6.046Zm1.303 1.163h.13v3.72h-.13Z"/><path id="stair-101" d="M96.729 21.854h-5.854v2.736h5.854Zm-1.125 1.302v.131h-3.602v-.13Z"/><path id="stair-129" d="M46.685 43.537v6.055h2.736v-6.055Zm1.303 1.164h.13v3.725h-.13Z"/><path id="stair-62" d="M28.03 29.732h-2.725v-4.155h2.726"/><path id="stair-127" d="M30.335 39.708h-6.357v3.205h6.357Zm-1.563 1.526v.153H25.46v-.153Z"/><path id="stair-128" d="M30.335 65.867h-6.357v3.205h6.357Zm-1.563 1.526v.153H25.46v-.153Z"/><path id="stair-63" d="M24.73 87.381h2.913v1.28H24.73"/><path id="stair-130" d="M24.742 72.32h2.914v1.278h-2.914"/><path id="stair-131" d="m84.053 42.674-1.44.002.012 3.727 1.44-.002Z"/><path id="stair-132" d="M83.383 39.415h1.226v-5.459h-1.226Z"/><path id="stair-140" d="M33.332 94.616h-1.279v2.905h1.279Z"/><path id="stair-141" d="M47.728 94.66h-1.28v2.904h1.28Z"/><path id="stair-155" d="M52.506 20.887v-3.448h-1.172v3.448Z"/><path id="stair-226" d="M70.98 25.55v-3.605h-1.172v3.604Z"/><path id="stair-134" d="M92.297 42.948V48.8h3.141v-5.853Zm1.496 1.125h.15v3.601h-.15Z"/><path id="stair-135" d="M12.012 65.049h3.227v1.376h-3.227Z"/><path id="stair-136" d="M53.684 6.4h2.932v1.32h-2.932Z"/><path id="stair-138" d="M53.18 30.076h2.956v-1.229H53.18Z"/><path id="stair-139" d="M78.177 37.657h-2.878v1.357h2.878Z"/><path id="stair-143" d="M.148 74.724V71.8h1.41v2.925Z"/></defs><g id="Ground_Floor"><path id="Floor" d="M97.297 2.541v3.762H50.082l-.408 2.953h8.162v.297l-16.424.008H31.037v-.305h18.225l.404-2.953H25.293v2.953h4.875v.305h-4.875v5.504H1.545v6.412h23.748v17.957h4.959v.343h-5.684v3.203h6.524v2.528H27.01v.912h-.16v-.912h-5.754v4.959h5.754v-2.893h.152l.01 2.893h2.306v.336h-6.162v7.591h6.106v.268h-6.106v7.057h8.432v.115h-6.98v3.205h6.675v.305H3.355l-.003 5.076H2.9v-5.104H.014v17.746H2.9V75.316h.452l-.006 6.552-.008 12.524H2.9v-2.995H.04v29.834h3.278v4.846h4.717v-.611h.28v15.767h6.484v-20.65h.285v1.678h15.588v-2.174h2.594v-2.328h-1.489v-.381h1.565l.01-11.359.01-11.446h5.779l.01 6.028.01 5.961h3.013l.01-5.999.01-5.99h4.11v3.424h-.18v-3.242h-3.739v4.787h3.738v-.516h.182v.516H56.58v24.353h6.432V99.54l20.318-.01 20.096-.01v-2.45h24.363v-6.413h-24.363l.006-11.58h.248v2.3h2.574v-1.96h.318v2.28h-2.892v4.966h17.861V74.398l-2.006.116-.15-2.617 1.439-.102-.207-9.274-.802-2.48.548-4.197 1.071-4.213-.086-4.309 4.111-.572V34.926h1.367v-6.15h-4.851v6.789h-8.522v-.3h7.828v-6.44l-19.742-.02-.01-5.68.022-5.56 8.508-.032h8.476V9.457h12.283V3.096h-12.283V2.54Zm4.299 6.18h.953v.687h-.953v-.191h-4.35v1.527h-.305v-.496h-.572v-.695h-.31v-.297h.394v-.324l2.578-.01 2.565-.01Zm-41.508.535h2.137v.297h-.764v.695h-.649v-.695h-.724zm4.31 0h1.297v.297h-1.297zm4.045 0h.99v.297h-.99zm3.739 0h13.65v.297h-13.65Zm16.404 0h1.031v.297h-1.031zm3.777 0h.996l-.023.297h-.973zm4.578 2.822h.305v14.23h-.306l.002-7.115zm-.002 15.375h.307v.916h.652v.87h-.7v-.675h-.259zM82.367 33.54l1.088.02.01 3.023.01 2.852h2.709v10.453h4.959V39.375h3.265v.344h-2.136v3.177h3.168v-1.193h.76v.186h-.436v7.668h-.248v-.434H92.14v2.149h3.375v-1.053h.248v1.062h2.95v.254h-14.63V39.701H73.289v-3.853h.383v3.455h9.33v-5.381h-.635zm-9.078.002 8.106.018v.363h-7.723v.97h-.383Zm23.652 1.725h2.633v.304h-2.328v1.078h-.305zm3.778 0h4.502v17.3h-1.793v-.39h-.801v-.64h-2.914v-.255h3.623v-5.283h-5.848v-4.11h-.422v-.185h4.057v.186h-3.428v3.925h5.641V41.89h-1.356v-.186h1.356V39.72h-7.908v-.344h1.513v-1.566h.305v1.566h6.027V35.57h-2.554zm7.467 0h1.917v.299h-1.548v20.548h-4.899v3.35h3.237v.613h-.366v-.273h-2.847v.273h-.237l.002-4.582 2.567-.01 2.174-.01zM36.93 38.594h.69l-.013.562-.01.621H33.42v3.7h-.344v-3.7h-1.601v-.343h5.455zm23.883 0h.648v.81h2.957v.315h-3.605zm4.634.81h3.987v.87h-.877v11.253h.877v.649h-.877v11.217h.84v.687h-.84v11.178h.88l-.011.334-.01.334-.43.01-.43.011v1.141h-.304v-1.145h-.764v-.685h.764V64.08h-.725v-.687h.725V52.176h-.764v-.649h.764V40.273h-.764v-.554h-2.04zM.86 42.81v26.233h11.15v-2.687h5.276v2.687h5.602V50.85h-2.118V45.2h3.063v-2.39Zm32.217 1.85h.344v22.09h-.344l-.002-3.004-.002-16.178zm70.365 16.283h.239v2.05h2.847v-2.05h.366v2.278h1.388v5.992h2.758v5.9h-4.467v2.78h-.318v-2.756h-2.574v3.053h-.246l.002-5.135zm-70.365 7.028h.344v.687l-.04.686-.036 10.244v10.244H28.15l.012-.22.012-.23H33V69.345h-.5v-.305h.576zm35.176 18.808h.305v.42h.877v.649h-.877v.304h-.305v-.304h-.764v-.649h.764ZM2.9 95.44h.457l-.01 4.073-.01 4.072H2.9zm0 9.215h.438v5.455H2.9zm0 6.512h.438l.01 3.111.01 3.1h2.378v.305H2.9Zm3.9 6.211h1.514v6.791h-.279v-6.486H6.801Zm7.999 0h15.224v.381H15.084v1.775h-.285z" style="fill:#70777f"/><g id="Ledge" style="fill:#c6c2c2"><path d="M45.923 52.65h9.771V86.76h-9.77zM78.858 43.325h1.526v6.638h-1.526zM73.974 43.325H75.5v6.638h-1.526zM33 69.344v20.039h-4.826V69.344Z"/></g><g id="Obstacles" class="building"><path d="M25.943 22.897h4.823v1.698h-4.823zM62.787 14.633h5.37v12.985h-5.37zM39.635 24.079h1.908v2.058h-1.908zM70.786 60.857h2.79v5.495h-2.79zM74.334 61.476l2.774.294-.58 5.465-2.774-.294zM86.032 76.913l.97 2.616-5.154 1.909-.97-2.616zM90.697 79.78h2.79v5.495h-2.79zM95.601 79.002h2.79v5.496H95.6zM89.96 74.7h5.176v2.8H89.96zM101.151 66.757h-2.474v6.187h2.474zM76.198 89.613l-1.818-5.247-1.813.628 1.818 5.247zM48.427 87.64l-4.801 2.12-.734-1.662 4.8-2.12ZM73.666 6.369c.155.01 1.893.083 1.893.083l-.043.981-1.893-.083zM22.686 16.864l-.2 1.695-4.81-.568.201-1.695zM58.828 51.63l4.87.02.007-1.696-4.87-.02zM68.168 46.33l-4.84-.42-.145 1.677 4.84.42zM65.158 41.07l-.03 4.87 1.667.01.03-4.869zM54.076 14.633h5.286v12.985h-5.286zM96.63 53.513l-.073.521.213.03-.035.248-1.336-.188-.015.117 1.279.18-.074.533-1.283-.18-.018.126 1.34.187-.031.22-.211-.029-.077.536.957.134.036-.252 2.425.34.256-1.82-2.441-.342.033-.228zM98.215 64.211l.013-.526-.215-.005.007-.25 1.349.034.002-.118-1.292-.034.014-.538 1.295.034.003-.127-1.352-.034.006-.223.213.005.015-.54-.966-.026-.007.254-2.449-.063-.048 1.838 2.465.063-.008.23zM92.075 55.384l.012-.526-.215-.005.007-.25 1.349.034.002-.118-1.291-.034.013-.538 1.295.033.003-.126-1.352-.035.006-.222.213.005.015-.54-.966-.026-.007.254-2.448-.063-.049 1.837 2.465.064-.007.23zM83.56 58.828l-.283-.444-.18.116-.135-.212 1.139-.723-.065-.1-1.09.694-.29-.455 1.094-.695-.068-.106-1.141.726-.12-.188.18-.115-.29-.457-.815.518.137.215-2.068 1.314.986 1.552 2.08-1.323.123.195zM33.63 91.2l.045.525.214-.019.02.25-1.344.113.011.118 1.287-.108.046.536-1.29.11.01.125 1.348-.114.018.222-.212.018.044.539.963-.08-.021-.254 2.44-.206-.153-1.832-2.457.208-.018-.23zM11.687 107.36l-.506-.146-.06.206-.24-.07.377-1.296-.114-.032-.36 1.241-.518-.15.362-1.244-.122-.036-.377 1.299-.214-.062.06-.205-.52-.152-.27.928.245.071-.684 2.352 1.765.514.688-2.367.221.065zM112.787 10.971l.053.524.214-.022.024.25-1.343.132.013.117 1.285-.126.054.536-1.289.127.012.126 1.347-.134.021.222-.212.022.053.538.961-.095-.024-.253 2.437-.241-.18-1.83-2.454.244-.021-.23zM109.094 7.507l.125-.511-.209-.051.06-.243 1.31.323.027-.115-1.254-.31.128-.523 1.258.31.03-.123-1.313-.323.053-.216.207.05.131-.524-.939-.232-.061.247-2.378-.585-.441 1.784 2.394.59-.056.223zM78.48 42.354h2.42v6.374h-2.42zM37.045 66.097l.4-.343-.14-.163.19-.162.877 1.024.09-.077-.841-.982.409-.35.842.984.096-.083-.88-1.027.17-.145.138.162.412-.35-.629-.735-.193.165-1.593-1.86-1.397 1.195 1.604 1.872-.176.15zM9.089 19.96l.194-.489-.2-.08.094-.232 1.252.502.043-.11-1.199-.48.2-.5 1.202.48.047-.117-1.256-.502.083-.207.198.079.202-.501-.898-.36-.094.236-2.274-.91-.684 1.707 2.29.915-.087.214zM44.364 12.317l-.42.317.13.171-.2.15-.812-1.078-.094.072.777 1.033-.43.324-.78-1.035-.1.075.813 1.081-.178.134-.129-.17-.432.324.58.773.204-.153 1.473 1.957 1.47-1.105-1.483-1.97.184-.138zM90.556 21.987l-.501.163.066.204-.238.077-.416-1.284-.112.038.398 1.23-.512.166-.4-1.233-.12.038.417 1.287-.211.069-.067-.203-.514.166.297.92.242-.08.755 2.33 1.75-.565-.76-2.345.22-.07zM124.35 33.418l-.485.203.083.198-.232.096-.518-1.246-.109.047.496 1.192-.497.208-.498-1.196-.116.048.52 1.249-.206.085-.082-.196-.499.206.37.893.235-.098.942 2.261 1.697-.706-.948-2.275.214-.088zM115.461 71.56l2.686-5.491 2.141 1.047-2.686 5.491zM116.052 57.604h6.539v2.416h-6.539zM108.483 51.42h3.176v2.146h-3.176zM114.058 49.122l1.538-1.368 4.729 5.313-1.537 1.369zM116.66 39.154V36.01h2.146v3.143zM118.35 62.784l.118 3.16 2.082-.078-.118-3.16z"/></g><g id="Stairs" style="fill:gold"><g id="Stairs-down"><use xlink:href="#stair-1"/><use xlink:href="#stair-2"/><use xlink:href="#stair-3"/><use xlink:href="#stair-4"/><use xlink:href="#stair-7"/><use xlink:href="#stair-8"/><use xlink:href="#stair-220"/><use xlink:href="#stair-221"/><use xlink:href="#stair-222"/><use xlink:href="#stair-223"/><use xlink:href="#stair-224"/><use xlink:href="#stair-136"/><use xlink:href="#stair-140"/><use xlink:href="#stair-138"/><use xlink:href="#stair-139"/><use xlink:href="#stair-143"/></g><g id="Stairs-up"><use xlink:href="#stair-69"/><use xlink:href="#stair-96"/><use xlink:href="#stair-97"/><use xlink:href="#stair-100"/><use xlink:href="#stair-101"/><use xlink:href="#stair-129"/><use xlink:href="#stair-62"/><use xlink:href="#stair-127"/><use xlink:href="#stair-128"/><use xlink:href="#stair-63"/><use xlink:href="#stair-130"/><use xlink:href="#stair-131"/><use xlink:href="#stair-132"/><use xlink:href="#stair-140"/><use xlink:href="#stair-141"/><use xlink:href="#stair-155"/><use xlink:href="#stair-226"/><use xlink:href="#stair-135"/></g></g><g id="Wall" class="building" style="fill:none;stroke:#000;stroke-width:.2"><path d="m6.505 80.103-.632-6.142 2.356-.207.555 6.14M8.347 87.364h6.095M8.347 89.833h6.095M5.571 98.252l11.217-3.882M6.442 100.659l11.007-3.96M36.87 34.887V28.8M39.186 34.887V28.8M40.101 23.426h6.174v-6.02M40.101 20.493h6.174M47.51 23.426h1.697v-6.02M97.003 28.565v5.219M97.003 34.82v.462M8.317 130.115H9.67M10.784 130.115H14.8M118.61 9.457V5.214M3.156 119.686v1.543M59.065 99.64l3.946-.02M57.951 99.62h-1.37M103.501 95.665v1.407M103.501 90.658V94.6M115.722 94.634v-3.976M115.722 95.565v1.507M25.193 21.487V17.08M25.193 15.99v-.925M12.511 17.08v4.407M12.511 15.99v-.925M57.423 39.365H49.09M58.859 39.365h1.952M43.177 37.686l6.048.718M49.445 36.128l-6.048-.718M32.61 45.5h.464M31.555 45.5h-.463M46.31 43.223h-.617v4.167M45.694 49.088v.617h8.025v-6.482M53.72 41.834v-2.47M50.787 46.464v-7.1M47.93 43.223h2.779M118.61 3.96v-.867M89.02 92.69V90.84h12.656v1.851M101.676 95.265v1.852H89.02v-1.852M3.156 104.654v-1.069M8.322 117.465H9.67M10.784 117.465h3.998M65.696 9.404h2.747M69.434 9.404h2.747M85.832 9.404h2.754M89.617 9.404h2.746M93.348 9.404h2.71M3.476 45.675l-2.335.062-.07-2.62 6.038-.16.07 2.601-2.613.07M56.58 111.76h1.371M59.065 111.782l3.947-.021"/></g><g id="Building" class="building"><path d="M54.542 81.08a3.55 3.55 0 1 1-7.1 0 3.55 3.55 0 0 1 7.1 0M54.542 58.98a3.55 3.55 0 1 1-7.1 0 3.55 3.55 0 0 1 7.1 0M54.542 69.692a3.55 3.55 0 1 1-7.1 0 3.55 3.55 0 0 1 7.1 0M64.162 58.98a2.894 2.894 0 1 1-5.788 0 2.894 2.894 0 0 1 5.788 0M64.162 81.08a2.894 2.894 0 1 1-5.788 0 2.894 2.894 0 0 1 5.788 0M64.162 69.692a2.894 2.894 0 1 1-5.788 0 2.894 2.894 0 0 1 5.788 0M76.687 13.934v1.852h-.918v2.822h.918v1.814h7.074v-1.814h5.717v-2.822h-5.717v-1.852z"/></g></g></svg>