<svg xmlns="http://www.w3.org/2000/svg" xmlns:xlink="http://www.w3.org/1999/xlink" xml:space="preserve" width="130.818" height="141.232" viewBox="0 0 130.818 141.232"><defs><path id="n" d="M18.214 111.316v6.069h2.736v-6.069Zm1.303 1.166h.13v3.735h-.13Z"/><path id="o" d="M14.176 69.464v5.853h2.736v-5.853Zm1.303 1.125h.13v3.601h-.13Z"/><path id="p" d="M52.088 93.47v6.047h2.736V93.47Zm1.303 1.163h.13v3.72h-.13Z"/><path id="q" d="M70.335 93.47v6.047h2.736v-6.046Zm1.303 1.163h.13v3.72h-.13Z"/><path id="r" d="M96.729 21.854h-5.854v2.736h5.854Zm-1.125 1.302v.131h-3.602v-.13Z"/><path id="s" d="M46.685 43.537v6.055h2.736v-6.055Zm1.303 1.164h.13v3.725h-.13Z"/><path id="a" d="M28.03 29.732h-2.725v-4.155h2.726"/><path id="l" d="M30.335 39.708h-6.357v3.205h6.357Zm-1.563 1.526v.153H25.46v-.153Z"/><path id="m" d="M30.335 65.867h-6.357v3.205h6.357Zm-1.563 1.526v.153H25.46v-.153Z"/><path id="b" d="M24.73 87.381h2.913v1.28H24.73"/><path id="c" d="M24.742 72.32h2.914v1.278h-2.914"/><path id="d" d="m84.053 42.674-1.44.002.012 3.727 1.44-.002Z"/><path id="e" d="M83.383 39.415h1.226v-5.459h-1.226Z"/><path id="f" d="M33.332 94.616h-1.279v2.905h1.279Z"/><path id="g" d="M47.728 94.66h-1.28v2.904h1.28Z"/><path id="h" d="M52.506 20.887v-3.448h-1.172v3.448Z"/><path id="i" d="M70.98 25.55v-3.605h-1.172v3.604Z"/><path id="k" d="M92.297 42.948V48.8h3.141v-5.853Zm1.496 1.125h.15v3.601h-.15Z"/><path id="j" d="M12.012 65.049h3.227v1.376h-3.227Z"/></defs><g style="filter:drop-shadow(0 0 2px #000)"><g style="fill:#70777f"><path d="M33.381 98.473v-1.011h-1.259V94.6h14.193v4.884H33.38ZM51.193 15.38v2.079h1.323v9.986h18.552v-2.093h-1.322V15.38zm7.828 2.079h4.5v7.893h-4.5zM73.345 33.558h10.13v5.852h-10.13ZM25.268 29.675v9.716h5.05v.385h-5.75v3.205h6.639v.153h-12.59v11.865h2.021v2.556h-2.02v8.088h12.53v.194h-6.54v3.203l4.214.002h2.195v.28h-3.396v20.073h5.373V69.323h-.252v-.281h.334v-3.205h-.947v-.194h.947v-22.51h-.953v-.152h.953v-3.205h-1.668v-.385h.805V37.61h-2.694v-7.935zm-3.141 21.623h8.965v6.218h-8.965V56.34h.191v1.025h4.195v-2.861h-4.195v.763h-.191v-1.984zM84.082 39.773l-9.377.026.008 2.922 9.32-.02v-1.504h.361v.631h3.317v.186h-3.317v9.236h7.56v-.816h.228v.816h3.296v-.816h.311v.816h7.09v-5.154h-.893v-.276h.893v-5.714H90.922v.164h-.182v-.164h-6.346v.119h-.312Zm6.658 1.371h.182v.534h1.355v1.181h3.188v-1.181h4.703v4.142h.943v.276h-5.322v3.463h-.31v-.432h-3.297v.432h-.229v-7.545H88.61v-.186h2.131z"/></g><g style="fill:#1a2632"><path d="M21.346 48.344h10.65v.756h-10.65ZM20.999 45.444h9.878v.756h-9.878zM21.764 43.134h8.643v.42h-8.643zM20.927 59.864h4.657v.556h-4.657zM28.203 59.864h4.657v.556h-4.657zM28.203 62.72h4.657v.557h-4.657zM20.927 62.72h4.657v.557h-4.657zM21.737 65.223h7.818v.42h-7.818ZM24.732 57.517h1.704v.42h-1.704z"/></g><g style="fill:gold"><use xlink:href="#a"/><use xlink:href="#b"/><use xlink:href="#c"/><use xlink:href="#d"/><use xlink:href="#e"/><use xlink:href="#f"/><use xlink:href="#g"/><use xlink:href="#h"/><use xlink:href="#i"/><use xlink:href="#j"/><use xlink:href="#k"/><path d="M24.393 56.18c.057-.125.06-.286.152-.379.045-.045.193-.029.25-.043.32-.08.513.133.804.211.212.058.423.037.516.223.026.051.167.251.121.367-.04.102-.15.129-.219.195a.7.7 0 0 1-.296.149c-.085.014-.509-.059-.622-.059s-.504-.038-.671-.222c-.078-.085-.07-.366-.036-.442"/><use xlink:href="#l"/><use xlink:href="#m"/><use xlink:href="#n"/><use xlink:href="#o"/><use xlink:href="#p"/><use xlink:href="#q"/><use xlink:href="#r"/><use xlink:href="#s"/></g><g style="fill:none;stroke:#000;stroke-width:.2"><path d="M28.052 31.87v-.463h-2.784M28.052 33.259v5.617h-2.784M23.258 55.892v-1.389M24.416 55.892v-1.389M25.573 55.892v-1.389M20.56 55.008v-3.664h-.463M19.08 51.344h-.463"/></g></g></svg>