<?xml version="1.0" encoding="UTF-8"?>
<svg id="svg1" xmlns="http://www.w3.org/2000/svg" version="1.1" viewBox="0 0 1470.3 1420.6">
  <!-- Generator: Adobe Illustrator 29.3.1, SVG Export Plug-In . SVG Version: 2.1.0 Build 151)  -->
  <defs>
    <style>
      .st0 {
        fill: #70777f;
      }

      .st1 {
        fill: gold;
      }
    </style>
  </defs>
  <g id="Underground">
    <g id="Ladders">
      <polygon class="st1" points="439.5247 227.0421 435.654 225.9795 436.3018 223.857 440.1123 224.9041 439.5247 227.0421"/>
      <rect class="st1" x="219.1901" y="1024.3497" width="1.1484" height="2.9048"/>
      <rect class="st1" x="1094.7055" y="974.1903" width="1.1583" height="4.4584"/>
    </g>
    <g id="Buildings">
      <polygon class="st0" points="435.654 225.9795 432.7782 225.1572 434.9168 217.8135 434.2605 217.6417 435.741 212.2682 441.829 213.7995 441.7364 214.1392 443.0252 214.4976 443.1173 214.1532 448.7237 215.5447 447.2319 221.3315 441.5256 219.9333 442.5183 216.0558 441.2352 215.7214 440.3029 219.3082 436.6617 218.3312 435.124 223.5265 436.3018 223.857 435.654 225.9795"/>
      <polygon class="st0" points="213.4375 1032.0447 220.3385 1032.0447 220.3385 1027.2545 219.1939 1027.2545 219.1939 1028.9875 213.4375 1028.9875 213.4375 1025.3949 209.8472 1025.4195 209.8534 1024.5166 213.4375 1024.4796 213.4375 1017.6318 207.8994 1017.6318 207.8994 1024.5166 208.2979 1024.5166 208.2979 1025.4072 207.8994 1025.4072 207.8994 1032.7012 213.4375 1032.7012 213.4375 1032.0447"/>
      <polygon class="st0" points="1088.9627 983.457 1095.8637 983.457 1095.8637 978.6667 1094.719 978.6667 1094.719 980.3998 1088.9627 980.3998 1088.9627 976.8071 1085.3724 976.8318 1085.3785 975.1627 1088.9627 975.1257 1088.9627 969.0441 1083.4246 969.0441 1083.4246 975.1627 1083.8231 975.1627 1083.8231 976.8195 1083.4246 976.8195 1083.4246 984.1134 1088.9627 984.1134 1088.9627 983.457"/>
    </g>
  </g>
</svg>