<?xml version="1.0" encoding="UTF-8"?>
<svg id="svg1" xmlns="http://www.w3.org/2000/svg" version="1.1" viewBox="0 0 1470.3 1420.6">
  <!-- Generator: Adobe Illustrator 29.3.1, SVG Export Plug-In . SVG Version: 2.1.0 Build 151)  -->
  <defs>
    <style>
      .st0 {
        fill: #70777f;
      }

      .st1 {
        fill: gold;
      }
    </style>
  </defs>
  <g id="Second_Floor">
    <g id="Walkable">
      <polygon class="st0" points="1369.8544 1077 1365.2544 1082.6 1362.5543 1080.7 1367.1543 1074.8 1369.8544 1077"/>
      <rect class="st0" x="1330.2865" y="1083.7823" width="35.136" height="2.969" transform="translate(-198.9037 309.3448) rotate(-12.2)"/>
      <rect class="st0" x="1355.712" y="1078.7619" width="3.2585" height="6.0933" transform="translate(-197.9559 311.2661) rotate(-12.1998)"/>
      <polygon class="st0" points="1330.89 1089.9362 1329.9812 1090.1792 1329.7478 1088.5996 1330.5543 1088.384 1330.89 1089.9362"/>
      <polygon class="st0" points="1330.7859 1095.6265 1324.2478 1096.5427 1325.1819 1102.9005 1321.9 1103.3999 1322.7272 1108.4265 1326.0944 1107.7382 1326.8756 1111.5591 1254.9631 1126.2614 1254.1819 1122.4406 1319.75 1109.0352 1318.9 1103.8999 1316 1104.2999 1313.9114 1090.6285 1329.7117 1088.3551 1330.7859 1095.6265"/>
      <rect class="st0" x="1367.2516" y="1073.9407" width="7.6857" height="2.8816" transform="translate(-196.2912 314.0355) rotate(-12.2001)"/>
      <polygon class="st0" points="1373.6664 1076.3003 1375.1548 1075.9785 1374.6952 1073.8525 1377.7625 1073.2509 1378.8049 1078.5208 1377.0925 1078.8696 1377.214 1079.4316 1374.4717 1080.0247 1373.6664 1076.3003"/>
    </g>
    <polygon class="st1" points="1379.286 1080.7458 1377.561 1081.1187 1377.0925 1078.8696 1378.8049 1078.5208 1379.286 1080.7458"/>
  </g>
</svg>