<svg xmlns="http://www.w3.org/2000/svg" xmlns:xlink="http://www.w3.org/1999/xlink" id="svg1" viewBox="0 0 348.925 488.448"><style id="style_common">.building{fill:#1a2632}</style><g id="Ground_Level"><g id="Ground" style="fill:#c6c2c2"><path id="the_ground" d="M74.706 12.066v50.16H57.642V66.2H17.485v106.55l2.44 1.488-1.952 4.683H13.9v27.883h3.41v62.316h44.746v-12.175H72.16V242.2H85.42V217.29h21.134v20.971h6.5v87.884h-7.752l-2.406 4.394v4.99h-7.683v40.811l7.197 25.562 23.481 36.485 13.949 6.521h54.312v4.677l12.913 4.063v6.733h4.969l8.334 5.202h53.063v-30.118h11.979v-37.721l-32.032-4.486-24.125-11.716v-26.538h-30.84v-15.61h-7.446v-34.702h12.388v-12.052h43.657v-28.175h24.546V242.56h20.291v-11.956H272.73v-41.488h11.018v-12.334h15.014v-3.117h18.221v-37.997h-33.235V58.616h-57.582v-25.28h-9.614v-21.27Z"/></g><path id="Tarmac" d="M310.445 8.916v22.531l-.12.848-.3.8-.462.686-.713.559-.815.29h-85.92l-7.31.544-6.295 1.086-7.348 2.17-7.164 3.22-6.187 3.764-5.358 4.09-5.463 5.246-5.318 6.19-3.026 4.814-.341.324-.506.324-.942.217h-12.375V43.75h-6.306v22.87h-.787V36.91l-1.702-.506-1.736-.797-1.7-1.048-1.304-1.268H86.234l-1.484 1.666-1.158 1.049-1.412.904-2.207.58-2.121-.01v22.458h57.498v13.92l.351 1.048.832.905 1.194.398h23.087l1.23.508.942.76.578 1.158.106.752-.215.84-1.012 5.86-.832 7.167-.29 3.764-.217 6.875-.108 6.84v62.954l-.48 1.24-.442.665-.666.496-.734.293-.787.113h-1.746v.229h-13.36v7.052H78.266v-1.484h62.79v-3.553H42.694l-1.213-.092-.886-.328-.772-.525-.494-.723-.27-.7-.083-.745v-54.754l4.824-3.357V97.52l-4.824-2.858V65.324l.136-.71.31-.829.487-.674.715-.506.816-.27.715-.071H63.93V49.14h-3.043V26.96H49.14v22.045h-7.328l-.672-.094-.819-.392-.527-.477-.445-.703-.248-.674-.127-.697V15.932h-5.979v161.525H27.88v-52.14l-2.805-11.096V84.062l2.852-19.212V15.893H21.94v160.205l-.002.025-.283.875-.508.758-.716.531-.873.36-.905.076H0v22.324h18.766l.836.133.863.33.789.65.49.895.197.9v109.258l-.12.824-.278.748-.484.697-.69.512-.848.334-.927.082H8.572v4.975h10.139l.975.133.804.312.698.484.44.649.286.705.027.13v90.749h5.938V202.475h5.117v22.16l2.916 11.316v29.752l-2.941 19.764v129.08h6.004V370.16l.394-1.525 1.137-1.192 1.691-.425h46.701v-13.323H42.27l-1.725-.435-1.13-1.155-.44-1.652v-61.3l4.734-2.77V266.27l-4.734-3.29v-58.734l.156-.994.474-.959.752-.742.877-.432.94-.14h98.822v-3.618h-62.77v-1.609h64.514v6.97h13.4v.346h1.967l1.16.213.905.637.549.824.275 1.147v146.73l-.293 1.168-.555.875-.691.506-1.078.287h-13.377l-1.078-.236-.86-.64-.521-.876-.17-1.348v-13.763h-43.06v28.42h43.095v-1.668l.237-1.06.656-.962 1.045-.707 1.162-.254h12.736l1.195.272 1.012.707.717 1.125.752 8.894 1.125 7.381.713 3.045 1.398 4.856 2.526 6.119 2.744 4.635 3.373 4.5 3.951 4.388 4.664 4.39 5.186 4.034 6.226 3.758 6.914 3.21 2.084.96.988.822.631 1.1.22 1.207v56.843h13.224v-53.634l.273-1.371.66-1.016 1.016-.658 1.068-.276h86.514l1.172.278 1.004.672.633.892.224 1.154v44.686h9.23v-78.945l25.13-33.512-7.332-5.498-27.067 36.096v17.798l-.11.836-.241.653-.541.763-.762.485-.783.297-.8.148h-42.874l-.723-.144-.547-.276-.386-.558-.124-.809 3.961-17.248-10.605-1.527-2.588 18.252-.2.785-.31.498-.435.433-.649.373-.832.221H220.61l-2.14-.13-4.131-.446-4.096-.838-4.111-1.36-3.89-1.581-3.743-2.067-4.541-2.922-4.002-3.369-3.945-3.758-3.871-4.617-.938-1.504-.062-.185.148-.205.613.068 2.479.887 2.41.761 2.354.637 2.535.387 2.592.351 1.978.125h1.422v.616h22.998v-7.09h-22.986v.61h-.696l-4.332-.343-2.681-.521-2.479-.625-3.353-1.16-2.512-1.217-2.695-1.809-2.205-2.1-.211-.747-.987-4.45-.613-4.523-.373-4.709-.064-24.305v-98.49l.363-.683.463-.655.703-.504.89-.35.854-.095H290.43c.528.058 1.21.137 1.21.137l.923.416.705.668.463.752.142.832v4.441h-5.672v35.201h36.914v-35.26h-12.213v27.102h-7.136v-27.101h-5.182v-4.737l.272-.869.597-.719 1.004-.535 1.871-.328h27.408v-9.23H214.14l-.303-.205-.193-.366v-3.111l-.563-1.205-1.486-1.326-1.809-1.285-5.342-3.295-2.931-2.25-2.953-3.153-1.928-2.713-1.125-2.59-.703-2.49-.182-3.736.502-4.941 1.246-4.659 2.39-7.472 1.366-6.387.342-6.428-.121-6.386-.16-4.82h-20.829v34.486h3.455v8.675h-3.294l1.646 5.866 1.629 3.576 2.088 3.133 3.394 3.273 3.715 2.248 3.576 1.387 5.041 1.367 1.487.02.482.38 1.606 3.395-.26.664-.397.348h-11.64l-1.953-.276-2.258-.756-2.623-1.209-2.557-1.652-2.4-2.027-2.438-2.928-1.703-2.982-1.004-3.288-.469-4.113V97.043l.15-5.014.304-2.98.502-.567.376-.002.29.202 3.236 4.912v55.937h21.11v-4.459l-.163-6.447-.28-6.428-.523-6.367-1.103-6.467-1.79-7.27-2.75-7.029-2.671-4.982-4.139-6.387-2.851-5.082-2.711-6.345-2.955-7.332 1.472-3.301 1.688-2.711 2.523-3.121 3.785-3.922 3.684-3.274.857-.632.631-.02 17.934 12.822 5.422-6.644-11.154-7.885-1.811-1.617-1.547-1.15-.22-.64.23-.525 1.816-.853 4.776-1.705 3.82-1.041 5.318-.664 3.856-.274h83.265l.887.098.832.32.596.387.549.684.28.726.12.817.178 7.447.275 7.26.27 2.878.998 3.668 1.172 2.786 1.65 2.918 1.652 2.265 1.979 2.21 2.572 2.054 2.707 1.785 3.38 1.633 3.571 1.037 3.918.633h16.483V80.35l-7.574-.047-5.836-.27-4.936-.826-3.898-1.63-2.995-2.249-2.19-3.57-1.345-5.358-.504-8.142V8.916Zm-78.175 30.35h52.843v3.93H232.27Zm-147.846 7.56h15.162v2.569H84.424zm20.228 0h15.018v2.569h-15.018zm20.157 0h15.234v2.569h-15.234zm41.058 207.893h3.91v52.865h-3.91zM105.2 351.197h30.832v2.616h-30.828z" style="fill:#768089"/><g id="Green" style="fill:#1f5054"><path d="M44.512 205.726h21.966v4.96l-21.966 5.518zM50.524 227.732v4.748l10.65 2.599v-7.347zM61.175 217.291l-10.65 2.607v4.794h10.65zM66.458 241.709v5.005H44.47v-10.507zM45.263 306.744v5.915h7.567v-4.026zM65.72 306.741l-7.614 1.909v4.009h7.614zM58.106 292.93v3.952l7.614 1.935v-5.887zM45.263 292.93v5.852l7.567-1.908v-3.944zM45.261 328.339v-8.873h19.705v3.979zM46.006 332.127v4.022h19.726v-8.959zM71.052 328.744v7.447H81.67v-4.787zM71.052 324.169v-4.724h10.597v7.417zM88.13 312.914v9.887l3.074-.854v-8.18zM88.263 330.259v6.509h6.47l-.834-3.131h-2.581v-2.524zM108.302 369.405v3.378l9.888-2.479v-.899zM98.43 369.405v5.854l7.619-1.911v-3.943zM144.069 369.379v3.994l7.57 1.906v-5.9zM131.955 369.379v.944l9.911 2.495v-3.439zM137.778 333.583v2.014h7.038v-2.014zM126.381 333.583v2.014h7.057v-2.014zM114.606 333.583v2.014h7.039v-2.014zM103.243 333.583v2.014h6.988v-2.014zM150.846 335.659h7.036v-9.615h-2.049v3.972h-2.947v-1.348h-2.04zM150.807 312.784v2.027h5.033v2.503h2.043v-7.025h-2.043v2.495zM153.061 299.186h2.784v2.213h2.054v-7.062h-4.838zM150.9 203.38h-1.412v1.406h1.412zM146.434 203.156h-7.041v1.493h7.041zM134.76 203.374h1.38v1.412h-1.38zM127.551 203.38h1.381v1.394h-1.381zM122.364 203.156v1.512h-9.995v-1.512zM107.568 203.374h1.405v1.393h-1.405zM94.332 203.156h10.008v1.506H94.332ZM88.61 203.368h1.4v1.406h-1.4zM79.965 203.374h1.393v1.4h-1.393zM71.27 203.138h3.956v1.53H71.27zM160.703 364.101h-.795v22.159l.198 1.82.625 1.938.987 1.712 1.313 1.485 1.585 1.214 1.802.824 1.368.317-1.232-2.654-1.494-3.803-1.005-3.233-1.024-3.822-.615-3.595-.689-4.701-.833-9.382zM163.998 403.824l2.837.764-.012 6.741-5.056-1.37zM168.66 428.53v-7.126l.206-.571.429-.445.46-.174h.318l.508.174.428.445.175.571v7.126l-.159.54-.366.439-.571.243h-.301l-.575-.243-.361-.439zM176.856 433.489v-7.126l.207-.571.428-.444.461-.175h.317l.508.175.428.444.175.571v7.126l-.159.54-.366.439-.57.243h-.302l-.575-.243-.361-.439zM185.053 428.53v-7.126l.206-.571.429-.445.46-.174h.317l.509.174.428.445.174.571v7.126l-.158.54-.366.439-.571.243h-.301l-.576-.243-.361-.439zM197.347 449.297v-7.126l.207-.572.428-.444.46-.175h.318l.508.175.428.444.175.572v7.126l-.159.539-.366.439-.57.244h-.302l-.575-.244-.361-.439zM189.238 438.87h7.126l.571.206.444.429.175.46v.318l-.175.508-.444.428-.571.175h-7.126l-.54-.159-.439-.366-.243-.571v-.301l.243-.575.439-.361zM203.048 438.107h1.18v15.229h-1.18zM193.054 420.352v5.75l.22 1.184.609.896.98.626.981.22h8.574v-1.404l-.186-1.082-.659-1.066-.947-.71s-5.716-2.503-5.784-2.503-3.788-1.911-3.788-1.911M233.287 428.423h7.763v1.143l-3.872 1.038-3.891-1.036zM267.376 428.423h7.763v1.143l-3.872 1.038-3.891-1.036zM289.04 428.423h7.763v1.143l-3.872 1.038-3.891-1.036zM218.666 459.161v-7.763h1.143l1.038 3.872-1.036 3.891zM299.363 413.054h-7.027v-2.098h7.027zM279.893 409.225h2.701v-3.802h2.006v3.815h.144v4.812h-7.107v-2.098h2.256zM282.635 399.967h4.826v-4.862h-4.826zM236.312 407.625h8.574v-2.154h-3.77v-2.676h-2.745v-2.224h-2.059zM215.263 405.417v-9.535h-15.852v1.222h14.618v8.313zM197.504 384.433h22.547v3.262h-22.547zM197.521 374.244h21.554v1.244h-21.554zM208.559 368.249h15.165v1.356h-15.165zM178.142 368.222h19.42v1.43h-19.42zM182.57 370.069h6.622v6.566h-6.622zM178.307 358.484V340.73h1.349v17.754zM178.288 324.924v-17.696h1.388v17.696zM178.288 299.19v-8.462h1.381v8.462zM178.282 282.1v-8.421h1.378v8.421zM178.278 257.827v-8.445h1.382v8.445zM182.088 245.543h8.431v1.424h-8.431zM196.814 245.488h26.633v1.451h-26.633zM234.237 245.474h27.024v1.396h-27.024zM270.842 245.44h8.356v12.515h-1.805v-11.122h-6.551zM279.107 267.724v12.591h-1.722v-12.591zM284.709 284.555h8.788v1.798h-8.788zM298.045 284.58h17.884v1.773h-17.884zM319.886 284.555h8.84v1.747h-8.84zM325.319 278.82h3.636v-30.084h-3.636zM312.714 248.736v26.862h-3.238v-26.862zM284.44 248.762h3.582v30.065h-3.582zM334.589 228.237h7.044v-2.017h-7.044zM323.797 228.357h7.044v-2.017h-7.044zM314.029 228.342h7.044v-2.017h-7.044zM291.497 228.372h7.044v-2.017h-7.044zM276.867 228.342h7.044v-2.017h-7.044zM258.047 221.691v6.763h-12.471v-6.763zM234.656 221.572v6.809h-4.16l-3.573-.356-4.036-1.067-5.156-1.92-4.818-2.311-3.537-1.938-3.965-2.56-2.542-2.258-2.436-2.684 5.885-3.289 1.866 2.24 2.703 2.311 3.715 2.489 3.485 1.849 4.48 1.458 3.52.729 3.805.373zM204.647 207.082l-5.778 3.431-.605-1.546-.391-2.223.018-3.164.32-3.129.835-3.218 1.707-5.156 1.351-4.587.64-2.4.427-2.364.356-3.236.177-5.724-.053-5.067.249 4.978.32 1.297.711 1.103.942.711 1.12.427 1.227.106 1.173-.284 1.156-.676.853-.96.498-1.351.089-1.44.036-5.387.195 7.663-.018 2.275-.231 1.654-.586 1.689-4.356 10.524-1.636 4.232-.8 2.542-.462 2.08-.231 2.862.107 2.134z"/><path d="M209.144 162.352h-2.506v3.787l.462 7.324.142.445.356.249.302.017.427-.124.266-.231.178-.48.409-6.454zM212.205 151.093h-8.663l.015-3.799-.148-7.79-.192-6.445-.237-4.14-.561-4.627-.917-5.159-.739-3.474-.65-2.335 3.725-.961.695 3.119.842 2.75 1.479 3.828 5.07 12.226.207 2.838zM199.24 110.249l-2.453-5.913-2.321-4.73-3.726-5.677-2.498-4.154-1.079-2.055-.843-2.395-.384-1.596-.133-1.094-.03-1.36.237-1.656.902-2.868 1.005-2.025 1.168-1.685 1.434-1.508 6.43 4.598-1.182 2.247-.725 2.246-.34 2.632.296 2.927.813 3.045 1.02 2.912 2.336 5.366 1.433 3.814 1.922 5.322.71 2.454zM198.93 62.412l6.77 4.805-.816 1.15-6.77-4.804zM221.074 162.192h-6.685v10.08l.125 1.014.32.444.444.196.373-.107.569-.445 1.671-1.902 1.227-1.6 1.013-1.973.641-1.778.248-2.045zM221.091 150.574h-6.708l.141-10.203.155-.606.451-.338.422.014.508.338 2.24 2.678 1.255 1.944 1.056 2.453.437 2.029zM247.325 215.725v3.53h12.457l1.683-.655 1.566-1.052.607-.981.024-1.099-.421-1.893-.748-2.15-1.87-2.337-10.774-7.994-.514-.07-.444.304-.468 1.005-.608 2.104-.42 3.996v2.618l.42.491.748.117 2.361.023 2.361.327 2.01.701 1.449.935-1.543 3.109-1.145-.608-1.66-.35z"/><circle cx="270.007" cy="223.46" r="1.979"/><path d="m279.203 223.551 4.956-.924 4.893-.504 4.515-.063 4.41.399-6.846-3.969-2.625-1.029-2.205-.147-1.743.693-2.625 2.142zM236.386 212.664h7.807l.584-.328.257-.561.234-4.954.678-4.535.958-3.996 1.028-3.296.07-.841-.397-.771-3.856-2.104-.748.023-.585.468-4.394 9.769-1.612 4.394-.725 3.086-.07 2.664.257.701z"/><circle cx="257.208" cy="194.032" r="2.759"/><path d="m233.044 215.679-.187 1.402-.397 1.028-.888.678-1.262.304-2.338-.094-3.599-.56-4.955-1.496-3.529-1.73-3.95-2.758-2.758-2.477-1.309-1.636-.023-.421.257-.21 1.192-.211 1.239.047 15.519.281 2.641-.164.491.047 2.314.771.654.444.701.888.327 1.122.094.982-1.753.187-3.132.771-2.851.561-2.338.023-2.01-.304-1.729-.49-1.052 3.459 1.473.467 2.15.397 2.431.187 3.015-.303 2.758-.608 2.197-.538zM212.664 205.231h-2.221l-.911-.233-1.356-1.052-.865-1.099-.794-1.869-.094-1.146.538-2.197 2.197-5.889 4.604-11.172.678-1.262 1.239-1.94.28-.094.304.117 2.361 1.706 1.472 1.262.07.327-.21.281-1.052.584-1.379 1.099-1.028 1.425-.515 1.52-.07 1.636.024 9.582-.678-.023-.257-2.407v-2.01l.07-1.753-3.903-.281-.094 3.015.187 3.483.514 3.435.772 3.693z"/><path d="m220.119 205.558 1.87.094 3.576.023 5.189-.374 1.753-.303 1.612-1.052 1.333-2.08 5.118-11.219.117-.654-.468-.725-1.869-1.379-2.221-1.893-3.692-3.716-.935-.865-.772-.234h-.935l-1.075.538-1.028.374-1.099.187-1.051.047-2.174-.024-1.8.234-1.565.771-1.192 1.332-.678 1.496-.117 2.221.023 14.958.421 1.309.818.654zM221.194 179.826l.211.42.374.117 1.168-.14 1.894-.047 1.472.047 1.005-.187 1.028-.467.538-.538.093-.421-.21-.233-2.431.187-3.178.35-1.473.398-.467.28zM218.016 176.928l1.613-.912 1.846-.608 2.174-.374 2.571-.257-1.333-2.22-.818-.771s-1.262-.748-1.379-.748a24 24 0 0 1-.841-.07l-.561.303-1.496 1.286-2.641 3.225-.117.328.117.327zM223.368 162.297l-.421 4.37.187 1.052.772.911 1.168.842 1.239 1.145 2.337 3.903 1.847-.14 3.015-.514 2.337-.935 2.15-1.262 2.337-2.548-.701-2.501-.327-2.384-.023-1.916h-.748l-.187 1.776-.585 1.403-.911 1.378-.982 1.005-1.542.959-1.449.561-1.707.233-1.776-.163-1.753-.584-1.309-.842-1.262-1.332-.981-1.519-.538-1.473zM231.922 178.564l2.267 2.477 2.805 2.805 2.594 2.314 1.543 1.028.608-.023.514-.398 1.239-2.314 1.893-3.903.14-.794-.234-.702-.958-1.028-1.005-1.543-1.379-2.711-.257-.21-.351.14-1.332 1.356-2.594 1.425-2.688 1.029-2.501.491-.35.21zM247.512 181.111l-3.273 6.685-.116.654.327.654 3.342 1.987.654.047.398-.327 2.103-9.022-.07-.444-.397-.281-2.314-.374-.421.117zM249.358 178.727l1.683.281.561-.164.444-.514.865-4.23.35-2.758.187-4.184-.025-1.828-.304-.558-.601-.062-.332.602-.561 4.183-.701 3.342-.935 3.086-.982 2.197.024.373zM247.138 176.951l1.262-3.155.724-2.898.491-3.249.023-3.109-.163-2.384h-1.8l-.491 2.291-1.121 2.688-1.333 2.313-1.168 1.8-.07.421.35.911 1.122 2.525.771 1.308.608.748.514.07zM243.749 162.203h-2.384l.14 2.033.304 1.73.163.257.281-.093.958-2.034zM241.949 155.332h7.035v2.08h-7.035zM223.322 150.514l-.161-2.127-.358-1.609.09-.912.411-.661 1.144-.787 1.269-1.144 1.073-1.43 1.662-2.663 1.055-1.609.536-.572.733-.179.751.232 8.044 8.295.304.429-.018.572-.733 4.308h-.733v-1.305l-.322-1.43-.679-1.484-.93-1.072-1.251-.894-1.305-.626-1.662-.536-1.377-.143-1.573.089-1.358.465-1.216.697-1.09.948-.93 1.197-.661 1.109-.447 1.573zM215.313 155.332h7.035v2.08h-7.035zM240.557 143.973l.232-.625-2.803-3.127-5.744-5.767-.463.509zM230.343 133.481l.486-.44-4.956-5.119-3.752-4.308-1.691-2.363-1.737-2.987-1.297 2.015zM223.51 142.421l.834-.834 2.687-4.192 1.575-2.084.208-.718-.44-.765-11.789-11.928-1.367 2.432-1.204 2.756-1.089 3.034-.069.556.347 1.066.626 1.297 3.034 4.192 2.779 3.405.95 1.39.996.671 1.112.116zM211.489 127.482l1.297-3.104 1.483-2.964 1.853-3.081 1.598-2.293-.486-2.594-.348-2.895-.046-2.455-6.045-.047-1.274.325-1.483 1.065-1.042 1.482-.509 1.645-.047 1.783 1.228 3.59zM220.754 108.119v2.015l.255 2.131 2.223-2.154 2.548-2.015zM221.449 114.998l.301 1.227.927 1.83 1.528 2.27 2.409 2.826 6.717 7.018 3.034-3.104 2.386-2.015 2.131-1.506-5.304-11.719-1.506-1.737-1.39-1.112-.81-.278-1.529.092-1.969.464-1.945 1.158-2.78 2.27zM234.952 131.697l5.096 5.258 2.154 2.409 1.274-2.965.903-1.83.533-.648.116-.417-.996-3.358-2.224-4.586-2.177 1.551-3.15 2.988zM244.379 141.75l1.32 1.899 1.436 2.872.533 3.914h1.621l.255-2.548.046-2.13-.301-2.409-.602-2.71-.903-2.664-.672-1.621-.44-.232-.417.186-.973 1.436-.764 1.621-.486 1.297.023.649zM241.322 150.597h2.733l-.51-2.408-1.112-2.317-.231-.092-.116.162-.51 2.733zM242.804 122.327l3.375-1.687 2.993-1.279-.68-3.619-1.442-3.865-1.987-2.912-2.422-2.503-.49-.191-3.51.436-1.769.326-.436.381-.136.653.762 1.769z"/><circle cx="257.143" cy="109.085" r="1.935"/><path d="m243.811 124.423 3.511 7.429.571.517.599.191 2.449-.245-1.66-10.668zM251.17 133.866l-1.862.408-.326.354-.082.354.953 2.286.952 2.776.572 2.476.381 2.967.19.653.545.326.517-.136.353-.598-.081-.844zM205.914 74.816l-4.66 4.314-2.446-1.715-.941 1.652-.816 2.677-.084 2.97.941 3.889 1.59 4.078 1.777 4.077 3.325 9.181.753 2.467 1.352-1.337 1.922-.943 1.885-.29 6.237-.109-.077-.864h-10.758zM205.61 56.132l11.599 7.83h64.805l3.183.44 3.842 2.049 2.562 3.147 1.024 2.89v2.525l-1.061 3.11-2.598 2.928-3 1.574-3.879 1.024h-4.464v9.843l3.549 2.781 4.757 2.05 6.733 1.39 6.623.585h4.171V88.15h-4.903V68.06h4.794v-4.244h-3.294v-7.208h3.33v-2.452l-.219-.768-.586-.476-.915-.366H255.13v3.7h-8.278v-3.671h-25.503l-3.269.172-4.187.516-4.34 1.223zM193.023 227.517h7.026l-4.589-1.23-2.48-.896-2.906-1.402-2.342-1.648-2.183-1.995-1.98-2.53-1.518-2.573-1.142-2.776-1.59-5.638v5.393l.187 2.862.449 2.038.361 1.07.477 1.142.766 1.316 1.186 1.648 1.518 1.604 1.677 1.244 1.72.983 1.735.694 1.85.506zM237.733 231.328h2.609v.732h-2.609zM175.551 203.225v2.608h-.732v-2.608zM175.551 182.266v2.609h-.732v-2.609zM175.551 166.731v2.609h-.732v-2.609zM175.551 145.907v2.609h-.732v-2.609zM175.551 115.971v2.609h-.732v-2.609zM185.739 65.803l-1.729 1.954-.548-.485 1.728-1.954zM213.701 49.597l-2.555.529-.148-.717 2.554-.53zM168.66 428.53v-7.126l.206-.571.429-.445.46-.174h.318l.508.174.428.445.175.571v7.126l-.159.54-.366.439-.571.243h-.301l-.575-.243-.361-.439zM180.276 162.011h4.568v1.323h-4.568zM195.225 162.011h4.568v1.323h-4.568zM195.225 149.646h4.568v1.324h-4.568zM180.255 149.646h4.568v1.324h-4.568zM166.209 265.063v32.204h3.217v-32.204zM242.656 39.628h32.095v3.184h-32.095zM84.706 47.119h14.62v1.994h-14.62ZM104.86 47.119h14.62v1.994h-14.62zM125.146 47.119h14.62v1.994h-14.62zM260.962 25.058h-6.977v1.965h6.977zM246.45 25.058h-6.977v1.965h6.977zM232.626 25.058h-6.977v1.965h6.977zM162.729 58.434l1.441-2.354 1.825-2.701 2.227-2.81 2.408-2.738 2.282-2.3 2.098-1.879-1.186-.857-2.099-.895-2.463-.346-2.482.328-2.154.84-1.934 1.313-1.314 1.497-1.077 1.788-.693 2.154-.183 2.518.438 2.318 1.132 2.263zM175.403 36.539l13.439-3.601-.358-1.334-13.438 3.6zM189.422 32.78l13.439-3.6-.358-1.334-13.438 3.6zM147.901 42.422h8.248v23.491h-1.253V43.436h-6.995zM125.973 30.83h11.438v2.035h-11.438zM107.801 30.83h11.437v2.035h-11.437zM75.455 61.066h2.033V37.685h-2.033zM134.976 60.265V62.3h-9.627v-2.035zM119.134 60.239v2.05H95.969v-2.05z"/><path d="M92.146 60.239v2.05H75.285v-.914h2.494v-1.136zM74.706 72.833v-35.54h-8.043v9.416h-5.39v2.013H66.7V62.89h-8.32v5.281h-4.93v-1.52h-6.5v13.794h1.978v-7.61zM46.854 48.714h2.019V26.52h-2.019zM54.482 81.078h10.529v-2.245h9.69v4.614h-1.5l-2.138.865-1.162 2.14-.071.894h-2.562v-2.37h-7.092v2.37h-5.694zM77.677 81.126h7.009v1.637h-7.01zM46.967 85.679h1.975v12.035h-1.975zM54.862 99.441h7.012v2.01H54.86zM46.964 126.745h1.942v-7.573h5.243v-6.865h-7.185zM66.604 96.841l-.61 6.686 1.7.155.61-6.685zM52.07 129.008h4.787v4.806h-4.786zM46.962 135.603h2.01v24.66h-2.01ZM54.88 150.508h6.995v2.076H54.88zM54.586 159.715v9.404h20.836v-2.974H73.63l-2.371-1.098-.964-1.618-.436-1.458h-5.452v-2.256zM54.766 174.762h20.518v1.556H54.766zM78.716 172.962v1.372h12.28v-3.844h-4.53v2.472zM94.429 174.716h10.083v1.586H94.429ZM112.454 174.716h10.084v1.586h-10.084zM125.491 174.305h12.342v-4.441h-4.599v2.497h-7.743zM139.703 174.755h7.054v1.504h-7.054zM148.461 174.044h6.897v-6.897h-6.897zM157.443 141.617v-4.47l.106-.271.195-.218.279-.113h.293l.271.113.211.218.12.271v4.47l-.12.285-.2.194-.297.131h-.255l-.29-.131-.214-.194zM157.443 108.297v-4.47l.106-.271.195-.219.279-.112h.293l.271.112.211.219.12.271v4.47l-.12.285-.2.193-.297.132h-.255l-.29-.132-.214-.193z"/><circle cx="87.6" cy="65.891" r="2.15"/><circle cx="116.099" cy="65.891" r="2.15"/><circle cx="130.572" cy="65.891" r="2.15"/><circle cx="167.767" cy="59.024" r="1.311"/><circle cx="176.454" cy="48.824" r="1.311"/><circle cx="182.929" cy="43.616" r="1.311"/><circle cx="192.2" cy="37.69" r="1.311"/><circle cx="202.527" cy="33.476" r="1.311"/><circle cx="213.002" cy="31.416" r="1.311"/><circle cx="222.947" cy="30.73" r="1.311"/></g><g id="Fountain" style="fill:#4a6b96"><path d="M247.292 212.807v1.894c5.53-.039 6.591.251 8.28 1.022v-2.001c-1.593-.669-2.662-.903-8.28-.915M218.994 215.449l.586-1.87c6.843 2.039 8.966-.434 13.677-.782v1.926c-3.549.625-8.047 2.639-14.263.726M213.579 204.647l2.01.056c-.339-3.168-1.745-6.894-1.452-13.844l-1.87-.167c-.442 7.134 1.149 10.819 1.312 13.955M217.905 178.159l1.647 1.256c1.972-1.398 4.337-1.743 8.541-1.87l-1.423-1.87c-3.992.369-6.506.698-8.765 2.484M229.349 175.452c4.23-.257 8.203-1.333 11.304-5.192l.754 2.149c-3.08 3.251-6.747 4.521-10.69 4.857zM243.137 170.288l-.781-2.456c1.079-1.826 1.792-2.864 2.4-5.638l1.982.028c-.694 3.251-2.202 5.756-3.601 8.066M242.719 144.386l.781-2.121c1.718 2.417 3.287 5.027 3.294 8.178l-1.898.028c-.013-2.381-.57-3.723-2.177-6.085M241.016 142.349l.754-2.121c-2.106-2.382-4.98-5.187-7.592-7.76l-1.256 1.368c4.922 4.921 7.447 7.597 8.094 8.513M231.303 132.245l1.284-1.424c-2.507-2.601-10.588-10.128-11.974-14.96l-1.368 1.842c1.575 4.228 9.718 12.244 12.058 14.542M217.766 108.046l1.954.027c.06 1.735.204 3.435.418 5.108l-1.674 1.926c-.345-2.326-.712-4.646-.698-7.061M225.257 158.18h11.583v-3.613h-11.583ZM224.994 150.738h11.894l-.24-1.651-.98-1.747-1.293-1.245-1.795-1.005-1.723-.31-1.89.334-1.7.886-1.148 1.316-.79 1.747zM224.994 162.081h11.894l-.24 1.651-.98 1.747-1.293 1.244-1.795 1.006-1.723.31-1.89-.334-1.7-.886-1.148-1.316-.79-1.747z"/></g><g id="Buildings" class="building"><path d="m73.166 83.265-2.233.903-1.21 2.229-1.547 17.38-4.373 2.078-2.452 4.247v10.195h6.797v22.937l1.532 18.771c.152.506.3 1.013.46 1.516l.991 1.668 2.46 1.139 12.106-.011 8.312-10.084 19.772 3.595h27.438l2.778-1.308 1.314-2.189 2.474-28.868q0-2.803-.005-5.606l-.994-12.508h-5.419l-1.093-12.28-.856-1.287-1.294-1.335c-.585-.186-1.168-.38-1.757-.555h-21.891v-7.224l-1.477-2.584-2.143-.82H73.168ZM79.72 211.613v61.529l11.617 11.617h1.03v18.401h10.13v21.878l1.085 1.085h36.209l.957-.955v-21.826h8.693v-16.519h-.554v-10.457h.537v-6.715h-.537v-7.418l.656-.005v-31.095l-3.67-.002-15.92-15.886.003-3.639H79.721ZM51.13-.051v9.329l11.93 8.207V37.47l16.913.02 2.208-.578 1.41-.905 1.159-1.05 1.483-1.664 7.779-9.284h8.87v2.433h28.858v.282h5.247l8.025 6.765 1.774.823 1.775.36h1.337l13.915-2.752.926 3.524 9.337-2.444.617 2.238 13.94-3.73.026.155 14.069-3.832-1.312-4.45 9.26-2.47 1.131-.54 1.004-.694.874-.9.694-.977h41.616l5.684 8.05 1.055.926.9.643.952.437 1.414.36 23.766 2.058 1.492-.103 1.311-.437 1.338-.72 1.08-.952.875-1.132.617-1.234.386-1.286.025-1.235V0ZM47.01 287.687h18.618V261.98h-3.943v-9.972h-7.222v1.027h-9.01v9.707h1.556zM158.112 340.438h-12.59v12.574h12.59zM187.599 488.448v-37.216h10.816v-10.956h-31.453v-28.505l-5.355-1.498.842-2.336-.895-.414-1.637 4.746-10.098-6.191-7.112-11.199-1.3-11.743h5.024v-.813H74.847v106.125zM255.377 432.494v7.794l-2.064-.523v8.747h-17.185v13.031h-4.965v4.063h-7.027v1.896h1.038v20.946h34.893l-.951-3.294.57-.19-.887-2.979-2.281.697-3.422-12.167-6.273-3.295 12.293.317-.063.507 3.041.127.191-2.408 12.42.253 11.596-11.723-1.013-3.612 20.595 4.816v-23.003h-1.859v1.03h-9.842v1.776h-1.264v-1.114h-1.384v1.114h-3.22v-1.114h-1.354v1.114h-1.295v-1.776h-10.051v1.776h-1.264v-1.114h-1.385v1.114h-3.22v-1.114h-1.354v1.114h-1.294v-1.776h-9.812v-1.03zM348.925 346.409l-13.994-13.903h-55.437l-.083 66.293-.173 2.493-27.831-3.615-27.646-13.402v-24.386h-29.987v-15.937H185.6v-84.044h85.959v26.938h7.979v3.096h55.033v-6.502h1.219v-28.617l.338-1.761.73-1.632 1.16-1.46 1.245-.816 1.503-.473 1.633-.257h6.526zM238.991 188.447l-9.322-4.511-7.95 16.425 9.321 4.512z"/><path d="M290.31 406.317h13.012v-15.984H290.31ZM255.672 162.568h-.365v1.04h9.181l-2.093 11.581-.303 1.857-.173 1.728-.043 2.03v2.851l.259 3.498 1.167 6.177 1.641 4.967 1.728 3.671 2.202 3.499 3.845 4.881 12.223.345 5.917 2.678v.907h10.149v3.405l.685.262 1.434.407 2.028.315h1.943l41.828-7.463v-64.182h-21.178v-43.634l-2.236-2.751-3.783-2.45-7.136.214-20.506 3.31v-6.233h-10.459v-7.824l3.684-.998 2.85-1.567 3.853-3.61 2.113-4.14.133-1.959-.463-4.6-2.091-4.514-4.029-3.368-3.346-1.211-2.598-.507H213.28l-7.44 7.44v36.221h21.921v-.737h21.247l.708.707h11.53v9.976l2.18 5.595 1.269 5.212.453 6.21-.362 5.846-.59 3.672-1.133 4.17-1.631 4.305h-6.11v1.259l.35.004zM348.925 376.496l-14.616 20.01v4.333h-6.564v9.368h-2.995v45.947h.573v2.166h2.613v9.623h20.989zM113.186 62.509v4.516h-13.104v.276h-4.346v-5.046h4.346v.254zM169.916 264.817h-4.224v-10.273h4.224zM169.916 307.74h-4.224v-10.273h4.224zM242.41 39.094v4.224h-10.273v-4.224zM285.302 39.094v4.224h-10.273v-4.224zM156.995 216.132h-4.444v2.926h4.444zM156.995 244.669h-4.444v2.926h4.444zM156.995 264.694h-4.444v2.926h4.444zM156.995 284.681h-4.444v2.926h4.444zM248.016 409.745v-4.444h-2.926v4.444zM271.533 410.49v-4.445h-2.926v4.444z"/></g><g id="Roofs" class="building" style="fill-opacity:.8"><path d="M79.338 284.83v-73.39h70.416v91.906h-3.358v26.861l-1.583 1.583h-46.48l-1.607-1.607v-26.741h-4.629V284.83ZM115.218 160.403h25.902l3.049-1.41 1.557-2.262 2.865-30.251-2.764-34.823-1.608-2.513-2.513-1.155h-26.482v-2.06l-1.407-2.714-3.115-1.055H73.064l-2.814 1.457-1.357 2.21-1.608 18.292-3.517 1.608-2.714 4.372v19.949l6.734 18.995 1.105 13.97 1.709 2.763 2.663 1.106h37.638l3.115-1.256 1.2-2.865zM158.33 340.243h-16.05v12.987h16.05zM192.748 488.448v-9.411h3.778v-17.756h-3.778v-10.049h5.667v-10.956h-30.752v-28.788l-5.969-1.511.755-2.04-5.062-2.342-4.004-3.174-3.552-4.533-2.418-5.365-.982-5.289v-4.987h-2.115v-6.195l-18.361-4.534h-1.889l-18.36 4.609v6.196h-44.05v3.702h-3.174v10.503h3.173v15.414h-1.058v51.908h1.058v15.414h-3.098v9.184zM224.136 488.448v-22.875h3.422l.507-26.235 9.886.19.063-4.119 3.802 1.014-.19.38 13.751 3.485v-7.794h50.506v23.003l-20.595-4.816 1.013 3.612-11.596 11.723-12.42-.253-.191 2.408-3.041-.127.063-.507-12.293-.317 6.273 3.295 3.422 12.167 2.281-.697.887 2.979-.57.19.951 3.294zM348.925 346.409l-13.994-13.903h-55.437v19.11l2.248 28.044-1.005 6.035-1.243 15.915-23.488 3.491-24.14-6.035-.946-2.426-7.159-12.365v-16.211H185.6V251.095h93.938v38.847h55.033v-6.502h1.219v-28.617l.338-1.761.73-1.632 1.16-1.46 1.245-.816 1.503-.473 1.633-.257h6.526zM238.991 188.447l-9.322-4.511-7.95 16.425 9.321 4.512zM203.838 58.862l.852 46.619 39.892 4.719.18.746 2.524.104 2.112 3.219.695 2.961.644 1.005-1.107 1.21-1.674 4.481 5.923 24.621 2.962.335.051 1.081h-2.215l-.772.773v12.155l.759.76h1.559l.154 1.352.335.129-.335 2.344-.85.257-.051.438-.773.335-4.584 18.517-.747 3.657-.541 4.326.567.103h1.339l2.447 1.159 2.369 2.266 1.519.619 1.906 2.42.258 3.374-1.932 3.219-.206.644 4.61 3.4 2.009 1.905 1.288 2.009.283 1.108-.129.875-.541.799-1.365 1.313-.875 1.365-.567 1.494-.257 1.88.154 1.365.464 1.339.566 1.056.953 1.004 1.082.901 1.39.619 1.571.309 1.468-.026 1.674-.412 2.267-.876 1.442-.669 1.622-.979 2.189-1.777 3.117-2.55 2.807-2.446 1.442-1.185 1.133-.438 1.545-.077 1.623.103 1.622.258 1.571 1.519 1.7 1.365 1.545 1.004 1.854.927 1.88.593 1.829.463 2.575.464 3.735.309h3.966l3.966-.283 4.326-.541 4.687-.799 5.28-1.107 6.104-1.365 6.824-1.571 5.398-1.236v-69.985h-14.827v-44.135l-.058-1.881-.636-4.168-1.013-2.547-1.158-1.707-1.042-1.216-1.707-1.447-2.171-1.273-2.605-1.071-2.199-.608-2.576-.203-2.634.116-3.588.492-4.486 1.013-12.792 2.952-.955.29-5.528-.955-2.373-.753-2.808-1.852-1.157-1.418-1.071-1.1 1.418.029 2.315-.174 2.431-.665 2.489-1.13 1.882-1.388 1.968-1.824 1.62-2.43 1.129-2.576.579-2.46v-3.85l-.434-2.17-.955-2.229-1.534-2.286-1.824-1.997-1.823-1.331-2.72-1.419-2.923-.868-3.387-.231z"/></g><g id="Fence" style="fill:none;stroke:#c4e3c3;stroke-width:1"><path d="M46.762 66.375v102.387M46.762 157.088h-9.195v6.196M29.435 144.927l-1.296 11.21-2.478 6.597-2.479 10.6-3.256.904M72.021 217.23v-12.322M72.05 235.045v25.547"/></g><use xlink:href="#the_ground" id="Border" style="fill:none;stroke:#000;stroke-width:2"/><g id="Sniper" style="fill:red;fill-opacity:.4;stroke:red;stroke-dasharray:4,2;stroke-width:2"><path d="M45.452 253.736H19.33v22.294h26.123ZM45.243 148.82l-25.747-.202V46.295l25.747.202ZM272.904 253.037V220.8h39.662v32.237zM254.483 398.077v34.417h52.376v-34.417z"/></g></g><g id="First_Floor" data-keep-with-group="Ground_Level" style="filter:drop-shadow(0 0 2px #000)"><g id="Floor-1" style="fill:#70777f"><path d="M75.157 163.939v-1.67h1.76v1.342h.119v-2.624H69.94l-.75-8.563-.735-8.475 2.107-.015 2.091.001v-.716l-4.323.001v-23.105h-6.797v-7.334l15.1-.003 3.412 3.267v6.447l.001 6.447h-.566v.894h3.31v-.297l-.783-.008-.783-.008-.007-3.793-.008-3.794h4.71v.596l3.004.006 4.71-.004 1.707-.011v1.112h.21v-1.103h2.563v-13.117h13.266v.059h18.633v.686h.269v-.686h6.35v1.849h.328v-1.789h9.659v.055l.492 6.199.492 6.144v5.534l-.299 3.265-.312 3.301-.013.038h-10.049v-1.759h-.268v1.759h-1.014v.179h.686v7.93h-3.965v-7.93h.656v-.179h-2.743v-.626h-.268v.656h-3.995v9.838h-.656v.268h1.103v3.697h.238v-.686l1.782-.007 1.781-.008.009-.082.01-.082h2.411v-.089h4.419l4.42-.001v6.566l.387-.005.402-.021.023-3.21.008-3.328 1.82-.001 1.819-.001-.448 4.806-.414 4.523-.631 1.053-.632 1.052-1.346.634-1.346.633h-19.542v-2.713h.327l.006-6.352 4.855.002v-.954h-.358v.523l-4.8.01v-1.427h-.238v.834h-2.058v-.447h-.327v-4.084h.327v-.448l1.022.008 1.021.008.008.343.008.344.119-.012.118-.011v-1.07l.157.006.536.002.38-.005v-.268h-.566v-9.838h-5.784v-3.936h13.625v.656h.268v-5.247l-6.201.002v-7.127h6.201v-5.664h-.268v.685h-14.221v8.139h-3.965v-8.049l-.454-.002.002.061h-8.939v13.625h-6.887v-1.461h-.209v1.282h-9.42v4.591h7.77l-.002 2.594-.002 2.593H85.92v2.854l-2.713.003-2.713.002v-.533h-.686l.003 4.056-2.597-.002v.716h1.58l.008 1.498v7.513l-.008 6.014h-3.756v.105l1.87.008 1.885.025.024 3.263.008 3.247h-3.668zm55.213-10.047v-.387l-3.25-.002v.772l3.25.004zm8.825.388v-.805l-3.026.015-.016-3.116h-.745v3.22h.567v.722zM80.49 136.183h-.682v1.223h.68zm.004-4.65h-.686v1.043h.686zM273.47 173.166v-10.598h-9.57v-3.071h-.298v3.071h-7.93V151.06h7.93v3.13h.298v-3.12l3.153-.02 4.755-.02h1.602l.001-.246.298-48.527h-.358v.894h-.924v.447h-3.936v-.417h.12v-.417h-.716v.417h.119v.417h-52.41v-27.36l-1.26-1.776-1.259-1.775-3.063-.002-3.064-.002.001-2.571.001-2.572 2.693-2.713 2.692-2.712 34.081-.011 34.08-.011v7.58l-4.271-.001h-8.221v9.152h-4.293v4.383h2.356v2.445h-2.356l-.005.782-.005.976.005 3.123.005 2.93h4.293v3.636h-.119v.418h.716v-.418h-.12v-1.52h3.906v.268h.924v1.133h.417v-1.133h4.562v2.467l-.001 22.717.001 20.25h10.911v3.161h13.443l-.003 1.423.002 10.658.003 9.234h5.098v-16.873h4.502v9.958l-.001 9.958-1.006-.002h-8.324v.507h-9.451v3.101h-15.025v1.788h.411l.018.047.02 2.72.002 2.719-.002 2.064-.002 2.02h-5.426zM226.679 202.423l-4.179-2.004 1.943-4 2.034-4.143 1.176-.773 1.176-.772 1.351-2.794 1.351-2.794 3.898 1.897 3.175 1.552-.008.038-3.845 7.916-3.867 7.878zM45.97 257.848v-4.263h8.581l.003.228.02.246h.397l.018-.716v-.684l6.052.002v9.448l-7.535.001-7.535.001zM185.881 279.522v-19.408h45.434l.004.052-.005.082-.018.119-.028.209-.025.194-.027.119-.031.209-.032.215-.002.083-.016.076-.036.043.018.089-.01.105-.027.098-.016.17-.105.656-.136.939-.102.701-.089.581-.046.343-.029.209-.036.223-.017.124-.027.194-.045.279-.022.164-.028.149-.039.238-.029.239-.043.253-.046.358-.045.372-.044.313-.047.299-.037.223-.027.095-.023.119-.007.174-.032.128-.007.112.019.073h-.066l.009.097-.016.136-.005.111.018.073h-.067l.019.104.02.105h-.07l.018.088.017.088-.031.02-.032.02.017.084.017.085-.032.02-.019.105-.012.086-.025.045v.045h-.103l-.119-.028-.018-.028-.103.017-.104.016v-.073l-.075.018-.13-.01-.29-.043-.275-.016-.039-.003.022-.034.021-.034-.08.02-.08.02-.275-.045-.588-.092-.656-.09-.581-.086-.634-.094-.395-.077-.024-.013-.44-.041-.475-.07-.223-.033-.373-.048-.313-.042-.388-.059-.335-.046h-.052v3.488h.522l.521.022 1.081.019 1.111.019.283.039.566.038.328.041.76.073.761.077.342.076.343.074.276.059.261.059.037.022.336.055.313.073.357.074.358.074.239.056.232.063.231.078.222.072.223.075.207.071.2.069.233.077.196.063.195.065.224.077.222.069.164.059.306.109.186.071.029.031.03.013.03.012.104.067.105.057.119.073.119.076.073.04.154.093.134.074.107.056.166.092.112.056.223.139.224.141.044.023.045.03.022.026h.059l.089.059.13.074.146.079.1.06.223.142.259.208.103.067.017.03-.018.029.044-.017.044-.016.033.061.078.062.061.045.141.102.205.129.06.097.016.003.038-.022.315.23.416.33.131.1.031.039.104.076.104.074.064.065.064.059.063.073.122.12.142.149.082.097.06.083.059.04.06.057.06.109.029.032.082.055.217.243.245.263.082.113.06.057.06.041.134.159.134.157.119.131.12.146.056.064.227.307.173.313.04.051.04.057.048.082.075.1.086.151.111.193.09.144.037.082.03.043.03.04.06.094.059.076.133.225.119.223.035.039.047.019-.017.045-.018.046.043.016.093.094.059.177.008.098h-.029l-.011.03-.015.03-.016.028-.041.082-.074.143-.047.099-.03.063-.023.074-.023.042-.025.087-.052.067-.011.03-.015.03-.015.03-.015.03-.015.03-.015.029-.016.028-.015.037-.039.06-.046.095-.02.075-.026.072-.025.062-.018.019-.019.029-.014.03-.017.028-.028.072-.045.088-.046.082-.031.078-.015.04-.014.027-.022.067-.041.055-.022.082-.051.067-.011.03-.018.029-.017.02-.016.063-.046.105-.031.08-.031.06-.038.055-.01.037-.017.028-.015.029-.015.03-.015.03-.015.03-.017.026-.027.063-.029.061-.015.043-.031.077-.031.058-.015.027-.032.045-.047.018.017.044-.014.045-.013.027-.031.075-.054.089-.045.088-.038.046.022.036.022.036-.039-.025-.04-.024.019.049.019.05h-.03l-.013.03-.015.03-.014.029-.015.03-.015.03-.015.03-.017.027-.014.038-.039.057-.072.133-.066.049-.031-.021-.029-.015-.025-.018-.064-.04-.08-.04-.04.015v-.038l-.018-.02-.052-.01-.106-.088-.114-.059-.36-.184-.543-.318-.233-.159-.038-.008-.027-.013-.104-.063-.104-.064-.03-.011-.03-.012-.074-.05-.075-.019.02-.031.019-.032-.049.019-.05-.006-.097-.065-.12-.078-.066-.039-.468-.249-.546-.319-.141-.101-.022-.008-.065-.036-.089-.044-.025-.018-.028-.016-.037-.009-.219-.14-.223-.136-.142-.072-.127-.079-.029-.01-.03-.011-.105-.064-.104-.06-.104-.063-.105-.057-.119-.073-.119-.077-.104-.057-.105-.064-.03-.011-.029-.015-.03-.015-.03-.01-.104-.064-.105-.057-.141-.091-.455-.25-.329-.203-.127-.069-.11-.07-.105-.061-.104-.067-.03-.012-.03-.01-.104-.064-.104-.064-.03-.011-.03-.009-.097-.068-.127-.064-.141-.097-.112-.06-.142-.075-.223-.121-.082-.062-.03-.01-.03-.007-.205-.136-.218-.11-.015.037-.639 1.158-.688 1.208-.118.213-.107.126-.643-.354-.711-.416-.231-.137-.135-.077-.21-.119-.224-.119-.447.297-.417.278-.038.027-.654.482-.639.436-.099.071-.947.686-.885.615-.088.068-.158.111-.183.126-.129.082-.17-.081-.149-.104-.04-.023-2.494-1.421-2.498-1.46-.052-.021-.019-.017-.03-.018-.03-.01-.074-.047-.075-.047-.127-.093-.141-.083-.125-.074-.127-.051-.082-.056-.104-.061-.039-.033v-.033l-.044.017-.044.017-.023-.04-.191-.133-.191-.07-.004-.013-.008-.044-.028-.01-.009-.809-.01-.809.038.015.037-.019-.037-.033h-.038v-.224l-.094-.009-.094-.009-.019.248-.011 1.969.01 1.722h-5.382v-2.475h3.131l.003-2.556v-2.579l.919-.022h.921l.016.082.097.583.081.5.12-.009.121-.008.066-.403.088-.492.028-4.713.008-4.624-.138.011-.78.058-.775.057-.343.027-.365.036-.157.018-.003 1.39.002 3.812.005 2.423h-1.196v.149h-1.312v-.149h-2.146v.149h-1.312v-.149h-1.342l.001-.962-.01-2.934-.012-1.973.025-.04.026-.013.04-.007.06-.014.019-.013.112-.07.134-.032.023-.024.022-.024.142-.056.141-.067.193-.081.177-.08.026-.207.021-.202-.085.001-.28-.012-.536-.038-.626-.023-.708.014-.425.04v.024l-.224-.02-.223-.021v.089l-.431.021-.466-.001-.037-.022.023.036.022.037-.189-.002-.435.015-.246.041-.425.047-.634.032-.447.028-.253.044-.447.044-.652.028-.238.037-.02.029-.596.037-.865.05-.342.011-.233.018-.159.018.006 1.034.006 1.034-.138.009-.138.009v.205h.357v1.342h.179v-.686h7.99v3.935h-7.99v-.626h-.169l-.02.47-.019.879v.41h5.455v.895l1.051.001 1.625-.001.574-.003v4.266h-3.25v1.252h-.057l-.072-.037-.015-.038-.002.038-.003.037h-5.247v14.31h-9.063v-.239h-.179v.239h-2.623zm2.802 17.351v-.239h.03l.03-.059-.026-.06h-.026l-.001-2.221-.002-2.221h.144v-.268h-.328v5.306h.179zm6.711-2.065.001-2.72-.004-4.938v-4.074l-.045-.017-.044-.017-.001 3.822.001 4.382.002.559h-.628v.268h.626v4.442h-.507v.149h.596zm-4.415 1.767-.026-.06h-.027l-.001-2.221-.001-2.221h.234v-.268h-1.163v.268h.741l-.001 2.221-.002 2.221h-.41v.119h.656zm2.242-.813-.004-2.28-.01-1.409h.276v-.268h-1.163v.268h.682l-.002 2.221-.001 2.221h-.47v.119h.686zm-2.987-8.161v-.298h-3.906v.596h3.906zm5.187-10.881v-4.234h.358v-.208h-.358l-.003-.962-.023-1.218-.019-.256-2.623-2.672-2.644-2.666-.466.425-.446.417.266.27.245.291.016.02 1.501 1.484 2.638 2.662 1.149 1.202.01.014.152.124.118.134.003 4.084.005 4.703.002.619h.119zM117.223 324.256v-1.685h6.827v-.238h-6.842l-.004-3.844-.003-3.843.063-.017 3.052-.017 2.988-.001v-.238l-3.003-.004-3.048-.007-.045-.004-.007-3.913-.006-3.913 3.07.007 3.069.008.001-.686-.001-1.542-.001-.857h11.509v.685h.298v-.775h.239v-.145l.018-.239.019-.093h-.98l-.001-2.982-.001-2.983 1.381.009 1.381.009-.002-.499-.002-.498-.054-.017-.132.002-.077.019v.68h-3.041v-6.231l-4.241-.008-6.715-.01-2.944-.007-.47-.005v-3.041h4.144v-.328h-.732l-.185-.187-.186-.187.001-3.547v-3.547l.228-.201.227-.202h2.167l.224.213.224.212v5.299h.209v-5.233l.245-.245.246-.244 2.117-.001h2.601l.485-.001v-.149h-2.123l.01-2.683.013-2.679h-.048l.001.339v.343h-2.415v-2.236h2.415v.656h.053l-.016-1.401-.016-1.402h4.003v4.532l.001 4.531h-1.103v.149l.425.001.424.001.172.166.171.165v4.706h.445l.001-7.245.001-7.244h-8.081l.002-1.036.001-2.4-.001-1.364h-.298v.537h-2.676l-.226-.202-.225-.201.001-1.297v-1.296l.212-.187.212-.186h.794v-.179h-2.519v-.119h-1.382v.119h-1.525v-3.489l.753.008.772.008v.134h1.382v-.134l2.258-.008 2.259-.007v.149h1.371v-.149h.835v-2.564h-.775v-5.933h.774l.008-1.319.008-1.319.067-.01.067-.009v-1.337h-.149v-1.908h.954v-.328h-1.965l-9.394-9.447v-1.942h-.286l-.013.537.003.536h-4.95l.002-4.68.002-4.681h4.944l-.007 3.277-.008 3.277.145.01.155-.008.02-3.265-.017-4.61-.026-1.364h3.465v-.447h-3.459v-9.063h12.343l-.002 1.766-.001 1.767 8.013 7.996 8.014 7.997h1.781l1.781.001v12.343h-18.841v.328l.276.002.477-.002.201-.004v1.912h-.147l-.008.685-.009.686h.164l-.007 2.124-.008 2.124-.067.01-.067.009v1.363l.067.01.067.009.008 3.317.007 3.317h-.149v1.371h.149v.954h-4.442v-.117l-.686-.009-.685-.008v.134h-1.103v.179h1.013v.656h.298v-.656h22.837v7.781h.536v6.35h-.536v10.822h-22.473l-.13-.108-.196-.18-.067-.073v-.921h-.209v.928l-.156.177-.156.177h-.553v.328l4.226.004 5.59-.003 1.364-.008v.789l.02 2.94.02 2.151h.944v1.133h.253l-.008-.485-.008-.484 1.943-.001h1.942l-.019.358-.019.359 3.948-.01 3.947-.009.002 4.131.002 4.131h-5.311l.01-.134.011-.135h-1.289l-1.308-.007-.014.414.005.421-.499.004-.503.011.009.238.013.231h.53v21.719l-.425.425-.426.424h-22.492zm15.115-7.893-.001-6.827.001-.619h2.766l.018-.047.018-1.774v-1.727h-.298v3.28h-2.504v-2.722l-.273.019-.626.02h-.353v.253l.447-.006.447-.006v8.063l-.001 8.063h-5.753v-2.147h-.194l.008 1.073.009 1.074h-.717v.238h7.008zm-6.097-.351v-1.162h-.224l-.002 1.11-.012 1.163-.01.052h.248zm0-8.742v-1.051h1.327v-.224h-1.521v2.326h.194zm11.97-4.069.019-.239.017-.067h-1.057l.018.093.019.239v.145h.984zM121.68 226.49l-.33.346 12.757 12.8.437-.435zM151.631 352.533l-.011-.127-2.748-.001-2.761.006v-.832h-.268v-1.819h.283l.022-8.734h5.478v-.239h6.112v11.866h-6.118zM141.456 386.654l-1.427.135-1.416.146h-10.099l-10.099.001v3.488h-5.187v.835h-.537v-1.282h-4.889v7.364h.507v.089h.238v.388h-.238v.089h-.507v2.357l14.491 22.903 7.654 12.11 1.071.5 1.091.499.109-.179.099-.193.086.034.054-.109.062-.09.161.066.135.091-.045.112-.045.086.046.026.045.025-.09.199-.09.223 6.335 3.032.238.102 1.07-2.205 1.029-2.215-.568-.273-.557-.263.117-.233.13-.233.362.164.351.165 1.147-2.343 1.099-2.294 3.165 1.475 6.758-14.28 1.825-3.905 1.616-2.59-.558-.342-3.546-2.172-2.988-1.829-3.618-5.679-3.619-5.678-.479-4.154zm-8.447 4.391.013 2.327-.054.668-.252.827-.593 1.153-.745.979-.84.654-.686-1.055.666-.542.562-.732.451-.947.164-.961-.014-2.364zm-20.318 5.133h.537v.835h2.385v.507h.715v.358h-.536v1.967h2.415v-1.967h-.567v-.358h.686v-.507h1.997v.507h.68l.015.039-.001.119-.015.08h1.319v-.238h.715v-.507h2.295l1.819 2.918-1.52.979 1.582 2.46-.385.238-.141-.158-2.159 1.375-.683.455-.211.225-.233.372-.22.522-.095.288-.013.43-.012.43.035.175.119.365.264.498.759 1.223.581.914-.198.137-1.316-2.07-1.356-2.113-1.908 1.193-1.931 1.215.708 1.18.73 1.158-.125.079-6.82-10.761v-2.862h-.477v-.06h-.239v-.388h.239v-.089h.566v-.581zm27.631 1.339.74 1.147-1.101.711-.74-1.148zm-3.642 2.291.74 1.148-1.101.71-.74-1.147zm-3.641 2.31.74 1.147-1.102.711-.74-1.147zm12.612 3.802.74 1.147-1.101.71-.74-1.147zm-3.659 2.291.74 1.147-1.101.711-.741-1.147zm-3.642 2.31.74 1.147-1.101.71-.74-1.147zm-12.794 1.405 1.251 1.961 1.937 3.039.64 1.004.451.407.371.214.522.201.253.069.537-.003.537-.003 3.115-1.954-.101-.144.385-.266 1.555 2.504 1.577-.942 1.81 2.811-.986 2.096-.327-.17-.085.025-.148.294-.128.279-.25-.105-.302.609-.257.585.089.063.089.05-.121.299-.149.383.42.202-.833 1.749-.446-.199-.141.31-.165.324-.112-.031-.101-.046-.285.577-.273.592.12.068.119.054-.167.315-.166.315.434.208-1.003 2.09.41.222.37.192-.124.233-.143.232-.461-.195-.58-.229-.104.229-.104.229-.057-.018-.056-.018-.038.091-.056.088-.138-.063-.13-.072.027-.104.039-.094-.05-.028-.049-.027.105-.209.105-.209-.277-.13-1.29-.608-1.014-.477-2.75-4.347-8.886-14.008.188-.096.763 1.222.778 1.215 1.156-.716 1.219-.749.059.136-1.157.702-1.216.761 4.511 7.099 3.831-2.47-3.231-5.104-1.234-1.929-.268.166-.301.166-.091-.107.294-.179.293-.179-.101-.162-.102-.178zm19.971 3.16.853.142.622.249 2.078 1.048-.598 1.185-2.111-1.064-.933-.281-1.048-.018-.906.178-.782.355-.639-1.083.959-.462 1.208-.231zM264.109 459.753v-3.98h.596v-.268l-15.562-.015v6.054l-6.38.004-6.38.003v-12.753h12.745l.007 1.793.017 1.803 3.928.011h3.993v-.179h.686v-.507h-.686v-2.116h2.981v2.116h-.685v.507h.685v.179h4.434l4.27-.001.001 1.551.001 1.55h-1.431v.269h.658l-.002 7.96h-3.876z"/></g></g></svg>