<?xml version="1.0" encoding="UTF-8"?>
<svg id="Layer_1" xmlns="http://www.w3.org/2000/svg" version="1.1" xmlns:xlink="http://www.w3.org/1999/xlink" viewBox="0 0 940.38 860.89">
  <!-- Generator: Adobe Illustrator 29.8.2, SVG Export Plug-In . SVG Version: 2.1.1 Build 3)  -->
  <defs>
    <style>
      .st0 {
        fill: #fcc;
      }

      .st1 {
        fill: none;
      }

      .st2 {
        fill: red;
      }

      .st3 {
        fill: #70777f;
      }

      .st4 {
        fill: url(#New_Pattern_Swatch_1);
        opacity: .35;
      }
    </style>
    <pattern id="New_Pattern_Swatch_1" data-name="New Pattern Swatch 1" x="0" y="0" width="24" height="24" patternTransform="translate(-35.14 918.11)" patternUnits="userSpaceOnUse" viewBox="0 0 24 24">
      <g>
        <rect class="st1" width="24" height="24"/>
        <polygon class="st0" points="1.93 24 0 24 0 21.97 21.95 0 24 0 24 1.93 1.93 24"/>
        <polygon class="st2" points="5.84 24 1.93 24 24 1.93 24 5.84 5.84 24"/>
        <polygon class="st0" points="0 17.88 0 13.93 13.93 0 17.88 0 0 17.88"/>
        <polygon class="st2" points="0 21.97 0 17.88 17.88 0 21.95 0 0 21.97"/>
        <polygon class="st0" points="0 9.84 0 5.95 5.99 0 9.84 0 0 9.84"/>
        <polygon class="st2" points="0 13.93 0 9.84 9.84 0 13.93 0 0 13.93"/>
        <polygon class="st0" points="0 1.93 0 0 1.93 0 0 1.93"/>
        <polygon class="st2" points="0 5.95 0 1.93 1.93 0 5.99 0 0 5.95"/>
        <polygon class="st0" points="9.88 24 5.84 24 24 5.84 24 9.8 9.88 24"/>
        <polygon class="st2" points="13.85 24 9.88 24 24 9.8 24 13.87 13.85 24"/>
        <polygon class="st0" points="17.8 24 13.85 24 24 13.87 24 17.8 17.8 24"/>
        <polygon class="st2" points="21.8 24 17.8 24 24 17.8 24 21.8 21.8 24"/>
        <polygon class="st0" points="21.8 24 24 21.8 24 24 21.8 24"/>
      </g>
    </pattern>
  </defs>
  <path id="Walls" d="M690.29,861.45l.24-78.84,41.4-.75-.29-97.68-12.15-.32.16-14.84c-.58,0-1.16.01-1.73.01-17.85,0-34.7-3.9-50.08-11.58-7.76-3.88-15.08-8.72-21.77-14.4l-2.31-1.96,13.77-15.93c-8.38-6.95-15.27-15.68-20.05-25.41-7.19-14.64-8.22-28.49-7.81-37.55l-1.33-3.1v52l-58.37.09-.19,70.4-248.96.2.36-53.32,20.09-14.77-.05-2.59c-4.94.13-16.15,1.8-27.32,12.94-14.23,15.94-17.04,32.59-16.97,34.55l.02.17v.09s.3,69.31.3,69.31l2.58,1.92h10.84l-.1,49.17h-38.64l-.06-8.83-42.07-.08.08,4.58-88.04-.18.03,36.42h-41.42v.88H23.77v-56.85l-24.08-.03v-25.43l35.08.17.09-59.58,20.56-.07-.12-56.93,38.25-.13v.23s36.31-.12,36.31-.12l.12,57.02,11.88.13v.06l44.56-.19.38,51.35-44.85-.09h-39.62s-.07,8.33-.07,8.33l38.59.09v-.93l88.63.36.17,15.74,36.21.07-.09-98.98,2.76-8.46,2.21-5.52-8.9-2.79-1.41,7.66-71.25.44-.33-107.05c-10.68-.45-27.87-1.29-39-7.38l-.12-.07-.11-.08c-17.54-11.83-29.2-26.33-33.32-33.03-6.46-10.5-8.53-21.93-9.6-30.71l-.84-11.09-.83-208.94.42-22.01h-31.26v2h27.49l.37,86h-23.98l-.67-64.25-22.7-.09v-68.19l89.99,1.07.2,43.13h-16.23s.02,1.36.02,1.36l89.35.83.2,29.37-84-1.67,1.09,203.59c1.22,14.71,3,22.03,4.27,23.98,3.65,5.59,9.52,12.41,12.58,15.53,5.3,4.69,16.95,10.07,30.11,10.85l6.6.22v-22.95h-27.36l.35-87.35.07-54.62,46.97.29.08-6.64,1.16-8.92,1.5-5.85,1.41-5.64,1.86-5.66,2.28-6.32,3.58-6.33,7.13-8.8,6.98-7.2,9.52-8.04,9.54-6.34,8.15-3.02,10.37-1.29h4.69l.05-35.67h1.99l.11-48.87,1.73-8.38,2.08-5.3,2.92-5.88-31.77-8.38-11.84,42.75-95.94-26.57,20.58-74.31,95.94,26.57-2.34,8.46,37.62,8.79,8.59-16.16,3.31-4.41,4.8-5.3.05-.05c14.83-14.82,29.66-29.65,44.48-44.48l22.89-22.89c1.92-1.92,2.73-3.12,2.77-4.12.06-1.16-.15-2.06-1.42-3.7L355.67-1l18.01-17.18,28.19,29.53c6.01,6.65,8.91,13.31,8.91,20.43,0,7.48-3.36,14.55-10.28,21.6l-50.62,50.62,32.88,32.88,14.66-14.56,3.68,3.68,28.04-27.29,4.54,4.66,53.35-53.35-9.49-9.49,9.28-9.27-7.04-7.07,14.78-14.78,7.04,7.07,9.26-9.27,38.21,38.2-33.33,33.33-13.75-13.75-53.55,53.56,10.72,11.01,8.95-9.19,11.64,11.87-103.78,102.89-13-12.45,11.77-11.42-29.79-30.62,16.27-15.83-3.28-3.27,7.91-7.86-32.83-32.83-.25.25-4.41,5.66-18.93,34.65-2.27,4.55-1.37,3.8-.62,7.15.06,43.81,2.88.02.11,24.21h19.34l.07,38.55h-47.28l-6.27.94-5.52,1.54-6.01,3.13-5.33,3.67-4.29,3.61-3.45,3.82-2.25,2.93-1.58,3.71-.15.45,31.24,7.85v-1.37s112.33.18,112.33.18l1.05.43-.21-2.76c-.68-8.75-.61-31.36,14.73-52.39,13.09-17.94,30.45-25.51,39.63-28.42l.42-.13,1.66-.02.11-5.43h57.2v.33s49.73.12,49.73.12v.76s49.44.19,49.44.19l.18,53.03h1.69s.17-17.71.17-17.71h36.69l-.27,17.33h30.22l.04,20.17.81-.18,54.3.19.33,37.9h.32s-.17-14.58-.17-14.58h50.02l.37,59.02-50.02-.38v-17.89h-.32s.14,26.4.14,26.4l24.83-.11c25.64.37,49.77,11.48,66.26,30.47,19.35,21.08,21.64,39.87,21.59,79.64l35.09-.16.17,7.34,14.07-.04v-159.27l51.17-.19v181.68h-49.93l-.17-6.9-15.37-.36.17,15.62-19.2-.17v20.61l-14.67.17v8.07l-33.64-.4-.52-64.44-.28-32.45c-.34-7.6-4.41-19.65-14.84-30.79-10.38-9.72-17.39-14.29-36.36-14.29l-27.33.17-13.52-.11v126.12l-52.77-.24c0,1.18,0,2.52,0,3.96-.04,6.63-.1,15.71,1.59,24.05,1.17,4.51,6.08,13.51,10.4,19.08l3.65,3.38,11.7-12.29,49.12,26.28,24.8,1.82.19,31.04,27.39-.2v.64s36.05.52,36.05.52v32.38l-35.78.26v180.65h-100.9Z"/>
  <path id="Floor" class="st3" d="M892.36,350.78v159.28l-20,.06-.17-7.33-35.16.16c.17-43-2.17-60.33-20.85-80.69-18.65-21.48-43.65-29.14-63.99-29.44-12,.06-15.83.07-27.83.13l-.17-32.5,6.33.17v17.83l44,.33-.33-53h-44l.17,14.67-6.33-.17-.33-37.83-48.33-.17-.17,67.17-6.5-.17-.17-87h-43.33l-.16-6.36,13.33-.14.17-10.83h-30.67l-.17,17.67-20.33.17v-4.41s12.67-.09,12.67-.09l-.17-48.67-43.5-.17.17,48.83,15.5-.17.06,4.78h-37.22l-.11-4.56,15.78-.06-.11-49.61-46.11-.11v18.11h-3.53l-.08-18.44h-51.28l-.11,5.39-4.11.06c-6.34,2.01-24.51,8.69-38.11,27.33-15.69,21.5-14.64,44.3-14.17,50.39,5.96.02,11.93.04,17.89.06l-.06,7.22-17.67.06.2,43.39-7.36.06.16-45.22-106.33-.17-.06,10.44-3.32.11.1-9.16-30.28-7.61-1.16,5.55-4.92-.12,1-4.96,1.75-5.25,1.78-4.17,2.55-3.33,3.67-4.06,4.56-3.83,5.6-3.86,6.45-3.36,6-1.67,6.67-1h44.5l-.06-32.55h-19.33l-.11-24.23-7.95-.05.06-4.13,5,.02-.06-42.78.67-7.67,1.56-4.33,2.37-4.76,19.07-34.91,4.67-6,2.5-2.5,37.08,37.08-7.91,7.86,3.3,3.29-16.3,15.86,29.79,30.62-11.69,11.35,8.64,8.28,99.59-98.73-7.4-7.55-8.96,9.2-14.93-15.34,57.76-57.77,13.75,13.75,29.09-29.09-33.97-33.96-9.27,9.27-7.04-7.07-10.54,10.54,7.04,7.07-9.27,9.27,9.49,9.49-57.62,57.62-4.57-4.69-28.01,27.26-3.66-3.66-14.66,14.56-37.12-37.12,52.72-52.72c6-6.12,9.42-12.42,9.42-19.5s-3.35-13.13-8.08-18.36l-26.12-27.36-13.67,13.04c8.71,9.12,17.42,18.25,26.13,27.37,1.73,2.19,2.25,3.79,2.15,5.81-.1,2.1-1.44,3.89-3.65,6.1-22.46,22.46-44.91,44.92-67.37,67.37l-4.66,5.14-3.09,4.11-9.56,17.99-42.91-10.02,2.37-8.58-90.16-24.97-18.98,68.53,90.16,24.97,11.83-42.72,38.19,10.08-4.5,9.06-1.94,4.94-1.62,7.83-.11,47.39,5.89.02-.05,4.15h-7.84l-.05,35.67h-7.5l-9.84,1.22-7.5,2.78-9.11,6.05-9.27,7.83-6.78,7-6.89,8.5-3.33,5.89-2.17,6-1.83,5.56-1.39,5.55-1.45,5.67-1.11,8.56-.11,9.45-46.94-.29-.06,48.61,16.72.06-.05,5.94-16.28.06-.72,81.28h61.11l-.03,7.64h-33.75v21.41l-9.78-.33c-14.89-.89-26.89-7.11-32-11.67-2.99-3.03-9.16-10.13-13.03-16.07-2.19-3.37-3.8-13.98-4.75-25.48l-1.11-206.78,84,1.67-.16-23.34-89.34-.83-.08-7.34h16.25s-.17-37.16-.17-37.16l-84-1v62.17l22.67.09.67,64.24h18l-.34-80h-27.5v-8h37.32l-.48,25,.83,208.83.82,10.84c1.07,8.72,3.03,19.5,9.18,29.5,4.44,7.22,15.98,21.01,32.44,32.11,11.56,6.33,30.69,6.7,40.56,7.14v49.41h16.5l.08,6.25-16.33.09.08,51.16,65.75-.41,1.57-8.55,15.39,4.83-.54.88-3,7.5-2.58,7.92-.17,35h7.25v6.42l-7.25.08.25,54h5.83l.09,11.75h-4v-5.75l-44.08-.08-.17-15.75-82.67-.33v6.21l-5.33-.04v-5.25l-71.85-.17-.07-4,32.67.08.08-10.33h39.58l-.08-29.25h4.67l-.08,29.25,40.33.08-.33-45.33-40.08.17v7.52s-4.5.06-4.5.06v-7.67l-22.83-.25-.09-4.67,11.03.03-.11-52.22-33.33.11.33,52.78,12.08.22v3.64s-27.42.1-27.42.1l-.1-4.19,11.76.11.33-52.89-32.22.11.11,52.56,10.22.11-.11,4.22-30.67.11-.08,55.53,17.5-.08-.09,4.25-52.49-.25v19.42l38,.04v4.33l-13.92.04v52.46h34.42l-.04-52.5-12.08-.04v-4.33l28.96-.08.04,4.5-13.25-.14-.08,52.59h32.75l.04-52.62-10.33-.04v-4.17h25.08l-.08,4.21-11.25.17.04,51.58h37.92l-.04-51.67h-18.08l.04-4.29,18.12-.04.04-6,5.04.08v25.5l82.83.17-.08-4.58,43.42.08v-5.75h4.64s.11,14.58.11,14.58h32.67l.08-43.17h-8.83l-4.58-3.42v-41.42l-2.58-.08-.08-6.42h2.42l-.06-22.89c-.25-2.07,2.67-20,17.78-36.89,14.67-14.67,29.62-14.1,32.44-13.78l.13,6.98-20.13,14.79-.33,48.78,48.33-.33v-2.5h5.25l-.08,2.67,50.92.25-.75-37.66,7.08.16.03,37.83,50.89-.41v-3h5.91s.09,3.16.09,3.16l75.26-.33-.26-62.96-10.79-.04.04-6h11.21l-.04-9.71,5.62.08.04,8.21,52.75-.08v-46.17l-13.17-.17.17-5.67h13.5l-.33-44.58-15.84.04.04-7.25,27.29-.04-.04,7.33h-4.46l.17,50.67c-.31,6.73-.05,20.79,7.5,36.17,6.83,13.91,16.38,22.3,21.67,26.33-4.61,5.33-9.22,10.67-13.83,16,5.44,4.62,12.45,9.65,21.17,14,21.53,10.76,41.88,11.64,53.5,11.17l-.17,15,12.11.32.45,150.52h-4.89l.22-46.89-36.89.67-.22,72.89h37.33l-.22-13.11,4.67-.22v13.33h53.11v-185.11h5.33v4.44l30.44-.22v-26.44l-30.67-.44v12.67h-5.11s-.23-13.32-.23-13.32l-28.66.2.22,30.89,3.11,3.11.22,104h-2.67l.22-104.44h-5.94s.22-8.83.22-8.83l-.33-28.33,6.17-.17-.17-27.5-22.67-1.67-47.67-25.5-12.17,12.78-6-5.56c-4.37-5.57-9.78-15.2-11.11-20.44-2.22-10.9-1.56-22.67-1.67-29.56.04-4.41.07-8.81.11-13.22l4.67-.11.11,11.22,47.89.22v-120.67l-4.23.17.23-5.67,20.5.17,26.33-.17c20.5-.17,28.24,4.63,39.5,15.17,10.33,11,15.33,23.67,15.72,32.83.11,13,.17,19.5.28,32.5l.5,61.5,27.67.33v-8l14.67-.17v-20.67l19.17.17-.17-15.67,21.33.5.17,6.83h44v-175.67l-45.17.17ZM427.3,311.45h17.31v-35.92l5.5.08.08,14.42,3.5-.08.08,21.5,46.92.43-.08-52.26h3.75s-.17,19.08-.17,19.08l17,.08.08,3.33h-16.92l-.02,29.58,31.6-.08v7l-31.61.08v7.33s-4.39,0-4.39,0l-.17-7.66-49.75-.26.08,8.08h-5.67v-7.84s-17.14.26-17.14.26v-7.16ZM505.08,440.45h-5.78l-.22-46.56h-13.78v-6.67h13.56v-43h5.56l.67,96.22ZM427.3,387.22h16.67l.11-42.89,5.78-.11.11,43h16.11v6.67h-38.78v-6.67ZM371.08,387.22l38.56.11v6.55h-38.67l.11-6.67ZM413.75,452.23l13.56,12.3-7.65,7-11.13-11.08-52.5-.67-.17-7.55h57.89ZM314.8,387.45l15.84-.06.05-45.89h5.73l.02,45.53,16.59.08v6.67l-38.23.11v-6.44ZM337.18,558.82l-6.24.13-.2-26.84-13.11.11v-79.66l19.89-.45.16,7.84-13.83-.34.17,68.67h14.83l.17,8.5h-2.5l.66,22.04ZM298.44,481.61l-17.14.06v11.22l17.03-.11-.03,8.1-31.66-.21.22,27.33,33.72.22.03,5.81h-45.5l-.08,8.33h-5.42v-29.75l.25-47h5.61s-.05,10.28-.05,10.28l43-.44.02,6.16ZM200.69,393.22l.06-5.88h47.5l-12.33-48.45,1.51-13.94h5.35s-1.17,7.9-1.17,7.9l34.58,8.86.08-6.39h3.37s.05,52.34.05,52.34l16.17-.06-.06,6.45h-40.5l.12,50.89-6.67.05-.11-51.61-47.95-.17ZM221.03,583.61l-.09-6.5h28.56l.04-13.33h5.32l.08,13.33,9.57-.06.1,6.31-43.58.25ZM361.52,615.7l-.08-6h46l-.08,6.25-29.75-.17-.08,41.67h-5.67l-.08-41.83-10.25.08ZM407.41,593.07l-6.77.04v-8h-56.44c-6.56-.03-18.73.78-32.22,7.11-15.94,7.39-25.79,19.91-25.79,19.91l-14.57-9.78,18.12-15.75.03-3h-3.12l-.03-5.83,44.47-.33-.07-9.34,6.18.17v9s37.35.01,37.35.01l-.35-40.18h-18.33l.17-8.88,41.84-.12,58.07-.43.02-20.57-13.54-13.82,5.67-5.82,15.67,14.82.1,25.9,24.16-.17.25,6.92-5.02-.33c.01,1.59-2.07,11-2.62,12.49l-3.5,9.47c-6.93,13-12.38,17.78-22.43,22.77-.41.2-.84.38-1.27.53l-10.28,3.62c-2.18.77-4.47,1.17-6.78,1.18l-29.06.19.11,8.18ZM491.19,616.36l.17,41.08h-5.83v-41l-50.58-.42-.07,6.25h-6.76s.08-12.59.08-12.59l106.5.17.08,6.58-43.58-.08ZM590.08,561.78h-17.67v17.33l-5.33.09-.11-43.2-59.11-.11v-8.11l59.11-.33v-23.33h22.33v6.89l-16.88.11.22,44.89,17.44.22v5.56ZM600.52,440.45h-30.33l.33,41.83-25.33-41.83h-13.67v-6.5h34.44v-21h6.39l.17,20.83h28v6.67ZM573.65,380.45l.1,14.67h-7.78v-34.45h7.55s.07,10.89.07,10.89l44.15.22.22-53.56-44.89-.22.22,31.22h-7.33v-37.44l69.11.22v6l-10.44.22v62.44l-50.98-.22ZM665.86,456.11l-2,5-.17,61h-4.92l-.24-11.67-4.83-.17v-5.83h5l.83-41.5-38-20.5,2.67-4.5,36,19.67,3-7.16,4.5,1.8-1.83,3.86ZM689.52,426.11h-15.17l-.17,7.33h-6.5s.17-41.1.17-41.1h7.17l-.17,28.11,14.67.17v5.5Z"/>
  <g id="Hazards">
    <polygon class="st4" points="226.86 771.95 144.02 771.78 143.86 732.11 226.52 732.45 226.86 771.95"/>
    <polygon class="st4" points="734.92 777.3 734.77 707.53 760.36 707.28 760.21 777.53 734.92 777.3"/>
    <polygon class="st4" points="572.64 556 572.42 511.11 588.3 511.01 588.21 556.2 572.64 556"/>
    <polygon class="st4" points="561.84 481.85 545.77 454.95 536.61 440.45 545.19 440.45 567.86 477.7 561.84 481.85"/>
    <rect class="st4" x="356.86" y="584.67" width="42.22" height="8"/>
    <polygon class="st4" points="302.19 182.95 282.28 181.95 282.3 172.11 282.9 169.2 302.69 171.02 302.19 176.78 302.19 182.95"/>
    <rect class="st4" x="572.42" y="379.56" width="50.44" height="13.11"/>
    <rect class="st4" x="429.86" y="345.03" width="14.17" height="42.19"/>
    <rect class="st4" x="571.52" y="300.45" width="56.67" height="11.33"/>
    <rect class="st4" x="507.86" y="345.56" width="12.89" height="47.11"/>
    <rect class="st4" x="359.52" y="440.45" width="51.11" height="11.78"/>
    <rect class="st4" x="237.3" y="490.45" width="11.11" height="48"/>
    <rect class="st4" x="417.3" y="642.28" width="9.78" height="35.56"/>
    <rect class="st4" x="893.3" y="444" width="12" height="48.44"/>
    <polygon class="st4" points="131.95 384.97 108.61 384.97 108.43 339.78 131.7 339.78 131.95 384.97"/>
  </g>
</svg>