<svg xmlns="http://www.w3.org/2000/svg" id="svg89" viewBox="0 0 1062.483 535.174"><defs><style>.st0{fill:#37414c}.st1{fill:#70777f}.st2{fill:gold}</style></defs><g id="Second_Floor"><g id="Ladders-2"><path d="m483.493 150.218-.662.119-.66.122.603 3.33.561 3.095 1.322-.238-.56-3.098zM77.603 167.045l3.397.356-.155 1.451-3.397-.356zM89.095 174.903l3.194.352-.284 2.846-3.195-.352zM131.724 186.357l.614-4.868 2.348.296-.614 4.868zM145.626 188.152l.599-4.75 2.29.29-.599 4.749zM137.515 228.891l-5.747-.766.375-2.716 5.748.765zM129.96 243.311l.366-2.663 5.286.727-.365 2.663zM367.703 244.241l.748-5.037 5.651.864-.747 5.038zM366.972 248.931l.651-4.241 5.65.867-.65 4.242zM494.623 166.854l6.46-1.262-.65-3.584-6.46 1.262zM489.246 200.903l-4.839.982-.665-3.669 4.838-.982zM604.852 140.847l-4.174.884-.625-3.084 4.174-.884zM589.634 214.564l.321 1.531 3.003-.625-.321-1.531zM892.125 192.259l5.942.193.077-3.003-5.941-.193zM457.244 443.514l.363-2.418 4.263.64-.363 2.419zM521.604 459.923l-.353 2.544 4.189.566.353-2.544zM516.343 445.834l.266-1.92 8.018 1.11-.266 1.921zM510.22 488.585l.263-1.89 7.893 1.094-.262 1.89zM456.581 471.007l.235-1.732 7.229.98-.235 1.733zM461.098 282.061l5.127-.927.903 4.949-5.125.936zM617.855 296.697l.314-4.744 3.508.232-.314 4.744zM114.355 250.392l.708-4.65 2.607.383-.7 4.651zM346.814 269.394l.501-3.278 1.483.227-.502 3.278zM613.099 160.004l-4.737.96.287 1.425 4.737-.96zM426.817 248.812l10.679 2.303 2.7-12.8-4.8-1.1-1.9 9-5.805-1.284zM415.104 293.599l4.201.916-.263 1.236-4.214-.892zM420.294 294.698l4.206.893-.245 1.239-4.21-.867zM425.36 268.727l-1.424-.321.297-1.286 1.404.306zM422.693 245.987l-1.232-.293-.094.404 1.687.397-.293 1.386-2.702-.593.753-3.167 2.196.479zM430.26 278.973l.405-1.931-3.762-.785.274-1.169 5.229 1.137-.96 4.497-6.103-1.375.295-1.353zM432.34 296.385l.279-1.27 3.126.685-.279 1.27zM431.9 298.408l.28-1.27 3.125.686-.279 1.27zM640.836 250.152l-1.47.302-.905-4.389 1.469-.278zM643.024 249.703l-1.441.294-.923-4.353 1.461-.293zM645.547 257.222l-1.521.304-.886-4.489 1.513-.311zM660.567 241.177l-4.096.907-.312-1.44 2.65-.555-.668-3.031 1.385-.289zM630.883 234.583l-5.268 1.118-.377-1.579 5.309-1.084zM638.341 233.02l-5.168 1.103-.346-1.561 5.19-1.041zM589.9 244.924l1.596-.34.79 3.698-1.597.34zM574.468 248.186l1.565-.334.796 3.73-1.565.334zM576.972 244.36l2.07-.438.252 1.187-2.07.438zM577.703 247.765l-.251-1.18 1.742-.372.268 1.176zM278.387 212.917l-1.36-.205.386-2.568 1.369.203zM280.187 212.917l-1.362-.218.353-2.286 1.353.198z" class="st2"/></g><g id="Buildings-2"><path d="m614.94 135.502-2.387.498-3.2.642.06.308.147.702-.076.015-.077.018-.147-.704-.061-.308-2.473.507-2.99.607.17.843.17.843-.374.077-.374.079-.667.133-.669.132.158.784.16.782 1.963-.398 2.605-.521.183.943.182.947-.067.023-.067.023-.177-.876-.177-.876-3.341.67-2.7.547 1.955 9.644 1.953 9.646 2.698-.547 3.341-.67-.146-.72-.146-.722.077-.013.077-.016.146.719.146.722.613-.122.081.374 1.42-.305-.074-.364.94-.2-.447-2.21-.544-2.652.077-.017.077-.016.186.89 2.905-.596 2.684-.541-.417-2.025-.615-3.036-2.684.544-2.905.597.275 1.348.272 1.349-.076.015-.077.017-1.588-7.868-1.058-5.248.071-.006.07-.004.775 3.813 1.305 6.43 2.905-.597 2.684-.544-1.587-7.865zm-7.013 10.222 1.043 5.153 1.044 5.15-.077.018-.077.015-1.043-5.152-1.043-5.153.076-.015zM497.483 144.427l-.75.137 1.56 8.543-10.33 1.888.389 2.123-.618.114-.216-1.172-10.55 1.951-1.751-9.475-.637.118 3.148 17.033 2.147-.403.977 5.157-2.17.406 5.06 27.37 3.78-.766.72 3.658-3.835.778 1.042 5.579 11.106-2.053-2.444-13.222.65-.12 2.413 13.233 11.059-2.02-6.876-37.74-4.212.826-.633-3.416 4.213-.779zm-8.891 14.014 4.475 24.484 1.728-.314.844 4.617-1.705.312.25 1.371-.602.112-3.746-20.276-6.924 1.28-.933-5.057 6.906-1.277-.95-5.131zm14.836 22.638.783 4.465-6.365 1.115-.781-4.464zM122.592 211.192l-.92 6.486-.798 5.776 2.935.405 2.853.396.199-1.428.298-2.017.066.01.066.01-.298 2.017-.196 1.425 6.583.938-.125.892-.105.761.51.056.76.103.104-.752.124-.9 3.781.509.544-3.946.728-5.187-.591-.089-.594-.088v-.123l.602.083.603.083.242-1.76.183-1.233-5.775-.799-5.857-.808-.244 1.76-.181 1.233 4.482.62 4.402.607-.01.068-.009.067-4.402-.609-4.482-.619-.193 1.399-.276 2.052 2.681.369 1.283.177.091-.667.093-.666.066.008.068.01-.102.734-.102.734-1.347-.187-2.75-.38-.03.229-.033.229-.058-.018-.059-.016.56-4.165.418-2.988-2.855-.393zM131.371 241.975l-.12.866-.119.863-.309-.058-.283 2.049-.3 2.221-4.185-.577-3.095-.428.01-.073.008-.059 3.022.417 4.126.568.29-2.154.273-1.982-5.275-.721-4.169-.569-.273 1.97-.288 2.14.51.079.512.077-.01.066-.01.065-.571-.079-.584-.081.134-1.023.111-.797-.326-.044-.349-.049.012-.073.008-.06.333.044.34.048.156-1.13.162-1.171-1.349-.195-1.348-.192-.165 1.186-.154 1.129.332.046.332.046-.01.066-.01.068-.424-.059-.426-.058.008-.055-1.582-.218-.923-.146-.168 1.222-.169 1.223 1.247.17 1.246.181.04-.287.038-.286.198.028-.061.443-.062.443-.098.715-.098.712 3.713.514 3.764.519-.017.061-.016.057-3.753-.512-3.71-.506-.501 3.623-.24 1.643 8.75 1.21 8.75 1.208.331-2.407.41-2.858-3.194-.435-4.199-.586.01-.069.009-.065 2.39.338 1.888.259.269-1.942.267-1.94.068.009.066.01-.268 1.941-.269 1.942 1.742.24 1.239.165.45-3.257.458-3.312-1.239-.166-1.743-.241-.101.733-.094.679-.066-.01-.065-.01.093-.679.101-.731-.453-.064.121-.864.118-.863-.757-.105zM617.365 281.95l-.353 4.688-.356 4.688-1.068-.08-2.172-.167-.297 3.926-.297 3.926-.035.475-.037.474 2.488.19 1.348.101.021-.287.022-.287.89.066.893.069-.024.287-.021.287 3.164.24 3.752.278.023-.317.024-.316.289.021.287.024.098-1.285.097-1.286.19-2.511.19-2.512-.327-.025-.248-.018.067-.893.068-.89.244.02.33.023.225-2.977.226-2.977.063-.818.062-.82-.38-.03-.196-.013.022-.29.021-.287-3.752-.277-3.162-.24-.023.287-.022.287-.89-.066-.893-.069.023-.287.02-.287-.295-.023zm.803 10.004 3.51.233-.315 4.744-3.51-.232zM519.42 271.44l-43.402 7.926.42 2.297-2.55.465-.421-2.312-7.242 1.322.904 4.947-5.92 1.08 1.152 6.31 13.198-2.41-1.075-5.88 2.582-.47 1.077 5.907 43.207-7.89-.141-.79-28.297 5.169-1.787-9.791 28.42-5.192zm-30.666 6.313 1.787 9.791-2.642.483-1.79-9.791zM521.354 283.28l-58.76 10.713.11.598 8.064-1.47 1.81 9.923-8.127 1.483.094.52 58.96-10.75-.113-.624-35.816 6.53-1.783-9.78 35.676-6.504zm-40.633 8.026 1.81 9.924-2.416.44-1.808-9.925z" class="st1"/><path d="m896.154 204.502.033-1.16-.049-.001-.047-.002.007-.258.008-.259.013-.106.012-.108.038.002.038.001.059-2.099.059-2.099-.048-.001-.048-.001.01-.365.01-.365.044-.004.044-.003.061-2.023.061-2.023.66.018.66.019-.17 6.017-.168 6.018-.66-.018-.66-.019z" class="st0"/><path d="m891.851 199.439-.01-.011.083-2.963.083-2.962 2.138.06 2.139.059-.053 2.024-.052 2.023.035.006.035.006-.009.365-.011.365-.03-.001-.029-.001-.013.107-.013.107-.013.473-.014.473-2.127-.06-2.128-.06zM891.757 202.569l.087-2.968 2.135.055 2.134.056-.04 1.434-.04 1.435.009.037.008.036h-.014l-.015-.001-.044-.093-.043-.092-.028.154-.028.155-.013-.001h-.013l-.134-.059-.134-.058.033.059.034.06.043.067.043.068v.015l-.001.014-.145.038-.143.039-.001.006v.006l.142.049.142.05v.012l-.001.012-.072.105-.071.106-.013.02-.012.019.078-.028.077-.028.069-.025.069-.026.005.006.005.006.018.152.019.151.045-.082.046-.082h.017l.017.001-.01.025-.01.025-.03 1.08-.03 1.079-2.139-.059-2.139-.061z" class="st1"/><path d="m896.415 189.388-.076 2.868-4.651-.1-.028 1.164 4.796.125-.006.178 1.329.038.005-.178.154.004-.347 12.359-6.213-.167h-.002l-.196 5.844 10.846.34.107-2.849-2.843-.124.539-19.384z" class="st1"/><path d="m521.145 451.746.206-1.487 3.024.42 3.022.418-.206 1.488-.206 1.487-3.023-.419-3.023-.419zM511.932 450.469l.207-1.487 3.012.418 3.014.418-.207 1.487-.206 1.487-3.013-.417-3.013-.419zM502.574 472.678l.417-3.013 1.488.207 1.487.205-.417 3.013-.419 3.014-1.487-.206-1.487-.206zM499.503 472.253l.417-3.014 1.478.205 1.478.205-.418 3.013-.418 3.013-1.477-.204-1.478-.206zM516.458 485.568l.206-1.488 3.022.42 3.024.419-.207 1.487-.206 1.487-3.023-.419-3.023-.419z" class="st0"/><path d="m513.835 486.722-.119-.018-.565-.079.431-3.07.43-3.07-.598-.084-.6-.083-.005.049-.007.048.55.076.55.076-.422 3.018-.425 3.027-1.483-.205-1.482-.206.418-3.023.42-3.022.53.073.533.074-.002.009-.001.007-.166.06-.166.059-.001.014-.002.013.19.053.189.051-.001.007-.001.007-.095.166-.094.164.007.01.006.008.163-.075.163-.075.018.003.017.002.02.087.019.086.018.12.018.122.083-.183.082-.182.025-.006.023-.006.139.118.138.118.009-.007.009-.007-.047-.185-.045-.184v-.007l.002-.007.196.002.198.002.002-.014.002-.015-.16-.112-.16-.113-.386-.053-.385-.054.015-.046.016-.046-.595-.088-.595-.089-.566-.073-.566-.072-.006.048-.007.047.55.076.551.076-.42 3.024-.419 3.022-1.477-.204-1.477-.205.418-3.023.42-3.023.54.075.541.075.007-.048.006-.046-.568-.085-.57-.085-.57-.074-.57-.073-.007.047-.007.048.54.075.541.075-.418 3.022-.42 3.024-1.477-.206-1.478-.204.42-3.023.419-3.023.55.076.55.077.007-.047.007-.049-.564-.084-.565-.083-.585-.075-.585-.075-.006.047-.007.047.55.076.551.076-.419 3.024-.418 3.022-1.489-.206-1.487-.206.42-3.023.418-3.022.55.076.551.076.007-.048.006-.046-.583-.088-.583-.087-.566-.072-.566-.073-.007.048-.006.047.55.077.552.076-.424 3.018-.425 3.026-1.482-.205-1.482-.205.418-3.023.42-3.023.55.077.55.076.007-.048.007-.047-.584-.087-.584-.087-.565-.073-.566-.072-.007.048-.006.047.54.075.542.075-.42 3.022-.419 3.024-1.477-.205-1.477-.205.418-3.023.42-3.023.55.076.55.077.007-.048.007-.048-.55-.077-.552-.076.207-1.488.206-1.487.547.071.545.07.013-.042.012-.042-.552-.077-.551-.076.418-3.024.42-3.022 1.477.205 1.478.204-.42 3.023-.419 3.023-.54-.075-.541-.075-.006.049-.007.048 4.22.585 4.22.584.007-.047.007-.048-.545-.081-.545-.081.414-3.019.413-3.018 1.487.206 1.487.206-.419 3.023-.418 3.023-.55-.077-.551-.076-.007.048-.006.049.598.083.599.083.43-3.075.432-3.076 3.077.421 3.077.422.083-.598.082-.6-.058-.007-.057-.008-.077.55-.076.55-3.024-.418-3.022-.42.21-1.482.21-1.481 3.02.414 3.018.413-.077.55-.076.551.059.008.058.008.584-4.22.585-4.221-.058-.008-.057-.008-.075.541-.075.54-3.024-.419-3.022-.418.205-1.478.204-1.477 3.023.418 3.022.42-.07.546-.07.546.047.007.049.007.16-1.15.159-1.149-.049-.006-.048-.007-.081.544-.08.545-3.023-.418-3.023-.42.205-1.477.206-1.477 3.022.418 3.023.42-.071.545-.07.547.048.007.048.007.159-1.15.159-1.15-.048-.006-.048-.006-.08.545-.082.544-3.022-.418-3.023-.42.205-1.477.205-1.478 3.023.42 3.023.418-.075.542-.075.54.057.008.059.008.367-2.68.366-2.681-.049-.007-.048-.007-.08.545-.08.546-3.018-.424-3.017-.423.204-1.477.206-1.478 3.018.413 3.018.414-.07.546-.07.547.047.006.048.007.076-.546.076-.546.555.077.376.048.05-.343 1.259.182-.05.343.244.031.55.076-.077.553-.076.551h.09l.08-.544.08-.546 3.023.42 3.022.419-.205 1.487-.206 1.487-3.023-.42-3.022-.418.07-.547.07-.546-.043-.012-.042-.012-.076.557-.076.556-.304 2.129-.305 2.128.047.006.047.007.075-.541.075-.54 2.992.414 2.992.414.032-.007.033-.008-.207 1.49-.207 1.49-3.022-.42-3.023-.418.076-.55.076-.551-.047-.007-.046-.006-.087.583-.088.583-.072.567-.073.565.047.007.048.006.075-.541.075-.54 3.023.419 3.023.418-.205 1.478-.205 1.477-1.252-.173-1.252-.174-1.773-.232-1.772-.233.073-.56.072-.558-.042-.013-.044-.011-.084.61-.084.61 1.236.17 1.236.172-.106.762-.106.763.613.09.613.09-.1.715-.098.715-1.84-.25-1.841-.25-.432 3.084-.433 3.085-.075.585-.076.585.047.007.048.007.076-.55.076-.551.358.049.358.05.006-.05.007-.047-.358-.05-.357-.05.42-3.022.418-3.023 3.023.42 3.023.418-.206 1.488-.206 1.487-2.28-.316-2.278-.316-.007.049-.007.047 2.28.317 2.279.316-.207 1.487-.206 1.487-2.28-.316-2.279-.316-.007.049-.006.048 2.279.316 2.28.316-.207 1.487-.206 1.487-3.022-.418-3.023-.42.076-.55.076-.55-.047-.007-.048-.007-.084.565-.084.564-.155 1.164-.156 1.165.047.007.048.006.155-1.12.155-1.12 3.024.418 3.022.42-.417 3.012-.418 3.014-3.023-.42-3.023-.418.155-1.12.156-1.121-.048-.007-.049-.006-.155 1.12-.156 1.12-.221 1.594-.221 1.593-.075.55-.076.551.048.006.048.007.076-.55.076-.55 3.024.418 3.022.42-.21 1.48-.21 1.483-3.019-.413-3.02-.414.078-.55.076-.551-.049-.007-.048-.006-.077.555-.078.555-.211 1.53-.21 1.532-.552-.077-.136-.021-.054.37-1.635-.223zm.54-9.278.037-.27-.28-.039-.28-.04-.037.271-.038.27.28.04.28.038z" class="st1"/><path d="m457.406 439.253.201-1.491 3.032.411 3.031.412-.202 1.491-.203 1.491-3.03-.411-3.032-.411z" class="st0"/><path d="m460.274 469.745.042-.313-.169-.02-.552-.074.075-.552.075-.552-.048-.007-.049-.007-.073.543-.077.562-3.031-.412-3.031-.412.203-1.501.201-1.481 3.032.411 3.031.411-.075.552-.074.553.048.006.048.007.157-1.163.159-1.162-.048-.006-.05-.006-.074.552-.075.551-3.032-.411-3.031-.412.202-1.481.2-1.482 3.032.411 3.031.412-.073.543-.074.542.048.006.049.006.157-1.151.156-1.153-.048-.007-.05-.006-.074.552-.075.552-3.032-.412-3.031-.412.203-1.491.202-1.491 3.026.415 3.025.416-.068.548-.069.548.048.007.048.006.157-1.152.156-1.153-.049-.007-.049-.006-.074.552-.075.552-3.032-.411-3.031-.412.203-1.492.202-1.491 3.032.411 3.031.412-.075.552-.075.552.048.007.049.006.157-1.152.156-1.153-.049-.007-.048-.007-.075.553-.075.552-3.032-.411-3.031-.412.203-1.491.202-1.492 3.032.412 3.03.411-.074.553-.075.551.048.006.049.007.157-1.152.156-1.152-.048-.007-.048-.006-.08.546-.08.547-3.026-.407-3.028-.406.203-1.491.202-1.491 3.032.411 3.03.411-.074.553-.075.552.048.006.049.006.501-3.689.501-3.691-1.851-.251-1.849-.25.098-.717.096-.717.616.079.616.079.11-.77.109-.769 1.229.167 1.231.167.29-2.141.29-2.14-.048-.007-.048-.006-.075.552-.076.552-3.03-.411-3.032-.412.203-1.492.201-1.491 3.032.411 3.032.411-.075.553-.075.552.048.007.049.006.156-1.152.156-1.153-.048-.007-.048-.006-.079.546-.079.547-3.028-.406-3.027-.405.203-1.492.201-1.492 3.032.412 3.032.411-.075.553-.075.551.048.007.049.006.156-1.152.156-1.152-.048-.007-.048-.006-.074.542-.074.542-3.031-.411-3.032-.412.202-1.482.201-1.481 3.031.411 3.032.411-.075.553-.075.552.048.006.049.006.074-.551.075-.552 1.492.202 1.492.202-.075.553-.075.552.048.007.048.005.075-.551.075-.552 3.031.411 3.032.411-.201 1.482-.201 1.482-3.032-.411-3.031-.412.073-.542.074-.542-.048-.007-.048-.006-.157 1.152-.156 1.152.048.007.048.006.075-.552.075-.551 3.031.411 3.032.411-.203 1.492-.202 1.491-3.026-.416-3.025-.415.068-.548.07-.548-.048-.007-.048-.006-.157 1.152-.156 1.153.048.007.048.006.075-.552.075-.552 3.031.411 3.032.412-.203 1.492-.202 1.491-3.031-.411-3.031-.412.074-.552.075-.552-.048-.007-.048-.006-.157 1.152-.156 1.153.048.007.048.006.075-.552.076-.552 3.03.411 3.032.411-.203 1.492-.201 1.492-3.032-.411-3.031-.413.074-.551.075-.552-.048-.007-.048-.006-.157 1.152-.156 1.153.048.006.048.006.079-.546.08-.546 3.027.406 3.027.405-.203 1.492-.201 1.492-3.032-.412-3.031-.412.074-.552.075-.552-.048-.006-.048-.006-.157 1.151-.156 1.153.048.007.048.006.074-.542.074-.542 3.031.411 3.031.411-.201 1.483-.2 1.481-3.032-.411-3.031-.412.074-.552.075-.552-.048-.007-.048-.006-.159 1.162-.157 1.163.048.006.049.007.075-.552.075-.552 3.031.411 3.032.411-.202 1.483-.2 1.481-3.032-.411-3.032-.411.074-.543.074-.542-.049-.007-.048-.007-.157 1.153-.156 1.153.048.005.049.007.075-.551.075-.552 3.031.411 3.032.411-.203 1.492-.202 1.491-3.026-.416-3.026-.415.069-.548.069-.547-.048-.007-.048-.007-.236 1.734-.235 1.733.049.007.048.007.154-1.133.154-1.134 3.031.412 3.032.411-.412 3.031-.412 3.032-3.031-.411-3.032-.412.155-1.134.153-1.133-.048-.006-.048-.007-.236 1.734-.235 1.734.048.006.048.007.08-.546.079-.547 3.027.406 3.028.405-.203 1.492-.203 1.492-3.031-.412-3.032-.412.076-.552.075-.551-.049-.007-.049-.006-.156 1.152-.157 1.153.05.006.048.006.074-.542.073-.543 3.031.413 3.032.411-.201 1.482-.202 1.481-3.031-.411-3.032-.412.076-.552.075-.552-.049-.006-.049-.006-.157 1.161-.157 1.163.048.006.048.007.075-.552.074-.552 3.032.411 3.032.412-.201 1.482-.205 1.501-3.03-.412-3.032-.412.076-.561.074-.542-.048-.007-.049-.007-.074.553-.076.552-.552-.075-.197-.026-.042.314zM577.74 216.628l11.488-2.388.46 2.212-11.487 2.388zM369.445 239.375l-.804 5.019-6.446-.966 1.231-7.802 4.174.637.069-.454-4.627-.707-1.317 8.575-1.368-.214 1.529-10.172 3.308.479 3.906-25.485 9.61 1.478-4.121 27.091-4.278-.665-.072.473 4.283.667-.424 2.755zM367.901 249.102l.66-4.299-3.674-.586-.158 1.031-.486-.074.161-1.054-2.439-.373-.945 6.032 6.673 1.023.229-1.388-4.255-.654.286-1.811.502.077-.232 1.488zM340.269 270.381l.674-4.58 3.951.634-.314 2.105.304.049.6-3.921-.314-.05-.239 1.499-3.949-.634.558-3.581 3.919.628-.077.529.328.053.13-.891-4.24-.68.169-1.155 6.115.951-1.217 8.006 1.642.26-.173 1.342-1.621-.256-.109.647-1.884-.273.155-1.066-.289-.046-.155 1.065zM75.25 165.003l-1.637 15.388 11.738 1.25.014-.211.297.03-.014.213 11.04 1.173.415-3.879-2.279-.242.035-.318 2.274.24.205-1.875-3.513-.381.8-7.566 3.518.383.181-1.75zm2.373 2.023 15.436 1.633-.8 7.565-2.15-.221-.209 1.898 3.24.346-.033.31-7.045-.75-.238 2.125-.322-.034.025-.24-8.252-.877.809-7.433-.906-.098zM132.238 182.73l-.454 3.598-7.475-.944 1.276-10.11 7.47.942-.189 1.494-6.057-.765-.924 7.325 4.701.594.872-6.908 1.36.172zM109.95 307.368l4.732-5.578 5.544 4.704-4.733 5.578zM146.038 184.614l-.454 3.597-7.474-.943 1.276-10.11 7.469.942-.188 1.493-6.057-.764-.924 7.325 4.7.594.872-6.908 1.361.172zM426.011 248.646l.807.168.983-4.381 5.307 1.157 1.43-6.686 5.288 1.165 2.692-12.555-17.3-3.6-4.153 19.083 3.085.691-.253 1.123-.889-.209-.315 1.387.893.204-2.948 13.082-3.12-.661-2.414 11.12 8.109 1.801 1.019-4.415-5.317-1.16.094-.415 14.925 3.397 1.384-6.528-11.7-2.513zM427.812 297.572l-3.219-.661.295-1.493-4.545-.967-.298 1.514-1.002-.212.303-1.499-4.384-.974-.339 1.536-4.588-1.012.75-3.573 17.79 3.805zM435.022 299.098l.874.184 5.626 1.185 7.814-35.088-13.698-2.85-6.703 31.652-.03.137 3.714.8 3.126.685-.278 1.27zm4.216-9.6c-1.467 0-3.2-1.136-3.2-3.2 0-1.583 1.187-3.2 3.246-3.2 1.947 0 3.154 1.632 3.154 3.2 0 1.446-1.09 3.2-3.2 3.2m1.7-8.5c-2.12 0-3.2-1.723-3.2-3.2 0-1.84 1.458-3.2 3.2-3.2 2.045 0 3.2 1.747 3.2 3.2 0 1.44-1.081 3.2-3.2 3.2m1.9-8.6c-2.186 0-3.2-1.858-3.2-3.2 0-1.975 1.622-3.2 3.2-3.2 1.721 0 3.2 1.39 3.2 3.2 0 1.923-1.627 3.2-3.2 3.2M646.35 261.22l-4.996 1.019-2.503-11.671 5.155-1.058.094.463.503-.103-.097-.449 10.865-2.317.069.351.311-.054-.066-.358.331-.075-.074-.329-6.243 1.321-.215-.884-.314.072.191.863-4.939 1.009-1.164-5.26 4.814-1.067.79 3.318.352-.086-.13-.55 2.723-.639-.084-.329-2.721.622-.58-2.404 5.311-1.139.553 2.355-1.336.3.088.356 1.685-.384-.703-3.013 2.148-.449.312 1.44 4.096-.907.248 1.194-2.149.486.07.333 2.141-.483.299 1.338.303-.066-.303-1.341 8.111-1.728.554 2.713-8.038 1.684-.083-.373-.33.074.088.388-3.603.78.087.346 3.599-.759 1.144 4.818-5.991 1.202-.62-2.835-.32.063.591 2.836-10.905 2.215-.609-2.997-.514.107.316 1.554-1.513.311.886 4.489 1.522-.304zM645.727 236.313l-3.978.891-1.302-5.852 3.961-.8zM636.323 237.928l-4.496.935-.934-4.273-.337-1.545 2.281-.476.345 1.561 2.19-.467zM593.971 256.267l-1.567.367-1.708-8.01 1.597-.341zM578.519 259.519l-1.613.377-1.635-7.98 1.567-.334zM574.157 244.964l2.82-.604.731 3.415-2.82.603zM279.425 217.581l-3.06-.455.662-4.414 3.121.47zM280.531 210.611l-3.118-.467.171-1.146 3.117.464z" class="st1"/></g></g></svg>