<svg xmlns="http://www.w3.org/2000/svg" id="svg89" viewBox="0 0 1062.483 535.174"><defs><style>.st0{fill:#70777f}.st1{fill:gold}</style></defs><g id="Fourth_Floor"><path d="m421.462 245.697-.095.403 1.687.398-.293 1.386-2.702-.593.429-1.801zM431.9 298.412l.28-1.27 3.125.685-.278 1.27zM432.34 296.388l.28-1.27 3.125.686-.278 1.27z" class="st1"/><path d="m431.41 225.204-2.665 12.603-1.95-.38.05-.234 1.705.328 2.61-12.37-5.942-1.236-2.686 12.354 3.378.726-.057.246-.495-.099-1.014 4.647-.293-.078 1.03-4.633-2.608-.538-1.294 5.935 2.6.575.152-.712.285.07-.237 1.054-2.89-.644-.601 2.672 2.652.601-.379 1.793 3.39.796 1.697-8.234.294.063-1.699 8.228 11.054 2.38 5.02-23.602zm4.404 23.34-6.536-1.457 4.077-19.411 6.436 1.4zM435.022 299.098l.874.185 5.626 1.185 7.814-35.088-13.698-2.85-6.703 31.652-.728 3.437 3.242.703.72-3.3 3.576.782-.278 1.27zm4.216-9.6c-1.467 0-3.2-1.135-3.2-3.2 0-1.582 1.187-3.2 3.246-3.2 1.947 0 3.154 1.633 3.154 3.2 0 1.447-1.09 3.2-3.2 3.2m1.7-8.5c-2.12 0-3.2-1.722-3.2-3.2 0-1.84 1.458-3.2 3.2-3.2 2.045 0 3.2 1.748 3.2 3.2 0 1.441-1.081 3.2-3.2 3.2m1.9-8.6c-2.186 0-3.2-1.857-3.2-3.2 0-1.974 1.622-3.2 3.2-3.2 1.72 0 3.2 1.392 3.2 3.2 0 1.923-1.627 3.2-3.2 3.2" class="st0"/></g></svg>