<svg xmlns="http://www.w3.org/2000/svg" id="svg89" viewBox="0 0 1062.483 535.174"><defs><style>.st0{fill:#37414c}.st1{fill:#70777f}.st2{fill:gold}</style></defs><g id="Third_Floor"><g id="Ladders-3"><path d="m521.604 459.925-.353 2.545 4.189.566.353-2.544zM516.343 445.837l.267-1.921 8.018 1.111-.266 1.92zM510.22 488.588l.262-1.89 7.894 1.093-.262 1.891zM422.693 245.989l-1.231-.292-.095.403 1.687.398-.293 1.386-2.702-.593.754-3.168 2.195.479zM430.26 278.976l.405-1.931-3.762-.786.275-1.168 5.228 1.136-.96 4.498-6.103-1.375.296-1.354zM425.36 268.73l-1.424-.322.297-1.286 1.404.307zM420.294 294.701l4.206.892-.245 1.24-4.21-.867zM431.9 298.411l.28-1.27 3.125.686-.278 1.27zM432.34 296.388l.28-1.27 3.125.686-.278 1.27zM638.341 233.023l-4.321.925-.346-1.557 4.345-.868zM642.981 249.498l-1.44.305-.881-4.156 1.461-.293zM576.972 244.363l2.07-.438.252 1.187-2.07.438z" class="st2"/></g><g id="Buildings-3"><path d="m512.063 450.399.207-1.491 3.019.419 3.021.419-.207 1.491-.207 1.49-3.019-.418-3.021-.418zM520.444 457.836l.207-1.49 3.025.424 3.025.423-.202 1.487-.201 1.487-3.029-.42-3.031-.42.207-1.491zM508.646 475.055l.204-1.48 3.021.418 3.021.419-.206 1.48-.205 1.482-3.02-.418-3.021-.42zM517.453 479.413l.206-1.48 3.03.42 3.03.42-.205 1.481-.205 1.481-3.031-.42-3.029-.42zM507.364 484.301l.206-1.491 3.021.418 3.021.419-.207 1.49-.207 1.491-3.02-.418-3.02-.419z" class="st0"/><path d="m495.828 476.416 1.067-7.696 6.137.851 6.138.85-.481 3.466-.481 3.466.049.007.048.006.05-.358.05-.358 3.083.422 3.084.423.303-2.144.302-2.144-.059-.007-.057-.008-.077.552-.077.551-3.03-.42-3.03-.42.211-1.485.211-1.486 3.026.415 3.026.414-.077.552-.076.552.058.008.058.008.16-1.152.159-1.152-.057-.008-.059-.008-.076.552-.077.551-3.03-.419-3.03-.421.211-1.484.211-1.486 3.026.414 3.025.415-.076.552-.077.552.058.008.059.007.159-1.152.16-1.151-.058-.009-.058-.008-.077.552-.076.552-3.024-.424-3.025-.425.201-1.486.201-1.487 3.03.42 3.03.421-.077.552-.076.551.059.009.057.007.083-.6.083-.6-3.088-.429-3.088-.427.421-3.031.419-3.029 3.084.422 3.084.422.083-.6.083-.599-.048-.007-.048-.007-.081.546-.081.547-3.029-.421-3.03-.42.205-1.481.205-1.48 3.03.419 3.031.42-.076.542-.075.542.058.008.058.008.154-1.147.155-1.149-.049-.005-.049-.007-.081.546-.081.546-3.029-.42-3.03-.42.211-1.485.21-1.486 3.027.415 3.026.414-.077.552-.077.552.059.008.057.008.374-2.692.373-2.691-.058-.008-.059-.008-.076.552-.076.552-3.025-.424-3.025-.424.201-1.487.201-1.487 3.031.421 3.029.419-.076.552-.076.552.057.008.059.008.077-.552.076-.551.552.076.552.076.039-.267.775.108-.04.267.551.076.552.077-.076.551-.076.552.048.007.049.007.076-.552.076-.552 3.031.421 3.029.419-.206 1.491-.207 1.491-3.03-.42-3.03-.42.077-.551.076-.552-.047-.007-.048-.007-.087.586-.087.584-.072.567-.074.568.048.006.047.007.077-.552.077-.552 3.029.42 3.03.42-.206 1.491-.206 1.491-3.031-.421-3.03-.419.077-.552.077-.552-.048-.007-.047-.006-.087.585-.087.584-.074.568-.072.567.048.007.047.006.076-.552.077-.552 3.024.424 3.025.425-.201 1.486-.201 1.487-3.03-.42-3.03-.42.076-.552.077-.552-.048-.006-.048-.007-.084.566-.084.565-.213 1.584-.215 1.583 2.304.32 2.303.319-.1.716-.098.716-.455-.062-.455-.063-.112.768-.111.77-1.845-.251-1.844-.251-.435 3.092-.433 3.092-.076.587-.076.586.048.007.048.006.077-.552.076-.551.358.049.358.05.007-.049.007-.048-.358-.049-.359-.05.42-3.031.421-3.029 3.029.42 3.03.42-.207 1.49-.206 1.492-2.284-.318-2.285-.316-.007.048-.007.049 2.285.316 2.285.318-.207 1.491-.207 1.49-2.284-.316-2.284-.317-.007.049-.007.048 2.285.317 2.284.316-.206 1.491-.207 1.49-3.031-.419-3.029-.421.076-.551.077-.552-.048-.006-.048-.007-.084.566-.084.564-.156 1.169-.156 1.167.048.006.047.006.158-1.132.156-1.133 3.025.425 3.024.424-.414 3.026-.414 3.025-3.03-.42-3.031-.419.157-1.124.155-1.123-.049-.007-.048-.006-.156 1.123-.156 1.123-.221 1.597-.222 1.598-.076.552-.076.551.048.006.049.007.076-.552.077-.552 3.03.421 3.03.42-.211 1.485-.211 1.486-3.026-.415-3.026-.414.077-.552.076-.552-.047-.007-.047-.006-.087.585-.087.584-.073.568-.074.567.049.007.047.006.077-.551.076-.552 3.03.419 3.03.421-.207 1.49-.207 1.491-3.029-.419-3.031-.421.077-.552.077-.552-.049-.006-.049-.007-.076.552-.076.552-1.491-.206-1.491-.207.427-3.079.427-3.078-3.083-.433-3.082-.432.043-.354.044-.354-.048-.006-.048-.007-.479 3.456-.474 3.417-6.137-.85-6.138-.851zM426.01 248.647l.627-3.179-3.629-.866-.315 1.387.447.102-.379 1.793zM425.239 279.827l2.598-11.903-2.2-.495-.277 1.3-1.623 7.012-.32-.06-.232-.07c0-2.512-1.997-4.273-4.509-4.273a4.55 4.55 0 0 0 0 9.098c2.012 0 3.837-.956 4.38-3.386l.158.024.204.05-1.103 4.767-9.348-2.058-1.972 9.394 15.91 3.558-.096.432-1.752-.366-.802 3.982 3.557.74 3.521-16.329zm2.03 11.114-6-1.35 1.347-5.7 1.626.322.7-2.705 4.093.992zM442.25 297.2l7.086-31.82-13.698-2.85-6.703 31.652-.735 3.466 3.701.764.718-3.293 3.126.685zm-3.012-7.701c-1.467 0-3.2-1.136-3.2-3.2 0-1.583 1.187-3.2 3.246-3.2 1.947 0 3.154 1.632 3.154 3.2 0 1.446-1.09 3.2-3.2 3.2m1.7-8.5c-2.12 0-3.2-1.723-3.2-3.2 0-1.84 1.458-3.2 3.2-3.2 2.045 0 3.2 1.747 3.2 3.2 0 1.44-1.081 3.2-3.2 3.2m1.9-8.6c-2.186 0-3.2-1.858-3.2-3.2 0-1.975 1.622-3.2 3.2-3.2 1.72 0 3.2 1.39 3.2 3.2 0 1.922-1.627 3.2-3.2 3.2M639.478 245.876l3.555-.698-2.39-10.552-.69-3.487-1.936.385.324 1.5-4.555.974-.343-1.561-12.76 2.615 1.187 5.927.532-.112 1.17 5.806 14.265-3.088-1.202-5.725 1.047-.221zm-15.308-4.086-.267-1.255 11.398-2.403.237 1.222zM596.423 238.141l-29.064 6.167 4.848 23.001 29.263-6.168-3.277-14.883.64-.15 1.378 6.135 4.93-1.064-1.803-8.553-5.028 1.135.103.46-.624.146zm-5.904 3.421 4.064-.849 4.062 18.684-3.911.835zm-7.231 1.51 5.283-1.103 4.16 18.69-5.126 1.094zm-5.555 20.788-3.781.808-3.913-18.829 3.695-.771zm-2.068-19.196 3.376-.74.253 1.185 1.342-.277-.242-1.173.962-.197 4.312 18.705-5.927 1.265z" class="st1"/></g></g></svg>