<svg xmlns="http://www.w3.org/2000/svg" id="svg89" viewBox="0 0 1062.483 535.174"><defs><style>.st0{fill:#70777f}.st1{fill:gold}</style></defs><g id="Underground_Level"><g id="Buildings-Under"><path d="m354.752 215.488-7.914 52.836 16.596 2.487 7.914-52.836-7.504-1.125-.037.205-.135.767-.809-.103-.804-.106.12-.789.034-.219zm6.375 8.219.8.143.802.14-.106.809-.103.804-.78-.119-.777-.119-.037-.049-.037-.05.119-.78zm-1.186 7.748.82.125.821.125-.121.79-.12.786-.82-.125-.82-.127.12-.787zm-1.173 7.674.8.14.801.141-.119.79-.121.786-.807-.103-.806-.106.127-.824zm-1.186 7.748.822.125.82.125-.12.787-.122.787-.82-.125-.818-.127.119-.787zm-1.144 7.715.787.119.787.121-.12.787-.12.787-.81-.103-.808-.106.143-.802zm-1.211 7.701.8.14.801.141-.1.774-.099.773-.822-.125-.823-.125.122-.791zM494.374 147.129l-2.764.502 1.9 10.477.594-.108.039.211-4.986.926-.605.109.158.869-.195.035-2.863-14.13-10.83 1.889 3.554 17.773 10.836-1.894-.393-1.999.188-.035.452 2.071 8.017-1.454.04.217-.477.086.117.654 3.25-.581-.119-.652-.452.082-.039-.219.444-.08-.906-4.58-3.71.646-.039-.211.689-.125zM384.38 126.097l-1.771.414.125.533.298-.07.03.127-.303.072.688 2.915 2.498-.582-.334-1.426-.72.168-.357-1.491-.259.06-.03-.126.26-.061zM64.931 174.436l-2.131-.292-.279 2.037 2.87.394-.058.426 11.594 1.59.448-3.266-11.598-1.59-.11.802zM226.797 189.608l-2.484-.303-.234 1.922 3.042.371-.056.458 10.996 1.341.363-2.978-11.025-1.344-.073.598zM437.926 263.006l-6.164 28.785 1.299.276.226-.99 3.219.715-.875 3.803 3.217.697.836-3.844 3.454.766 6.199-27.835zm1.312 26.493c-1.467 0-3.2-1.136-3.2-3.2 0-1.583 1.187-3.2 3.246-3.2 1.947 0 3.154 1.632 3.154 3.2 0 1.446-1.09 3.2-3.2 3.2m1.7-8.5c-2.12 0-3.2-1.723-3.2-3.2 0-1.84 1.458-3.2 3.2-3.2 2.045 0 3.2 1.747 3.2 3.2 0 1.44-1.081 3.2-3.2 3.2m1.9-8.6c-2.186 0-3.2-1.858-3.2-3.2 0-1.975 1.622-3.2 3.2-3.2 1.72 0 3.2 1.39 3.2 3.2 0 1.922-1.627 3.2-3.2 3.2" class="st0"/></g><g id="Ladders-Under"><path d="m494.623 166.857 6.46-1.262-.65-3.584-6.459 1.262zM63.763 167.057l2.132.292-.964 7.087-2.131-.292zM225.171 182.003l2.484.303-.858 7.302-2.484-.303zM476.495 156.746l10.943-2.089-.315-1.74-10.944 2.088zM350.889 260.08c-.24-2.254 1.798-2.942 1.03-7.361-.25-1.443 3.566-.699 3.413.478-.284 2.191-1.075 4.694-1.03 7.362.02 1.258-3.272.844-3.413-.478M361.54 217.965c.826.24.988 3.227.295 5.153-.698 1.94-2.535 1.349-3.074.176-.963-2.097-1.15-4.584-.294-5.154.662-.44 1.565-.615 3.074-.175M381.108 120.666l1.772-.413 1.333 5.731-1.772.413zM431.243 294.236l.52-2.445 1.298.275-.52 2.446zM437.477 265.142l.444-2.137 1.273.264-.444 2.138z" class="st1"/></g></g></svg>