<?xml version="1.0" encoding="UTF-8"?>
<svg id="svg89" xmlns="http://www.w3.org/2000/svg" version="1.1" xmlns:xlink="http://www.w3.org/1999/xlink" viewBox="0 0 1062.4827 535.174">
  <!-- Generator: Adobe Illustrator 29.3.1, SVG Export Plug-In . SVG Version: 2.1.0 Build 151)  -->
  <defs>
    <style>
      .st0 {
        fill: #37414c;
      }

      .st1 {
        fill: #70777f;
      }

      .st2 {
        fill: gold;
      }
    </style>
  </defs>
  <g id="Third_Floor">
    <g id="Ladders-3">
      <polygon class="st2" points="521.6044 459.9254 521.2513 462.4697 525.4402 463.036 525.7933 460.4917 521.6044 459.9254"/>
      <rect class="st2" x="519.5157" y="441.3849" width="1.939" height="8.0945" transform="translate(7.8132 899.8351) rotate(-82.1089)"/>
      <rect class="st2" x="513.3438" y="484.2054" width="1.9091" height="7.9693" transform="translate(-39.8757 930.5965) rotate(-82.1091)"/>
      <polygon class="st2" points="422.6934 245.9893 421.4615 245.6966 421.367 246.1004 423.0542 246.4975 422.7611 247.8841 420.0591 247.2905 420.8125 244.1234 423.0082 244.6023 422.6934 245.9893"/>
      <polygon class="st2" points="430.2602 278.9759 430.6647 277.045 426.9029 276.2594 427.1775 275.0905 432.4058 276.2274 431.4463 280.7247 425.3429 279.3502 425.6385 277.9963 430.2602 278.9759"/>
      <polygon class="st2" points="425.3598 268.7297 423.9356 268.4084 424.2326 267.1223 425.6372 267.4287 425.3598 268.7297"/>
      <polygon class="st2" points="420.2943 294.7008 424.5003 295.5933 424.2552 296.8325 420.0451 295.9655 420.2943 294.7008"/>
      <rect class="st2" x="432.953" y="296.519" width="1.3" height="3.2" transform="translate(49.5476 657.8244) rotate(-77.6349)"/>
      <rect class="st2" x="433.3929" y="294.496" width="1.3" height="3.2" transform="translate(51.8775 656.6729) rotate(-77.6362)"/>
      <polygon class="st2" points="638.3412 233.0231 634.0201 233.9478 633.6736 232.3905 638.0187 231.5232 638.3412 233.0231"/>
      <polygon class="st2" points="642.9806 249.4979 641.541 249.8025 640.6599 245.6465 642.1213 245.3539 642.9806 249.4979"/>
      <rect class="st2" x="577.0752" y="244.1308" width="2.1157" height="1.2128" transform="translate(-38.14 124.9808) rotate(-11.9472)"/>
    </g>
    <g id="Buildings-3">
      <polygon class="st0" points="512.0628 450.399 512.2695 448.9084 515.2892 449.3268 518.3099 449.7462 518.1032 451.2368 517.8965 452.7274 514.8768 452.309 511.8561 451.8906 512.0628 450.399"/>
      <polygon class="st0" points="520.4445 457.8361 520.6512 456.3455 523.676 456.7698 526.7007 457.1931 526.4989 458.6797 526.2981 460.1673 523.2685 459.7469 520.2379 459.3265 520.4447 457.8359 520.4445 457.8361"/>
      <polygon class="st0" points="508.6455 475.0554 508.8502 473.5747 511.8709 473.9931 514.8916 474.4115 514.6859 475.8922 514.4812 477.3739 511.4605 476.9555 508.4398 476.5361 508.6455 475.0554 508.6455 475.0554"/>
      <polygon class="st0" points="517.4535 479.4134 517.6592 477.9327 520.6888 478.3531 523.7194 478.7725 523.5137 480.2542 523.309 481.7349 520.2784 481.3145 517.2488 480.8951 517.4535 479.4134"/>
      <polygon class="st0" points="507.3636 484.3006 507.5703 482.81 510.591 483.2284 513.6117 483.6468 513.405 485.1374 513.1982 486.628 510.1776 486.2096 507.1578 485.7912 507.3635 484.3006 507.3636 484.3006"/>
      <polygon class="st1" points="495.8277 476.4164 496.895 468.7202 503.0324 469.5708 509.1698 470.4214 508.6891 473.8872 508.2083 477.353 508.2568 477.3599 508.3053 477.3658 508.3547 477.0077 508.4052 476.6496 511.4882 477.0719 514.5721 477.4952 514.8748 475.3508 515.1765 473.2074 515.1181 473.1995 515.0607 473.1916 514.9835 473.7435 514.9073 474.2954 511.8767 473.875 508.8471 473.4546 509.0578 471.9698 509.2685 470.4843 512.2952 470.8987 515.3209 471.313 515.2437 471.865 515.1675 472.4169 515.226 472.4248 515.2844 472.4327 515.4437 471.2814 515.603 470.1291 515.5456 470.1212 515.4872 470.1133 515.411 470.6652 515.3338 471.2161 512.3042 470.7967 509.2736 470.3763 509.4853 468.8915 509.696 467.4059 512.7217 467.8203 515.7474 468.2347 515.6712 468.7867 515.594 469.3386 515.6524 469.3465 515.7108 469.3544 515.8701 468.2021 516.0303 467.0508 515.9719 467.0418 515.9135 467.0339 515.8373 467.5858 515.7612 468.1378 512.7365 467.7135 509.7118 467.2892 509.9126 465.8026 510.1144 464.316 513.144 464.7364 516.1736 465.1568 516.0974 465.7087 516.0212 466.2596 516.0797 466.2685 516.137 466.2764 516.2202 465.676 516.3033 465.0756 513.2153 464.6473 510.1273 464.22 510.5477 461.1894 510.9671 458.1598 514.0511 458.5821 517.1351 459.0044 517.2182 458.404 517.3013 457.8046 517.2528 457.7977 517.2053 457.7908 517.1242 458.3368 517.0431 458.8838 514.0135 458.4634 510.9839 458.043 511.1886 456.5623 511.3943 455.0815 514.4239 455.5009 517.4545 455.9214 517.3793 456.4633 517.3041 457.0053 517.3625 457.0132 517.4199 457.0211 517.5742 455.8737 517.7285 454.7253 517.6799 454.7195 517.6314 454.7126 517.5503 455.2585 517.4692 455.8045 514.4396 455.3851 511.41 454.9647 511.6207 453.48 511.8314 451.9944 514.858 452.4088 517.8837 452.8232 517.8065 453.3751 517.7303 453.927 517.7888 453.9349 517.8461 453.9428 518.22 451.2514 518.593 448.56 518.5345 448.5521 518.4761 448.5442 518.4 449.0961 518.3238 449.648 515.2991 449.2238 512.2744 448.7995 512.4752 447.3129 512.676 445.8263 515.7065 446.2467 518.7361 446.6661 518.66 447.218 518.5838 447.7699 518.6412 447.7778 518.6996 447.7857 518.7768 447.2338 518.853 446.6829 519.4048 446.7591 519.9567 446.8353 519.9962 446.5679 520.7707 446.6757 520.7312 446.9431 521.2821 447.0193 521.834 447.0955 521.7578 447.6474 521.6816 448.1993 521.7302 448.2062 521.7787 448.2131 521.8549 447.6612 521.931 447.1093 524.9616 447.5297 527.9912 447.9491 527.7845 449.4397 527.5778 450.9313 524.5482 450.5109 521.5176 450.0905 521.5948 449.5396 521.671 448.9877 521.6235 448.9808 521.576 448.9739 521.4889 449.5595 521.4018 450.1441 521.3296 450.7109 521.2564 451.2787 521.3039 451.2846 521.3514 451.2915 521.4276 450.7396 521.5048 450.1877 524.5344 450.6081 527.564 451.0275 527.3583 452.5191 527.1516 454.0097 524.121 453.5893 521.0914 453.1699 521.1675 452.618 521.2448 452.066 521.1973 452.0591 521.1498 452.0533 521.0627 452.6378 520.9756 453.2224 520.9024 453.7903 520.8302 454.3571 520.8777 454.364 520.9252 454.3698 521.0013 453.8179 521.0775 453.266 524.1022 453.6903 527.127 454.1146 526.9261 455.6012 526.7253 457.0878 523.6948 456.6684 520.6652 456.248 520.7413 455.6961 520.8175 455.1442 520.77 455.1383 520.7225 455.1314 520.6384 455.6972 520.5543 456.262 520.3407 457.8456 520.1261 459.4291 522.4297 459.7486 524.7333 460.0681 524.6334 460.7842 524.5345 461.5003 524.0795 461.438 523.6245 461.3747 523.5128 462.1432 523.402 462.9127 521.5573 462.6615 519.7125 462.4113 519.2783 465.5032 518.8451 468.5951 518.7689 469.1816 518.6927 469.7681 518.7413 469.775 518.7888 469.7809 518.866 469.2289 518.9421 468.678 519.3002 468.7274 519.6583 468.7769 519.6652 468.7284 519.6721 468.6799 519.314 468.6305 518.955 468.5811 519.3754 465.5504 519.7958 462.5208 522.8254 462.9413 525.855 463.3607 525.6483 464.8513 525.4416 466.3429 523.1577 466.0254 520.8729 465.7089 520.866 465.7574 520.8591 465.8058 523.1439 466.1223 525.4287 466.4398 525.222 467.9305 525.0153 469.4211 522.7305 469.1046 520.4466 468.7881 520.4397 468.8365 520.4328 468.885 522.7176 469.2015 525.0024 469.518 524.7957 471.0086 524.5889 472.4992 521.5583 472.0798 518.5287 471.6594 518.6049 471.1075 518.6821 470.5556 518.6336 470.5497 518.5861 470.5428 518.502 471.1086 518.4179 471.6734 518.2616 472.8415 518.1063 474.0086 518.1538 474.0145 518.2013 474.0214 518.3586 472.8889 518.5149 471.7564 521.5396 472.1807 524.5643 472.6049 524.1499 475.6306 523.7355 478.6563 520.7059 478.2359 517.6753 477.8165 517.8316 476.6929 517.9869 475.5703 517.9384 475.5634 517.8898 475.5565 517.7335 476.6801 517.5782 477.8027 517.3566 479.4001 517.135 480.9976 517.0588 481.5495 516.9827 482.1014 517.0312 482.1073 517.0797 482.1142 517.1559 481.5623 517.2331 481.0103 520.2627 481.4308 523.2933 481.8512 523.0816 483.3359 522.8709 484.8215 519.8452 484.4071 516.8195 483.9927 516.8957 483.4408 516.9719 482.8889 516.9254 482.882 516.8779 482.8761 516.7908 483.4607 516.7037 484.0453 516.6305 484.6131 516.5573 485.1799 516.6058 485.1868 516.6533 485.1927 516.7295 484.6418 516.8057 484.0898 519.8362 484.5092 522.8658 484.9297 522.6591 486.4203 522.4524 487.9109 519.4228 487.4915 516.3922 487.071 516.4694 486.5191 516.5456 485.9672 516.4971 485.9613 516.4485 485.9544 516.3724 486.5063 516.2962 487.0583 514.8046 486.8516 513.314 486.6449 513.7413 483.5658 514.1676 480.4877 511.0846 480.0554 508.0026 479.623 508.0461 479.269 508.0896 478.9149 508.0421 478.909 507.9936 478.9021 507.5149 482.358 507.0411 485.7753 500.9037 484.9247 494.7663 484.0741 495.8275 476.4165 495.8277 476.4165 495.8277 476.4164"/>
      <polygon class="st1" points="426.0104 248.6469 426.6372 245.4677 423.0082 244.6023 422.6934 245.9893 423.14 246.0913 422.7611 247.8841 426.0104 248.6469"/>
      <path class="st1" d="M425.2388,279.8271l2.5986-11.9031-2.2003-.4954-.2773,1.301-1.6223,7.0112-.3205-.0598-.2323-.0692c0-2.5123-1.9962-4.2739-4.5085-4.2739s-4.5491,2.0367-4.5491,4.5491,2.0367,4.5491,4.5491,4.5491c2.0121,0,3.8368-.9556,4.3792-3.3862l.1585.0241.2037.0497-1.103,4.767-9.3475-2.058-1.9716,9.3947,15.9089,3.558-.0958.4318-1.7517-.3662-.8017,3.9816,3.5566.7399,3.5217-16.3282-6.0947-1.4171h0ZM427.269,290.9406l-6.0005-1.3501,1.3475-5.6994,1.6257.3223.7007-2.7049,4.0924.992-1.7659,8.44h0Z"/>
      <path class="st1" d="M442.2497,297.2003l7.0867-31.8207-13.6983-2.849-6.7035,31.6515-.7341,3.4659,3.7006.7635.7183-3.2929,3.1258.6852,6.5045,1.3964h0ZM439.2375,289.4986c-1.4661,0-3.2-1.1356-3.2-3.2,0-1.5829,1.1872-3.2,3.2467-3.2,1.9467,0,3.1533,1.6325,3.1533,3.2,0,1.446-1.0901,3.2-3.2,3.2h0ZM440.9375,280.9986c-2.1192,0-3.2-1.7226-3.2-3.2,0-1.8397,1.4586-3.2,3.2-3.2,2.0457,0,3.2,1.7473,3.2,3.2,0,1.4406-1.0806,3.2-3.2,3.2ZM442.8375,272.3986c-2.1856,0-3.2-1.8578-3.2-3.2,0-1.975,1.6226-3.2,3.2-3.2,1.7214,0,3.2,1.3909,3.2,3.2,0,1.9227-1.6261,3.2-3.2,3.2Z"/>
      <path class="st1" d="M639.4783,245.8759l3.5545-.6978-2.3907-10.552-.6893-3.4868-1.9354.3842.3238,1.4997-4.5552.9748-.3433-1.5613-12.7599,2.6155,1.1868,5.9272.5328-.1125,1.17,5.8058,14.265-3.0874-1.2028-5.7252,1.047-.2212,1.7969,8.2371h-.0002ZM624.1698,241.7897l-.267-1.255,11.3984-2.4028.2365,1.2226-11.3679,2.4353h0Z"/>
      <path class="st1" d="M596.4228,238.1413l-29.0641,6.1664,4.8484,23.0017,29.2625-6.1681-3.2763-14.8834.6394-.1506,1.3784,6.1358,4.9296-1.0639-1.8031-8.5534-5.0279,1.135.1033.4609-.6241.1453-1.3661-6.2256h0ZM590.519,241.5622l4.0639-.8487,4.0618,18.6834-3.9107.8347-4.2149-18.6694h-.0001ZM583.2879,243.0724l5.2832-1.1034,4.1591,18.6903-5.1256,1.0941-4.3166-18.681h-.0001ZM577.7333,263.8604l-3.7816.8072-3.9124-18.8283,3.6947-.7716,3.9992,18.7928h.0001ZM575.6645,244.6645l3.3767-.74.2529,1.185,1.3415-.2778-.2414-1.1728.962-.1969,4.3114,18.7049-5.927,1.2651-4.0762-18.7675h0Z"/>
    </g>
  </g>
</svg>