<?xml version="1.0" encoding="UTF-8"?>
<svg id="svg89" xmlns="http://www.w3.org/2000/svg" version="1.1" xmlns:xlink="http://www.w3.org/1999/xlink" viewBox="0 0 1062.4827 535.174">
  <!-- Generator: Adobe Illustrator 29.3.1, SVG Export Plug-In . SVG Version: 2.1.0 Build 151)  -->
  <defs>
    <style>
      .st0 {
        fill: #70777f;
      }

      .st1 {
        fill: gold;
      }
    </style>
  </defs>
  <g id="Underground_Level">
    <g id="Buildings-Under">
      <path class="st0" d="M354.752,215.4883l-7.9141,52.8359,16.5957,2.4863,7.9141-52.8359-7.5039-1.125-.0371.2051-.1348.7676-.8086-.1035-.8047-.1055.1211-.7891.0332-.2188-7.4609-1.1172h0ZM361.127,223.707l.8008.1426.8008.1406-.1055.8086-.1035.8047-.7793-.1191-.7773-.1191-.0371-.0488-.0371-.0508.1191-.7793.1191-.7793h0ZM359.9414,231.4551l.8203.125.8203.125-.1211.7891-.1191.7871-.8203-.125-.8203-.127.1191-.7871.1211-.7871ZM358.7676,239.1289l.8008.1406.8008.1406-.1191.7891-.1211.7871-.8066-.1035-.8066-.1055.127-.8242.125-.8242h-.0002ZM357.582,246.877l.8223.125.8203.125-.1211.7871-.1211.7871-.8203-.125-.8184-.127.1191-.7871.1191-.7852h0ZM356.4375,254.5918l.7871.1191.7871.1211-.1191.7871-.1211.7871-.8086-.1035-.8086-.1055.1426-.8027.1406-.8027h0ZM355.2266,262.293l.8008.1406.8008.1406-.0996.7734-.0996.7734-.8223-.125-.8223-.125.1211-.791.1211-.7871h0Z"/>
      <polygon class="st0" points="494.3737 147.129 491.61 147.631 493.5104 158.1075 494.1042 158.0001 494.1433 158.2111 489.1571 159.1367 488.5516 159.2461 488.7098 160.1152 488.5145 160.1504 485.6522 146.0196 474.8224 147.9091 478.376 165.6818 489.2116 163.7883 488.8192 161.7891 489.0067 161.754 489.4588 163.8245 497.4764 162.3714 497.5155 162.5882 497.0389 162.6741 497.1561 163.3284 500.4056 162.7473 500.2865 162.0949 499.8353 162.1769 499.7962 161.9582 500.2396 161.8781 499.3344 157.2978 495.6237 157.9435 495.5846 157.7326 496.2741 157.6076 494.3737 147.129"/>
      <polygon class="st0" points="384.38 126.0967 382.6086 126.5108 382.7336 127.044 383.0324 126.9737 383.0617 127.1006 382.7589 127.173 383.4471 130.088 385.9452 129.506 385.6112 128.0802 384.8905 128.2482 384.5344 126.757 384.2746 126.8174 384.2453 126.6905 384.5051 126.63 384.38 126.0967"/>
      <polygon class="st0" points="64.9314 174.4359 62.8002 174.1437 62.5209 176.1813 65.3915 176.5749 65.3331 177.0013 76.9268 178.5908 77.3746 175.3249 65.7769 173.7349 65.667 174.5367 64.9314 174.4359"/>
      <polygon class="st0" points="226.7966 189.608 224.3128 189.3052 224.0785 191.2271 227.1206 191.598 227.0647 192.0563 238.0613 193.3971 238.4243 190.4194 227.3985 189.0751 227.3257 189.6725 226.7966 189.608"/>
      <path class="st0" d="M437.9261,263.0064l-6.1638,28.7842,1.2985.276.2263-.9901,3.2189.7152-.8755,3.8035,3.2178.6973.8361-3.8444,3.4531.7661,6.199-27.8347-11.4102-2.3732h-.0002ZM439.2375,289.4986c-1.4661,0-3.2-1.1356-3.2-3.2,0-1.5829,1.1872-3.2,3.2467-3.2,1.9467,0,3.1533,1.6325,3.1533,3.2,0,1.446-1.0901,3.2-3.2,3.2h0ZM440.9375,280.9986c-2.1192,0-3.2-1.7226-3.2-3.2,0-1.8397,1.4586-3.2,3.2-3.2,2.0457,0,3.2,1.7473,3.2,3.2,0,1.4406-1.0806,3.2-3.2,3.2ZM442.8375,272.3986c-2.1856,0-3.2-1.8578-3.2-3.2,0-1.975,1.6226-3.2,3.2-3.2,1.7214,0,3.2,1.3909,3.2,3.2,0,1.9227-1.6261,3.2-3.2,3.2Z"/>
    </g>
    <g id="Ladders-Under">
      <polygon class="st1" points="494.6234 166.8569 501.0831 165.5949 500.4332 162.011 493.9735 163.273 494.6234 166.8569"/>
      <polygon class="st1" points="63.7633 167.0565 65.8945 167.3487 64.9314 174.4359 62.8002 174.1437 63.7633 167.0565"/>
      <polygon class="st1" points="225.1714 182.0033 227.6553 182.3062 226.7966 189.608 224.3128 189.3052 225.1714 182.0033"/>
      <polygon class="st1" points="476.4949 156.7457 487.4383 154.6573 487.1226 152.917 476.1793 155.0053 476.4949 156.7457"/>
      <path class="st1" d="M350.8889,260.0808c-.2402-2.2546,1.7984-2.9431,1.0307-7.362-.2507-1.4432,3.565-.6984,3.4124.4777-.2843,2.1919-1.0746,4.6949-1.0307,7.362.0207,1.2584-3.2715.8443-3.4124-.4777h0Z"/>
      <path class="st1" d="M361.5405,217.9648c.8253.2404.9875,3.2268.2945,5.1534-.6978,1.9401-2.5346,1.3484-3.0736.1756-.9636-2.0964-1.1496-4.5839-.2945-5.1534.6623-.4411,1.5652-.6151,3.0736-.1756Z"/>
      <rect class="st1" x="381.7506" y="120.3828" width="1.819" height="5.8841" transform="translate(-17.9911 89.9126) rotate(-13.0961)"/>
      <rect class="st1" x="430.9017" y="292.4877" width="2.5" height="1.3275" transform="translate(55.5557 654.9087) rotate(-77.9998)"/>
      <rect class="st1" x="437.2445" y="263.5564" width="2.1825" height="1.3" transform="translate(90.4009 639.5523) rotate(-78.2498)"/>
    </g>
  </g>
</svg>