<?xml version="1.0" encoding="UTF-8"?>
<svg id="svg89" xmlns="http://www.w3.org/2000/svg" version="1.1" xmlns:xlink="http://www.w3.org/1999/xlink" viewBox="0 0 1062.4827 535.174">
  <!-- Generator: Adobe Illustrator 29.3.1, SVG Export Plug-In . SVG Version: 2.1.0 Build 151)  -->
  <defs>
    <style>
      .st0 {
        fill: #70777f;
      }

      .st1 {
        fill: gold;
      }
    </style>
  </defs>
  <g id="Fourth_Floor">
    <polygon class="st1" points="421.4615 245.6966 421.367 246.1004 423.0542 246.4975 422.7611 247.8841 420.0591 247.2905 420.4875 245.4896 421.4615 245.6966"/>
    <rect class="st1" x="432.9531" y="296.5191" width="1.3" height="3.2" transform="translate(49.5488 657.8259) rotate(-77.6351)"/>
    <rect class="st1" x="433.3929" y="294.496" width="1.3" height="3.2" transform="translate(51.8706 656.6656) rotate(-77.6351)"/>
    <path class="st0" d="M431.4094,225.2035l-2.6647,12.6031-1.9502-.3801.0503-.2334,1.7052.3275,2.6103-12.369-5.9427-1.2367-2.6858,12.3546,3.3783.7251-.0574.2467-.4951-.0993-1.0134,4.6468-.2936-.0778,1.03-4.6327-2.6072-.5379-1.2947,5.9341,2.6003.5751.1517-.7119.2852.0699-.2371,1.0549-2.8889-.6446-.6024,2.6717,2.6525.6018-.3789,1.7927,3.3891.7956,1.6977-8.2336.2937.0628-1.6985,8.2281,11.0535,2.3806,5.0211-23.6025-11.1082-2.3115h0ZM435.8144,248.5449l-6.5367-1.4583,4.0769-19.4111,6.4367,1.4002-3.977,19.4691h0Z"/>
    <path class="st0" d="M435.0216,299.0982l.8746.1843,5.6258,1.1852,7.8143-35.0881-13.6983-2.849-6.7035,31.6515-.7279,3.4369,3.2426.7034.7207-3.3006,3.5753.7821-.2784,1.2698-.4452,2.0244h0ZM439.2375,289.4986c-1.4661,0-3.2-1.1356-3.2-3.2,0-1.5829,1.1872-3.2,3.2467-3.2,1.9467,0,3.1533,1.6325,3.1533,3.2,0,1.446-1.0901,3.2-3.2,3.2h0ZM440.9375,280.9986c-2.1192,0-3.2-1.7226-3.2-3.2,0-1.8397,1.4586-3.2,3.2-3.2,2.0457,0,3.2,1.7473,3.2,3.2,0,1.4406-1.0806,3.2-3.2,3.2ZM442.8375,272.3986c-2.1856,0-3.2-1.8578-3.2-3.2,0-1.975,1.6226-3.2,3.2-3.2,1.7214,0,3.2,1.3909,3.2,3.2,0,1.9227-1.6261,3.2-3.2,3.2Z"/>
  </g>
</svg>