<?xml version="1.0" encoding="UTF-8"?>
<svg id="svg89" xmlns="http://www.w3.org/2000/svg" version="1.1" xmlns:xlink="http://www.w3.org/1999/xlink" viewBox="0 0 1062.4827 535.174">
  <!-- Generator: Adobe Illustrator 29.3.1, SVG Export Plug-In . SVG Version: 2.1.0 Build 151)  -->
  <defs>
    <style>
      .st0 {
        fill: #37414c;
      }

      .st1 {
        fill: #70777f;
      }

      .st2 {
        fill: gold;
      }
    </style>
  </defs>
  <g id="Second_Floor">
    <g id="Ladders-2">
      <polygon class="st2" points="483.493 150.2182 482.8309 150.3374 482.1707 150.4585 482.7742 153.7886 483.3348 156.8843 484.657 156.646 484.0965 153.5483 483.493 150.2182"/>
      <polygon class="st2" points="77.6027 167.0454 81.0002 167.4014 80.8451 168.852 77.4475 168.496 77.6027 167.0454"/>
      <polygon class="st2" points="89.0946 174.903 92.2891 175.2551 92.0048 178.1014 88.8103 177.7493 89.0946 174.903"/>
      <rect class="st2" x="130.7523" y="182.8874" width="4.9068" height="2.3673" transform="translate(-66.0959 293.1801) rotate(-82.8069)"/>
      <rect class="st2" x="144.6772" y="184.7667" width="4.7867" height="2.3094" transform="translate(-55.8007 308.5581) rotate(-82.8079)"/>
      <polygon class="st2" points="137.5154 228.8912 131.7679 228.1254 132.1433 225.4085 137.8909 226.1743 137.5154 228.8912"/>
      <rect class="st2" x="131.4425" y="239.6744" width="2.6883" height="5.3359" transform="translate(-125.3712 340.9153) rotate(-82.1788)"/>
      <polygon class="st2" points="367.7034 244.2414 368.4505 239.2041 374.1018 240.0682 373.3546 245.1055 367.7034 244.2414"/>
      <rect class="st2" x="367.977" y="244.3857" width="4.291" height="5.7169" transform="translate(69.5685 575.5544) rotate(-81.2704)"/>
      <polygon class="st2" points="494.6233 166.8542 501.083 165.5922 500.4331 162.0083 493.9734 163.2703 494.6233 166.8542"/>
      <polygon class="st2" points="489.2455 200.9032 484.4069 201.8849 483.7415 198.2156 488.5801 197.2339 489.2455 200.9032"/>
      <polygon class="st2" points="604.852 140.8465 600.6783 141.7309 600.0532 138.6471 604.227 137.7626 604.852 140.8465"/>
      <polygon class="st2" points="589.6338 214.5642 589.9545 216.0946 592.958 215.4697 592.6374 213.9393 589.6338 214.5642"/>
      <polygon class="st2" points="892.1253 192.2588 898.0665 192.4521 898.1438 189.4493 892.2026 189.256 892.1253 192.2588"/>
      <rect class="st2" x="458.3343" y="440.4693" width="2.4459" height="4.3112" transform="translate(-46.4095 831.35) rotate(-81.4592)"/>
      <polygon class="st2" points="521.6042 459.9227 521.2513 462.467 525.4402 463.0332 525.7931 460.489 521.6042 459.9227"/>
      <rect class="st2" x="519.5158" y="441.3824" width="1.939" height="8.0945" transform="translate(7.8237 899.842) rotate(-82.1099)"/>
      <rect class="st2" x="513.3436" y="484.2027" width="1.9091" height="7.9694" transform="translate(-39.8772 930.5891) rotate(-82.1086)"/>
      <rect class="st2" x="459.4396" y="466.9844" width="1.7475" height="7.2949" transform="translate(-67.9494 863.4692) rotate(-82.271)"/>
      <polygon class="st2" points="461.0978 282.0611 466.2247 281.1343 467.1284 286.0826 462.0032 287.0186 461.0978 282.0611"/>
      <rect class="st2" x="617.3888" y="292.683" width="4.7543" height="3.516" transform="translate(284.9931 893.3838) rotate(-86.2091)"/>
      <polygon class="st2" points="114.3546 250.3918 115.0634 245.7421 117.6701 246.1254 116.9696 250.7762 114.3546 250.3918"/>
      <rect class="st2" x="346.1475" y="267.1175" width="3.3161" height="1.5003" transform="translate(30.3974 571.1396) rotate(-81.2975)"/>
      <polygon class="st2" points="613.0994 160.0037 608.3618 160.964 608.6487 162.3888 613.3863 161.4285 613.0994 160.0037"/>
      <polygon class="st2" points="426.8174 248.8123 437.4963 251.1149 440.1963 238.3148 435.3963 237.2148 433.4963 246.2148 427.6906 244.9306 426.8174 248.8123"/>
      <polygon class="st2" points="415.1036 293.5993 419.305 294.515 419.0424 295.7505 414.8275 294.8585 415.1036 293.5993"/>
      <polygon class="st2" points="420.2942 294.6981 424.5002 295.5906 424.2551 296.8297 420.045 295.9628 420.2942 294.6981"/>
      <polygon class="st2" points="425.3597 268.727 423.9355 268.4056 424.2325 267.1196 425.6371 267.4259 425.3597 268.727"/>
      <polygon class="st2" points="422.6933 245.9866 421.4614 245.6939 421.3669 246.0977 423.0541 246.4948 422.761 247.8814 420.059 247.2878 420.8124 244.1207 423.0081 244.5996 422.6933 245.9866"/>
      <polygon class="st2" points="430.2601 278.9732 430.6646 277.0423 426.9028 276.2567 427.1774 275.0878 432.4057 276.2246 431.4462 280.722 425.3428 279.3474 425.6384 277.9935 430.2601 278.9732"/>
      <rect class="st2" x="433.3927" y="294.4931" width="1.3" height="3.2" transform="translate(51.8802 656.6705) rotate(-77.6362)"/>
      <rect class="st2" x="432.9529" y="296.5162" width="1.3" height="3.2" transform="translate(49.5503 657.8221) rotate(-77.6349)"/>
      <polygon class="st2" points="640.8358 250.1518 639.3663 250.4535 638.4611 246.0652 639.9302 245.787 640.8358 250.1518"/>
      <polygon class="st2" points="643.0235 249.7026 641.5827 249.9968 640.6598 245.6438 642.1212 245.3512 643.0235 249.7026"/>
      <polygon class="st2" points="645.5473 257.2222 644.0261 257.526 643.1398 253.0366 644.653 252.7259 645.5473 257.2222"/>
      <polygon class="st2" points="660.5673 241.1767 656.4707 242.0842 656.1591 240.6435 658.8091 240.089 658.1408 237.0582 659.5257 236.7688 660.5673 241.1767"/>
      <polygon class="st2" points="630.8834 234.5831 625.6146 235.7008 625.2382 234.1219 630.5466 233.0377 630.8834 234.5831"/>
      <polygon class="st2" points="638.3411 233.0204 633.173 234.1231 632.8274 232.5622 638.0173 231.5207 638.3411 233.0204"/>
      <rect class="st2" x="590.2758" y="244.7121" width="1.6332" height="3.7824" transform="translate(-38.4565 128.8256) rotate(-12.0493)"/>
      <rect class="st2" x="574.8483" y="247.977" width="1.6014" height="3.8137" transform="translate(-39.4816 125.674) rotate(-12.0493)"/>
      <rect class="st2" x="577.0751" y="244.1279" width="2.1157" height="1.2128" transform="translate(-38.1394 124.9807) rotate(-11.9472)"/>
      <polygon class="st2" points="577.7033 247.7645 577.4515 246.5849 579.1936 246.213 579.462 247.3891 577.7033 247.7645"/>
      <polygon class="st2" points="278.3871 212.917 277.0269 212.712 277.4129 210.1436 278.782 210.3471 278.3871 212.917"/>
      <polygon class="st2" points="280.1873 212.917 278.8249 212.6988 279.1784 210.4131 280.5309 210.611 280.1873 212.917"/>
    </g>
    <g id="Buildings-2">
      <path class="st1" d="M614.9395,135.502l-2.3865.4979-3.2006.6425.0615.3074.1465.7021-.0768.0153-.0768.0173-.1465-.704-.0615-.3074-2.4727.5064-2.9893.6071.1691.8434.171.8434-.3746.0768-.3746.0788-.6666.1325-.6686.1325.1575.7838.1595.7819,1.9634-.3977,2.6055-.5211.1825.9433.1825.9471-.0673.023-.0673.023-.1768-.876-.1768-.876-3.3413.6691-2.6992.5475,1.9539,9.6442,1.9538,9.6462,2.6973-.5475,3.3413-.6691-.146-.7204-.146-.7224.0768-.0134.0768-.0153.146.7185.146.7224.6132-.122.0812.374,1.4193-.305-.0733-.3643.9393-.1999-.4466-2.2097-.5435-2.6522.0768-.0173.0768-.0153.1861.8905,2.9051-.5967,2.6838-.5417-.4172-2.0249-.6148-3.0355-2.6838.5437-2.9051.5967.2747,1.3486.2728,1.3487-.0768.0153-.0768.0173-1.5876-7.8688-1.0581-5.2477.0711-.006.0692-.004.7757,3.8126,1.3052,6.4299,2.9051-.5967,2.6838-.5437-1.5876-7.865-1.1431-5.6439h0ZM607.9272,145.7244l1.0432,5.1526,1.0432,5.1506-.0768.0173-.0768.0153-1.0432-5.1526-1.0432-5.1525.0768-.0153.0767-.0154h0Z"/>
      <path class="st1" d="M497.4825,144.427l-.75.1367,1.5605,8.543-10.3301,1.8887.3887,2.123-.6172.1133-.2168-1.1719-10.5488,1.9512-1.752-9.4746-.6367.1172,3.1484,17.0332,2.1465-.4023.9766,5.1562-2.1699.4062,5.0599,27.3706,3.7801-.7669.7208,3.6581-3.8355.7781,1.0423,5.5792,11.1055-2.0527-2.4434-13.2227.6504-.1191,2.4121,13.2324,11.0586-2.0195-6.8752-37.7407-4.2127.8266-.6328-3.416,4.2129-.7793-3.2422-17.748h0ZM488.5919,158.4407l4.4746,24.4844,1.7285-.3145.8438,4.6172-1.7051.3125.25,1.3711-.6016.1113-3.7461-20.2754-6.9238,1.2793-.9336-5.0566,6.9062-1.2773-.9492-5.1309.6562-.1211h0ZM503.4278,181.0794l.7832,4.4648-6.3652,1.1152-.7812-4.4648,6.3633-1.1152h-.0001Z"/>
      <polygon class="st1" points="122.5916 211.1921 121.672 217.6776 120.8743 223.4539 123.8089 223.8586 126.6621 224.2545 126.8605 222.8265 127.1586 220.8099 127.2254 220.8199 127.2912 220.8299 126.9932 222.8465 126.7967 224.2716 133.3797 225.2097 133.2549 226.1024 133.1503 226.8634 133.6598 226.9187 134.4198 227.0223 134.5235 226.27 134.6483 225.3696 138.4285 225.8789 138.9726 221.9325 139.7013 216.7464 139.1098 216.6573 138.5163 216.5692 138.5163 216.4462 139.1175 216.5285 139.7207 216.6118 139.9628 214.8517 140.1458 213.6191 134.3706 212.8203 128.5139 212.0119 128.27 213.772 128.0888 215.0046 132.5706 215.6252 136.9729 216.2323 136.963 216.3001 136.9539 216.3669 132.5516 215.7579 128.0698 215.1392 127.8771 216.5382 127.6005 218.5896 130.2823 218.9594 131.5648 219.136 131.6559 218.4689 131.7487 217.8028 131.8145 217.8108 131.8832 217.8207 131.7805 218.5546 131.6789 219.2885 130.3315 219.1023 127.5819 218.7218 127.5519 218.9513 127.5189 219.1798 127.4609 219.1624 127.4018 219.1458 127.9622 214.981 128.3796 211.9931 125.5254 211.6 122.5916 211.1921"/>
      <polygon class="st1" points="131.3714 241.9754 131.2507 242.8412 131.132 243.704 130.8228 243.646 130.5401 245.6949 130.2399 247.9161 126.055 247.3387 122.9599 246.9111 122.9699 246.8378 122.9778 246.7789 125.9995 247.1958 130.1257 247.7636 130.4162 245.61 130.6893 243.6277 125.4139 242.9074 121.2446 242.338 120.9724 244.3078 120.6839 246.4478 121.1943 246.5269 121.7059 246.6042 121.6959 246.6698 121.6858 246.7354 121.1146 246.6563 120.5307 246.5752 120.6649 245.5517 120.7759 244.7545 120.4497 244.7111 120.1012 244.6619 120.1129 244.5885 120.1208 244.5287 120.4537 244.5732 120.7935 244.6205 120.9498 243.4913 121.112 242.3196 119.7628 242.1247 118.4145 241.9326 118.2504 243.1187 118.0961 244.2479 118.4281 244.2942 118.7601 244.3396 118.7501 244.4062 118.74 244.4737 118.3164 244.4148 117.8898 244.3569 117.8977 244.3019 116.3161 244.0838 115.3925 243.9381 115.2245 245.1599 115.0555 246.3827 116.3034 246.5525 117.5494 246.7339 117.5889 246.4473 117.6266 246.1607 117.8245 246.1887 117.7637 246.6317 117.7018 247.0746 117.6035 247.7898 117.5059 248.502 121.2186 249.0164 124.9834 249.5347 124.9661 249.5955 124.9497 249.6534 121.1965 249.1409 117.4867 248.6352 116.9858 252.2582 116.7463 253.9007 125.4957 255.111 134.2462 256.3193 134.5773 253.9123 134.9866 251.0537 131.7932 250.6187 127.5941 250.0327 127.604 249.9642 127.6131 249.8986 130.0026 250.2365 131.8913 250.4961 132.1597 248.5544 132.4269 246.6136 132.4946 246.6226 132.5611 246.6325 132.2928 248.5743 132.0236 250.5161 133.7656 250.7555 135.0047 250.9213 135.4545 247.6641 135.9129 244.3519 134.6738 244.186 132.9308 243.9448 132.8304 244.6783 132.7358 245.3567 132.6702 245.3467 132.6046 245.3367 132.6982 244.6582 132.7986 243.9267 132.3459 243.863 132.4666 242.9992 132.5853 242.1364 131.8277 242.0313 131.3714 241.9754"/>
      <path class="st1" d="M617.3651,281.9505l-.3535,4.6875-.3555,4.6875-1.0684-.0801-2.1719-.166-.2969,3.9258-.2969,3.9258-.0352.4746-.0371.4746,2.4883.1895,1.3477.1016.0215-.2871.0215-.2871.8906.0664.8926.0684-.0234.2871-.0215.2871,3.1641.2402,3.752.2773.0234-.3164.0234-.3164.2891.0215.2871.0234.0977-1.2852.0977-1.2852.1895-2.5117.1895-2.5117-.3262-.0254-.248-.0176.0664-.8926.0684-.8906.2441.0195.3301.0234.2246-2.9766.2266-2.9766.0625-.8184.0625-.8203-.3809-.0293-.1953-.0137.0215-.2891.0215-.2871-3.752-.2773-3.1621-.2402-.0234.2871-.0215.2871-.8906-.0664-.8926-.0684.0234-.2871.0195-.2871-.2949-.0234-.2988-.0215h-.0002ZM618.1681,291.9544l3.5098.2324-.3145,4.7441-3.5098-.2324.3145-4.7441Z"/>
      <path class="st1" d="M519.4199,271.4407l-43.4023,7.9258.4199,2.2969-2.5488.4648-.4219-2.3125-7.2422,1.3223.9043,4.9473-5.9199,1.0801,1.1523,6.3105,13.1973-2.4102-1.0742-5.8809,2.582-.4707,1.0762,5.9082,43.207-7.8906-.1406-.7891-28.2969,5.168-1.7871-9.791,28.4199-5.1914-.125-.6875h0ZM488.754,277.7532l1.7871,9.791-2.6426.4824-1.7891-9.791,2.6445-.4824h0Z"/>
      <path class="st1" d="M521.3535,283.2805l-58.7598,10.7129.1094.5977,8.0645-1.4707,1.8105,9.9238-8.127,1.4824.0937.5195,58.9609-10.75-.1133-.623-35.8164,6.5293-1.7832-9.7793,35.6758-6.5039-.1152-.6387h.0001ZM480.7208,291.3059l1.8105,9.9238-2.416.4395-1.8086-9.9238,2.4141-.4395Z"/>
      <polygon class="st0" points="896.1537 204.5022 896.1865 203.3415 896.1381 203.3406 896.0908 203.3389 896.0977 203.0809 896.1056 202.8221 896.1185 202.7155 896.1313 202.6081 896.1692 202.6098 896.207 202.6107 896.2656 200.5119 896.3249 198.4131 896.2767 198.4123 896.2294 198.4106 896.2388 198.046 896.2491 197.6814 896.2931 197.6771 896.3369 197.6737 896.3979 195.6506 896.459 193.6275 897.1185 193.6464 897.7787 193.6645 897.6093 199.6822 897.4409 205.6999 896.7805 205.6819 896.121 205.6629 896.1537 204.5022"/>
      <polygon class="st1" points="891.8513 199.4388 891.8408 199.4277 891.9243 196.4648 892.007 193.5028 894.1453 193.563 896.2836 193.6223 896.231 195.6463 896.1788 197.6694 896.214 197.6754 896.2493 197.6814 896.2397 198.046 896.2294 198.4105 896.1992 198.4097 896.1702 198.4088 896.1573 198.5163 896.1436 198.6229 896.1306 199.0958 896.1168 199.5687 893.9897 199.5093 891.8618 199.4492 891.8513 199.4388"/>
      <polygon class="st1" points="891.7567 202.5694 891.8437 199.6005 893.9785 199.6564 896.1132 199.7123 896.0728 201.1464 896.0334 202.5814 896.0419 202.6175 896.0504 202.6537 896.0359 202.6537 896.0211 202.6528 895.9774 202.5599 895.9335 202.4679 895.9061 202.6218 895.8784 202.7766 895.8647 202.7757 895.852 202.7757 895.7177 202.7173 895.5836 202.6588 895.6172 202.7181 895.6505 202.7783 895.6937 202.8454 895.7366 202.9133 895.7366 202.9279 895.7357 202.9417 895.5914 202.9804 895.4478 203.0191 895.447 203.0251 895.447 203.0311 895.5887 203.0801 895.7306 203.13 895.7306 203.142 895.7296 203.1541 895.6584 203.259 895.5869 203.3647 895.5742 203.3845 895.562 203.4043 895.6396 203.3759 895.7169 203.3475 895.7855 203.3226 895.8546 203.2968 895.8596 203.3028 895.8647 203.3088 895.8828 203.461 895.9017 203.6123 895.9474 203.5298 895.9929 203.4481 896.0101 203.4481 896.0272 203.449 896.017 203.4739 896.0065 203.4989 895.9766 204.5788 895.9465 205.6578 893.8082 205.5985 891.6689 205.5383 891.7567 202.5694"/>
      <polygon class="st1" points="896.4152 189.3879 896.339 192.2557 891.6876 192.156 891.6602 193.3199 896.4557 193.4452 896.4503 193.6232 897.7789 193.661 897.7838 193.4831 897.938 193.4874 897.5914 205.8461 891.3777 205.6793 891.3759 205.6793 891.1804 211.5227 902.0255 211.8628 902.1331 209.0136 899.2902 208.8902 899.8293 189.5056 896.4152 189.3879"/>
      <polygon class="st0" points="521.1447 451.7463 521.351 450.2592 524.3745 450.6786 527.397 451.097 527.1906 452.585 526.9846 454.0721 523.9619 453.6527 520.9395 453.2343 521.1447 451.7463"/>
      <polygon class="st0" points="511.9322 450.4694 512.1385 448.9823 515.1508 449.3997 518.1646 449.8181 517.9583 451.3052 517.752 452.7924 514.7386 452.3748 511.726 451.9564 511.9322 450.4694"/>
      <polygon class="st0" points="502.5735 472.6779 502.991 469.6652 504.4791 469.8715 505.9662 470.0767 505.5487 473.0904 505.1302 476.104 503.6432 475.8977 502.1562 475.6916 502.5735 472.6779"/>
      <polygon class="st0" points="499.5027 472.2526 499.9201 469.239 501.3983 469.4442 502.8755 469.6485 502.4581 472.6621 502.0397 475.6747 500.5625 475.4705 499.0853 475.2653 499.5027 472.2526"/>
      <polygon class="st0" points="516.4575 485.5682 516.6638 484.0801 519.6862 484.4995 522.7097 484.9189 522.5034 486.4059 522.2974 487.893 519.2736 487.4736 516.2512 487.0552 516.4575 485.5682"/>
      <path class="st1" d="M513.8345,486.7216l-.1182-.0177-.5654-.0789.4313-3.0699.4302-3.0709-.5989-.0829-.599-.0829-.0059.0484-.0069.0484.5506.076.5506.076-.4233,3.0176-.4243,3.0274-1.4831-.2053-1.4822-.2063.4184-3.0225.4194-3.0225.5309.073.5319.074-.002.0089-.001.0079-.1658.0592-.1658.0592-.001.0138-.002.0138.1895.0523.1894.0513-.001.0069-.001.0069-.0948.1658-.0937.1648.0069.0089.0059.0089.1628-.075.1628-.075.0178.003.0178.002.0187.0868.0197.0859.0178.1204.0187.1214.0829-.1826.0819-.1826.0247-.0059.0236-.0059.1382.1184.1382.1174.0089-.0069.0089-.0069-.0464-.1845-.0454-.1845.001-.0069.001-.0069.1964.002.1973.002.002-.0138.002-.0148-.1599-.1125-.1598-.1125-.3859-.0533-.3848-.0543.0148-.0454.0158-.0464-.595-.0878-.595-.0888-.5654-.073-.5664-.072-.0059.0474-.0069.0474.5506.076.5506.076-.4194,3.0235-.4194,3.0225-1.4772-.2043-1.4772-.2053.4184-3.0225.4194-3.0235.5407.075.5408.075.0069-.0474.0059-.0464-.5684-.0849-.5694-.0849-.5704-.074-.5704-.073-.0069.0474-.0069.0474.5408.075.5408.075-.4184,3.0225-.4194,3.0235-1.4772-.2053-1.4782-.2043.4194-3.0235.4194-3.0225.5496.076.5507.077.0069-.0474.0069-.0484-.5645-.0839-.5644-.0839-.5851-.075-.5851-.075-.006.0474-.0069.0474.5507.076.5506.076-.4194,3.0235-.4184,3.0225-1.4881-.2063-1.4871-.2063.4194-3.0225.4184-3.0225.5506.076.5507.076.0069-.0474.0059-.0464-.5832-.0878-.5832-.0868-.5664-.072-.5654-.073-.0069.0474-.006.0474.5507.077.5506.076-.4233,3.0176-.4253,3.0264-1.4822-.2053-1.4821-.2053.4184-3.0225.4194-3.0235.5506.077.5507.076.0059-.0474.0069-.0474-.5832-.0868-.5842-.0868-.5654-.073-.5654-.072-.0069.0474-.0069.0474.5407.075.5418.075-.4194,3.0225-.4194,3.0235-1.4772-.2053-1.4772-.2043.4184-3.0235.4194-3.0225.5506.076.5497.077.0069-.0484.0069-.0484-.5506-.077-.5507-.076.2063-1.4871.2062-1.4871.5467.071.5457.0701.0128-.0424.0118-.0424-.5516-.077-.5516-.076.4184-3.0235.4193-3.0225,1.4772.2053,1.4782.2043-.4194,3.0225-.4194,3.0235-.5407-.075-.5408-.075-.0059.0484-.0069.0484,4.2205.5851,4.2205.5842.006-.0474.0069-.0484-.5447-.0809-.5447-.0809.4135-3.0186.4135-3.0186,1.4871.2063,1.4871.2062-.4193,3.0225-.4184,3.0235-.5506-.077-.5506-.076-.0069.0484-.006.0484.598.0829.599.0829.4312-3.0748.4312-3.0758,3.0768.4214,3.0768.4214.0829-.598.0829-.599-.0583-.0079-.0572-.0079-.077.5496-.076.5506-3.0236-.4184-3.0225-.4194.2102-1.4822.2102-1.4812,3.0196.4135,3.0186.4135-.077.5506-.076.5506.0582.0079.0582.0079.5842-4.2205.5851-4.2205-.0582-.0079-.0572-.0079-.075.5408-.075.5408-3.0236-.4194-3.0225-.4184.2053-1.4782.2043-1.4772,3.0225.4184,3.0225.4194-.0701.5467-.071.5457.0483.0069.0484.0069.1599-1.1496.1589-1.1486-.0484-.0069-.0483-.0069-.0809.5447-.08.5447-3.0235-.4184-3.0225-.4194.2053-1.4772.2052-1.4772,3.0225.4184,3.0225.4194-.071.5457-.0701.5467.0484.0069.0483.0069.1589-1.1496.1589-1.1496-.0483-.0069-.0474-.0059-.0809.5447-.0809.5447-3.0225-.4184-3.0225-.4194.2043-1.4772.2053-1.4782,3.0225.4194,3.0236.4184-.075.5418-.075.5408.0572.0079.0582.0079.3671-2.6811.366-2.6801-.0483-.0069-.0483-.0069-.0809.5447-.0799.5457-3.0176-.4233-3.0166-.4233.2043-1.4772.2053-1.4782,3.0186.4135,3.0176.4135-.0701.5467-.0701.5467.0474.0059.0483.0069.076-.5457.076-.5457.5546.077.376.0471.0502-.3427,1.2589.1824-.0502.3427.2439.0311.5506.076-.077.5526-.076.5516h.0888l.0809-.5447.08-.5457,3.0225.4194,3.0225.4194-.2053,1.4871-.2062,1.4871-3.0225-.4194-3.0225-.4184.0701-.5467.07-.5467-.0424-.0118-.0425-.0118-.076.5565-.076.5565-.304,2.1285-.3049,2.1285.0474.0059.0464.0069.075-.5408.075-.5408,2.9919.4145,2.9929.4145.0316-.0069.0326-.0079-.2062,1.4891-.2072,1.4901-3.0225-.4194-3.0225-.4184.076-.5506.076-.5506-.0473-.0069-.0464-.0059-.0869.5832-.0878.5832-.072.5664-.073.5654.0474.0069.0473.0059.075-.5408.075-.5408,3.0236.4194,3.0225.4184-.2042,1.4782-.2053,1.4772-1.2522-.1737-1.2522-.1737-1.7723-.2319-1.7723-.2329.073-.5595.072-.5585-.0425-.0128-.0434-.0118-.0839.6098-.0848.6098,1.2364.1707,1.2365.1717-.1066.7628-.1055.7628.6127.0898.6128.0898-.0997.7154-.0986.7144-1.8403-.2496-1.8403-.2506-.4322,3.0847-.4332,3.0847-.075.5851-.076.5852.0474.0069.0483.0069.076-.5506.076-.5506.3582.0493.3572.0493.0059-.0484.007-.0484-.3572-.0493-.3572-.0493.4194-3.0225.4184-3.0235,3.0235.4194,3.0225.4184-.2062,1.4881-.2062,1.4871-2.2794-.3158-2.2785-.3158-.007.0484-.0069.0474,2.2794.3168,2.2795.3158-.2062,1.4871-.2062,1.4871-2.2795-.3158-2.2795-.3158-.0069.0484-.0059.0484,2.2785.3158,2.2795.3158-.2062,1.4871-.2062,1.4871-3.0225-.4184-3.0225-.4194.076-.5506.076-.5496-.0474-.0069-.0474-.0069-.0839.5644-.0839.5644-.1559,1.1644-.1559,1.1644.0473.0069.0484.0059.1549-1.12.1549-1.12,3.0235.4184,3.0225.4194-.4174,3.0126-.4174,3.0136-3.0235-.4194-3.0225-.4184.1549-1.12.1559-1.121-.0484-.0069-.0483-.0059-.1559,1.12-.1559,1.12-.221,1.5936-.2211,1.5936-.075.5506-.076.5506.0483.0059.0483.0069.076-.5506.076-.5496,3.0235.4184,3.0225.4194-.2102,1.4812-.2102,1.4822-3.0186-.4135-3.0196-.4135.077-.5506.076-.5506-.0483-.0069-.0484-.0059-.077.5546-.0779.5555-.2112,1.5305-.2101,1.5315-.5516-.077-.1356-.0217-.0544.3699-1.6349-.2221.0543-.3699-.001-.0009h-.0004.0004ZM514.3745,477.444l.0375-.2704-.2803-.0385-.2793-.0395-.0375.2704-.0375.2704.2793.0395.2802.0385.0375-.2704h0Z"/>
      <polygon class="st0" points="457.4055 439.2529 457.6073 437.7617 460.6389 438.1729 463.6703 438.585 463.4678 440.0762 463.2652 441.5674 460.2346 441.1562 457.203 440.7451 457.4055 439.2529"/>
      <polygon class="st1" points="460.2736 469.7449 460.3162 469.4315 460.1472 469.4122 459.5953 469.3375 459.6701 468.7857 459.7447 468.2339 459.6966 468.227 459.6483 468.2201 459.5746 468.7631 459.4979 469.3247 456.4673 468.9127 453.4357 468.5014 453.6394 467.0004 453.84 465.519 456.8715 465.9302 459.9032 466.3413 459.8284 466.8932 459.7537 467.446 459.8018 467.4519 459.8501 467.4588 460.0074 466.2961 460.1659 465.1344 460.1177 465.1276 460.0684 465.1216 459.9937 465.6735 459.919 466.2253 456.8874 465.8141 453.8558 465.402 454.0575 463.9206 454.2581 462.4392 457.2897 462.8504 460.3213 463.2616 460.2475 463.8045 460.1737 464.3465 460.2219 464.3534 460.2711 464.3593 460.4275 463.2075 460.5839 462.0546 460.5357 462.0478 460.4864 462.0418 460.4118 462.5937 460.337 463.1455 457.3054 462.7343 454.2739 462.3222 454.4765 460.831 454.679 459.3398 457.7048 459.7549 460.7303 460.171 460.6616 460.7189 460.5926 461.2668 460.6409 461.2737 460.6891 461.2796 460.8455 460.1277 461.0019 458.9749 460.9528 458.968 460.9044 458.9622 460.8298 459.5139 460.7551 460.0658 457.7234 459.6546 454.6919 459.2425 454.8945 457.7513 455.097 456.2601 458.1287 456.6712 461.1602 457.0825 461.0846 457.6352 461.0098 458.1871 461.058 458.1939 461.1071 458.1998 461.2635 457.048 461.42 455.8952 461.3708 455.8883 461.3226 455.8814 461.2479 456.4343 461.1731 456.9861 458.1414 456.5749 455.11 456.1628 455.3126 454.6716 455.5152 453.1804 458.5468 453.5915 461.5774 454.0027 461.5026 454.5555 461.4279 455.1073 461.4761 455.1133 461.5253 455.1201 461.6817 453.9683 461.8381 452.8155 461.7899 452.8086 461.7415 452.8027 461.662 453.3486 461.5823 453.8955 458.5556 453.4893 455.528 453.083 455.7306 451.5919 455.9332 450.1007 458.9648 450.5118 461.9954 450.923 461.9207 451.4758 461.8459 452.0276 461.8941 452.0335 461.9433 452.0404 462.444 448.3508 462.9445 444.6601 461.0944 444.4093 459.2451 444.1585 459.3425 443.4424 459.4389 442.7253 460.0547 442.804 460.6705 442.8827 460.7805 442.1134 460.8898 441.3442 462.1194 441.5106 463.3499 441.6777 463.6401 439.5373 463.9303 437.3969 463.882 437.39 463.8339 437.3841 463.7591 437.9359 463.6833 438.4878 460.6528 438.0766 457.6212 437.6645 457.8238 436.1733 458.0254 434.6822 461.0569 435.0932 464.0886 435.5044 464.0139 436.0572 463.9391 436.609 463.9873 436.6159 464.0356 436.6218 464.1919 435.47 464.3483 434.3172 464.3 434.3103 464.2519 434.3044 464.1732 434.8503 464.0936 435.3972 461.0659 434.9911 458.0393 434.5857 458.2418 433.0935 458.4434 431.6024 461.4751 432.0135 464.5067 432.4247 464.4319 432.9775 464.3571 433.5294 464.4054 433.5362 464.4536 433.5421 464.61 432.3903 464.7664 431.2375 464.7182 431.2306 464.67 431.2247 464.5962 431.7666 464.5224 432.3086 461.4909 431.8975 458.4593 431.4864 458.6609 430.0041 458.8616 428.5226 461.8931 428.9338 464.9246 429.3449 464.85 429.8977 464.7751 430.4496 464.8234 430.4564 464.8717 430.4623 464.9463 429.9105 465.0211 429.3587 466.5133 429.5613 468.0045 429.7629 467.9297 430.3158 467.8549 430.8676 467.9032 430.8745 467.9514 430.8804 468.0262 430.3286 468.1009 429.7767 471.1324 430.1879 474.1641 430.599 473.9633 432.0814 473.7617 433.5628 470.7302 433.1516 467.6985 432.7404 467.7724 432.1975 467.8462 431.6555 467.798 431.6486 467.7498 431.6427 467.5934 432.7945 467.4369 433.9474 467.4852 433.9542 467.5334 433.9601 467.6082 433.4083 467.6829 432.8565 470.7144 433.2676 473.746 433.6788 473.5434 435.171 473.3408 436.6622 470.3151 436.2461 467.2895 435.831 467.3582 435.2831 467.4282 434.7352 467.38 434.7283 467.3318 434.7224 467.1754 435.8744 467.0189 437.0271 467.0672 437.034 467.1154 437.0399 467.1901 436.488 467.2649 435.9362 470.2964 436.3474 473.328 436.7585 473.1254 438.2507 472.9228 439.7419 469.8921 439.3307 466.8606 438.9186 466.9354 438.3668 467.0101 437.8149 466.9619 437.8081 466.9137 437.8022 466.7573 438.954 466.6009 440.1068 466.649 440.1137 466.6973 440.1197 466.7721 439.5678 466.8477 439.0159 469.8784 439.4271 472.91 439.8383 472.7074 441.3304 472.5057 442.8216 469.4741 442.4105 466.4426 441.9983 466.5173 441.4465 466.5919 440.8947 466.5439 440.8878 466.4956 440.882 466.3392 442.0337 466.1828 443.1865 466.231 443.1934 466.2793 443.1993 466.3578 442.6534 466.4376 442.1065 469.4653 442.5128 472.4918 442.918 472.2893 444.4102 472.0876 445.9015 469.0561 445.4902 466.0245 445.0781 466.0993 444.5262 466.1739 443.9744 466.1258 443.9675 466.0776 443.9616 465.9212 445.1134 465.7648 446.2663 465.813 446.2731 465.8612 446.2791 465.935 445.7371 466.0088 445.1951 469.0404 445.6063 472.0709 446.0174 471.8703 447.4998 471.6696 448.9811 468.638 448.57 465.6065 448.1578 465.6812 447.606 465.7559 447.0542 465.7077 447.0473 465.6595 447.0414 465.5011 448.2031 465.3437 449.3657 465.3919 449.3716 465.4411 449.3785 465.5159 448.8267 465.5906 448.2749 468.6222 448.686 471.6537 449.0973 471.4521 450.5796 471.2515 452.0609 468.2198 451.6497 465.1883 451.2386 465.2621 450.6956 465.3358 450.1536 465.2866 450.1468 465.2385 450.1399 465.0821 451.2927 464.9257 452.4455 464.9738 452.4514 465.0231 452.4583 465.0977 451.9065 465.1725 451.3546 468.2042 451.7658 471.2357 452.177 471.033 453.6692 470.8305 455.1603 467.8047 454.7442 464.7792 454.3292 464.848 453.7813 464.9169 453.2335 464.8687 453.2265 464.8205 453.2196 464.5854 454.9538 464.3502 456.6869 464.3985 456.6938 464.4467 456.7007 464.6011 455.5675 464.7545 454.4344 467.7862 454.8455 470.8177 455.2567 470.4055 458.2883 469.9944 461.3198 466.9628 460.9087 463.9313 460.4965 464.0857 459.3634 464.2392 458.2302 464.1909 458.2243 464.1427 458.2174 463.9066 459.9506 463.6716 461.6848 463.7198 461.6907 463.768 461.6975 463.8477 461.1516 463.9272 460.6047 466.9539 461.011 469.9816 461.4162 469.779 462.9084 469.5764 464.3997 466.5448 463.9884 463.5132 463.5763 463.589 463.0244 463.6637 462.4726 463.6154 462.4658 463.5663 462.4598 463.41 463.6117 463.2534 464.7645 463.3027 464.7714 463.3509 464.7773 463.4246 464.2353 463.4975 463.6923 466.5291 464.1045 469.5607 464.5156 469.36 465.998 469.1584 467.4793 466.1268 467.0682 463.0952 466.656 463.1709 466.1042 463.2457 465.5524 463.1974 465.5455 463.1483 465.5396 462.9909 466.7013 462.8335 467.8639 462.8818 467.8698 462.9299 467.8767 463.0047 467.3249 463.0794 466.7731 466.111 467.1842 469.1425 467.5955 468.9419 469.0778 468.7373 470.5788 465.7067 470.1666 462.675 469.7554 462.7509 469.1938 462.8246 468.6518 462.7765 468.645 462.7281 468.638 462.6535 469.1909 462.5778 469.7427 462.0258 469.6679 461.8292 469.6422 461.7866 469.9555 460.2736 469.7449"/>
      <rect class="st1" x="577.8481" y="215.4101" width="11.7329" height="2.2603" transform="translate(-31.854 123.332) rotate(-11.7431)"/>
      <polygon class="st1" points="369.4445 239.3747 368.6414 244.394 362.1948 243.4278 363.4255 235.6262 367.5995 236.2626 367.6685 235.8086 363.0415 235.1022 361.725 243.6773 360.3566 243.4634 361.886 233.2908 365.1942 233.7703 369.1 208.2853 378.7096 209.7627 374.589 236.8542 370.3105 236.1886 370.2386 236.6617 374.5221 237.3291 374.0983 240.0844 369.4445 239.3747"/>
      <polygon class="st1" points="367.9013 249.102 368.561 244.8033 364.8871 244.2166 364.7292 245.2477 364.2432 245.1736 364.4042 244.1197 361.9651 243.7466 361.0198 249.7792 367.6929 250.8019 367.9216 249.4141 363.6674 248.7604 363.9532 246.9488 364.4552 247.0258 364.2227 248.5144 367.9013 249.102"/>
      <polygon class="st1" points="340.2689 270.3809 340.9429 265.8009 344.8939 266.4353 344.5804 268.5399 344.8841 268.589 345.4837 264.6678 345.17 264.618 344.9306 266.1167 340.9823 265.4832 341.5402 261.9016 345.4593 262.5303 345.3824 263.0591 345.7099 263.1119 345.8398 262.2213 341.5995 261.5407 341.7691 260.3856 347.8837 261.337 346.667 269.3428 348.309 269.6025 348.1356 270.945 346.5146 270.6891 346.4055 271.3361 344.5218 271.0633 344.6774 269.997 344.3884 269.951 344.2328 271.0163 340.2689 270.3809"/>
      <path class="st1" d="M75.2498,165.0033l-1.6367,15.388,11.7383,1.25.0135-.2116.2968.031-.0135.2126,11.0391,1.173.416-3.8791-2.2793-.242.0352-.318,2.2734.24.2059-1.8754-3.5134-.3813.8001-7.5651,3.5174.3823.1815-1.7494-23.0743-2.455h0ZM77.6231,167.0257l15.4357,1.6337-.8001,7.565-2.1506-.2217-.2079,1.8984,3.2402.346-.0332.31-7.0449-.75-.2385,2.1246-.3222-.034.0254-.24-8.252-.877.8087-7.433-.9062-.098.4457-4.224h0Z"/>
      <polygon class="st1" points="132.2375 182.7303 131.7838 186.3275 124.309 185.3842 125.5849 175.2738 133.0546 176.2162 132.8663 177.7095 126.8094 176.9446 125.8852 184.2701 130.5857 184.864 131.4576 177.9559 132.8183 178.1276 132.2375 182.7303"/>
      <rect class="st1" x="111.4302" y="303.2951" width="7.315" height="7.2711" transform="translate(-193.4088 196.1089) rotate(-49.6859)"/>
      <polygon class="st1" points="146.0381 184.6142 145.5843 188.2113 138.1095 187.2681 139.3855 177.1577 146.8553 178.1001 146.6669 179.5934 140.61 178.8285 139.6858 186.154 144.3864 186.748 145.2583 179.8398 146.6188 180.0115 146.0381 184.6142"/>
      <polygon class="st1" points="426.0105 248.6462 426.8176 248.8143 427.8007 244.4325 433.1077 245.5903 434.5384 238.9043 439.8264 240.0691 442.5175 227.5143 425.2176 223.9143 421.0648 242.997 424.1504 243.688 423.8974 244.8109 423.0083 244.6016 422.6934 245.9886 423.5861 246.1925 420.6383 259.2749 417.5177 258.6143 415.1038 269.7335 423.2128 271.5353 424.2324 267.1195 418.9148 265.9597 419.0085 265.5453 433.9339 268.942 435.3177 262.4143 423.6175 259.9005 426.0105 248.6462"/>
      <polygon class="st1" points="427.8119 297.5717 424.5926 296.9105 424.8878 295.4177 420.3428 294.4514 420.0452 295.9648 419.0426 295.7525 419.3459 294.2539 414.9615 293.2796 414.6226 294.8158 410.035 293.804 410.7848 290.231 428.5745 294.036 427.8119 297.5717"/>
      <path class="st1" d="M435.0217,299.0975l.8746.1843,5.6258,1.1852,7.8143-35.0881-13.6983-2.849-6.7035,31.6515-.029.1368,3.7138.7998,3.1258.6852-.2784,1.2698-.4452,2.0244h0ZM439.2375,289.4979c-1.4661,0-3.2-1.1356-3.2-3.2,0-1.5829,1.1872-3.2,3.2467-3.2,1.9467,0,3.1533,1.6325,3.1533,3.2,0,1.446-1.0901,3.2-3.2,3.2h0ZM440.9376,280.9979c-2.1192,0-3.2-1.7226-3.2-3.2,0-1.8397,1.4586-3.2,3.2-3.2,2.0457,0,3.2,1.7473,3.2,3.2,0,1.4406-1.0806,3.2-3.2,3.2ZM442.8376,272.3979c-2.1856,0-3.2-1.8578-3.2-3.2,0-1.975,1.6226-3.2,3.2-3.2,1.7214,0,3.2,1.3909,3.2,3.2,0,1.9227-1.6261,3.2-3.2,3.2Z"/>
      <polygon class="st1" points="646.3502 261.2197 641.3541 262.2386 638.8509 250.5682 644.0059 249.5098 644.1001 249.9726 644.6031 249.8703 644.5056 249.4209 655.3706 247.1042 655.4398 247.4551 655.7509 247.4013 655.6848 247.0427 656.0164 246.9684 655.942 246.6392 649.6989 247.9601 649.4843 247.0758 649.1703 247.1482 649.3607 248.0106 644.422 249.0198 643.2576 243.7602 648.0723 242.6932 648.8623 246.0112 649.2141 245.9247 649.0842 245.3754 651.8073 244.7363 651.7227 244.4066 649.0023 245.0288 648.4221 242.625 653.7328 241.4862 654.2863 243.841 652.9503 244.1408 653.0376 244.4966 654.7227 244.113 654.0199 241.1001 656.1682 240.6505 656.4799 242.0912 660.5764 241.1837 660.8241 242.378 658.6753 242.8639 658.7448 243.1974 660.8855 242.714 661.1851 244.0515 661.4877 243.9859 661.1848 242.645 669.296 240.9165 669.8495 243.6304 661.8116 245.3142 661.7285 244.9405 661.3993 245.0153 661.4868 245.4027 657.8837 246.1826 657.9707 246.5293 661.5703 245.7702 662.7143 250.5879 656.7229 251.7901 656.1031 248.9549 655.7825 249.0184 656.3739 251.8544 645.4694 254.0689 644.8602 251.0716 644.3457 251.1787 644.6622 252.7329 643.149 253.0436 644.0352 257.5331 645.5565 257.2292 646.3502 261.2197"/>
      <polygon class="st1" points="645.7271 236.313 641.7489 237.2041 640.447 231.3524 644.4083 230.5516 645.7271 236.313"/>
      <polygon class="st1" points="636.3228 237.9281 631.8271 238.8628 630.8925 234.5901 630.5558 233.0447 632.8366 232.5692 633.1822 234.13 635.3723 233.6627 636.3228 237.9281"/>
      <polygon class="st1" points="593.9709 256.2671 592.4036 256.6339 590.6959 248.6236 592.2932 248.2826 593.9709 256.2671"/>
      <polygon class="st1" points="578.5185 259.5185 576.9058 259.8956 575.2714 251.9161 576.8375 251.5818 578.5185 259.5185"/>
      <rect class="st1" x="574.4915" y="244.6234" width="2.8844" height="3.4922" transform="translate(-38.8046 125.9768) rotate(-12.0792)"/>
      <polygon class="st1" points="279.4253 217.581 276.3654 217.1262 277.0269 212.712 280.1478 213.1824 279.4253 217.581"/>
      <polygon class="st1" points="280.5309 210.611 277.4129 210.1436 277.5835 208.9984 280.7013 209.462 280.5309 210.611"/>
    </g>
  </g>
</svg>