<svg xmlns="http://www.w3.org/2000/svg" id="svg235" viewBox="0 0 977.1 977.1"><defs><style>.st1,.st10,.st16,.st3{fill:none}.st1,.st3{stroke-width:12px;stroke:#888}.st3{stroke-width:8px}.st16{stroke-width:2px}.st19{fill:#4a6b96}.st20{fill:#dcd5b6}.st10{stroke:#914833;stroke-dasharray:6;stroke-width:3px}.st21{fill:#1a2632}.st16{stroke:#ffce00;stroke-dasharray:6 6;stroke-miterlimit:10}.st23{fill:#c6c2c2}</style></defs><g id="Ground_Level"><path id="Base_Terrain" d="m816.069 530.62 2.145 4.638 40.176.043.231 61.355 92.636 41.079.08 27.516 23.521 13.856.018 90.846-37.972 9.438-36.744 7.449-96.386 5.404-71.785 4.546-68.048 10.614-45.401 12.824-38.391 17.498-52.854 29.013-49.816 30.879-17.22 9.853-13.949 6.225-25.19 2.73-161.375.098.085-23.886 6.578-7.562 6.071-536.368-89.927 1.258-46.756-1.014-.439-22.528-5.931-21.96-7.45-11.209-18.054-13.67-33.258-24.122-31.744-32.266-23.79-38.609-11.673-43.721L1.796 28.49l32.106-13.682-.076-12.738 58.9-.1v12.803l10.636 8.546 139.573.925 10.325-9.642.01-12.427 80.452-.151v12.282l10.629 9.602 294.436-2.69-.005 22.035-3.329 21.897.679 27.578 37.898.083 15.306 15.373 55.157.034-.096-43.904 4.918-2.61 11.036-12.226 32.516-.08 49.232 2.214 17.588 17.406.201 145.256-32.401.133-11.547 11.464-.123 64.705 2.782 6.141.185 59.389-3.449 2.054.56 73.058 9.544 6.268.131 51.896-4.503.032-4.977 2.732z" style="fill:#1f5054"/><g id="Water"><path d="M190.207 334.203c3.412-.247 6.891-1.532 9.604-3.617 1.417-1.09 3.381-2.597 3.118-4.365-.433-2.904-5.161-3.063-6.985-5.363-1.191-1.502-2.005-3.357-2.37-5.239-.19-.98.355-2.022.125-2.993-.395-1.666-1.883-2.891-2.494-4.49-1.142-2.987-.679-6.501-2.121-9.355-.917-1.815-2.786-2.977-3.991-4.615-.841-1.143-.891-3.193-2.245-3.617-1.599-.501-3.289.971-4.615 1.996-2.297 1.774-4.334 4.146-5.363 6.86-.724 1.908-.746 4.104-.374 6.111.657 3.549 3.344 6.431 4.49 9.854.608 1.817.634 3.796 1.247 5.612 1.142 3.384 2.245 6.951 4.49 9.729.915 1.131 2.169 2.013 3.492 2.619 1.239.567 2.633.972 3.992.873M166.634 287.306c2.016-.036 3.853 1.675 5.862 1.497 1.501-.133 2.752-1.23 4.116-1.871 1.464-.688 2.802-1.702 4.365-2.12 2.255-.604 5.197 1.002 6.985-.499 1.312-1.102 1.799-3.366 1.247-4.989-.41-1.205-1.844-1.824-2.994-2.37-2.269-1.077-4.849-1.515-7.358-1.621-4.4-.186-9.219-.343-13.097 1.746-1.842.992-3.673 2.694-4.115 4.739-.34 1.569.55 3.236 1.371 4.615.362.606.814 1.323 1.497 1.497.714.182 1.384-.61 2.121-.624M143.493 251.855c-2.396-1.582-5.677-3.53-8.29-2.341-2.302 1.048-3.809 4.395-3.243 6.86.43 1.874 3.43 2.014 4.49 3.617 1.096 1.658.769 3.942 1.621 5.738.435.917.918 1.908 1.747 2.494 2.148 1.521 5.434.635 7.608 2.121 1.888 1.29 2.195 4.246 4.116 5.488 1.748 1.129 4.355 2.507 6.094 1.363 1.518-.998.456-3.626 1.015-5.355 1.116-3.451 5.359-6.303 4.615-9.853-.284-1.356-1.803-2.329-3.127-2.738-3.121-.966-6.705 2.399-9.732 1.168-3.399-1.381-3.852-6.542-6.914-8.562M195.071 238.663c-1.477.189-2.94 1.294-3.617 2.62-.416.814-.396 1.919 0 2.744.461.959 1.728 1.256 2.494 1.995 1.147 1.105 1.817 2.701 3.119 3.617.947.667 2.085 1.277 3.242 1.247.819-.02 1.728-.362 2.246-.997.617-.759.825-1.911.623-2.869-.349-1.66-2.469-2.503-2.993-4.116-.232-.712.422-1.627 0-2.245-1.032-1.511-3.299-2.228-5.114-1.996M148.915 235.579c-1.646-.143-3.751.596-4.507 2.065-.904 1.758.551 3.931 1.127 5.822.515 1.69.613 3.876 2.066 4.882 1.905 1.32 5.242 1.852 6.948.282 2.189-2.016 1.705-6.258.375-8.92-1.086-2.175-3.587-3.922-6.009-4.131M374.511 73.19c.011 2.039 1.084 4.299 2.762 5.456 1.579 1.09 4.105-.423 5.724.606.842.535.766 1.942 1.549 2.56 2.091 1.647 4.955 2.228 7.61 2.424.976.072 1.931-.632 2.896-.472.753.125 1.285 1.284 2.02 1.078 1.231-.345 2.013-2.023 1.953-3.3-.08-1.718-2.836-2.467-3.03-4.176-.11-.97.599-1.885 1.145-2.693.746-1.106 1.596-2.319 2.828-2.83 1.431-.592 3.171-.47 4.647 0 .813.26 1.286 1.19 2.088 1.483 1.016.37 2.151.265 3.233.269 3.579.014 7.569.912 10.708-.808.885-.486 1.913-1.419 1.818-2.425-.291-3.085-4.667-4.083-6.869-6.263-.633-.625-1.043-1.518-1.819-1.953-.879-.493-2.357.2-2.963-.606-.839-1.116-.255-2.91.337-4.175.72-1.539 1.948-3.385 3.636-3.57.843-.092 1.371 1.666 2.156 1.347 1.478-.6 1.463-3.084 1.144-4.647-.291-1.43-1.178-3.324-2.626-3.502-1.235-.151-2.098 1.402-2.896 2.357-.805.965-1.025 2.327-1.818 3.3-.634.778-1.305 1.765-2.29 1.953-1.025.196-1.964-.708-2.963-1.01-1.601-.483-3.279-1.853-4.849-1.28-1.468.537-1.722 2.615-2.694 3.84-1.088 1.368-2.136 2.814-3.502 3.905-1.225.979-2.669 1.67-4.108 2.29-1.643.709-3.33 1.672-5.118 1.616-1.371-.042-2.948-.439-3.839-1.481-.761-.89.223-2.77-.741-3.435-1.233-.85-3.277-.265-4.445.674-1.218.979-2.249 2.92-1.684 4.377.4 1.03 2.471.493 2.964 1.482.387.776-.199 1.736-.472 2.559-.591 1.782-2.501 3.174-2.492 5.05M438.363 52.775c-.64-.57-.623-1.79-.248-2.56 1.101-2.257 3.997-3.184 6.357-4.045 1.174-.428 2.466-.448 3.715-.495 2.424-.092 4.84.471 7.265.413 2.102-.05 4.187-.924 6.274-.66 1.019.128 2.356.194 2.889 1.073.345.569.045 1.383-.248 1.98-.82 1.679-2.886 2.437-3.962 3.963-.667.946-1.104 2.045-1.486 3.138-.318.907-.344 1.9-.661 2.806-.361 1.035-1.316 1.88-1.403 2.972-.124 1.572.338 3.309 1.321 4.54.53.665 1.72.558 2.229 1.24.455.61-.082 1.732.495 2.228.314.27.826.107 1.239.083.447-.027.89-.37 1.32-.248 1.255.358 2.152 1.565 2.89 2.642.6.877 1.485 1.961 1.156 2.972-.254.776-1.64.623-2.064 1.32-.474.78-.15 1.818-.248 2.725-.143 1.323.102 2.773-.495 3.962-.428.853-1.136 1.764-2.064 1.982-1.966.46-3.768-1.998-5.779-1.816-.588.053-.98.769-1.568.825-1.517.146-2.889-1.653-4.376-1.32-2.529.564-3.21 5.543-5.779 5.2-1.46-.195-1.092-3.024-2.394-3.715-1.07-.567-2.483.465-3.632.083-.763-.254-1.164-1.16-1.899-1.486-1.174-.522-3.271.512-3.797-.66-.942-2.098 1.676-4.654 3.632-5.862.776-.48 1.956.243 2.724-.248 1.714-1.095 2.668-3.286 3.055-5.283.111-.573-.34-1.157-.248-1.734.637-3.998 4.171-7.029 5.366-10.897.287-.93.75-1.977.413-2.89-.317-.859-1.23-1.436-2.064-1.816-1.137-.517-2.468-.424-3.715-.495-1.401-.079-3.162 1.016-4.21.083" class="st19"/></g><path id="Structure" d="m753.2 139.421-143.313.015v10.694H478.383v136.242h-7.971v272.834h7.921v117.698h-1.866v18.947h18.704v-2.246h114.874v13.026h143.293v-127.31h37.692l4.67-20.073V286.144l-4.67-19.372H753.2z" style="fill:#4b4b4b"/><g id="Roads"><g id="Normal_Roads"><path d="M297.988 792.235c14.514-25.829 42.63-30.618 61.465-51.118" class="st3"/><path d="M379.821 716.477c.227 12.606-14.117 26.222-26.725 26.062-12.291-.158-24.699-11.961-24.477-26.062.214-13.064 10.305-24.768 24.074-24.92 14.6-.054 26.908 12.735 27.128 24.92ZM301.997 612.56c.195 11.491 12.638 26.263 26.811 26.582 12.852.288 30.38-12.701 31.501-22.739" class="st3"/><path d="M359.939 691.106c1.321-372.342.972-539.185.949-545.514s.745-9.868 2.59-12.613 4.422-5.271 8.032-7.376 14.905-3.363 19.675-3.623 13.585-1.076 68.095-1.173M665.64 704.86s.169 6.878-.985 9.987c-.96 2.69-1.992 5.192-4.786 7.135-2.928 2.036-10.856 2.577-10.856 2.577M649.46 724.66l-270.824.884M622.084 723.162c.009 6.913.238 11.697.349 17.224.169 8.511.201 13.852.178 20.922-.28 5.229.651 10.977-5.13 14.502-28.254 16.081-62.396 30.406-91.5 45.511-8.95 4.446-22.016 12.08-30.262 14.524-7.477 2.215-14.419 1.799-22.216 1.847-20.106.123-38.313.233-60.127.154-18.706.042-42.61 1.847-48.871-3.131-6.481-5.55-9.34-12.792-10.319-22.695-.946-13.264-.479-23.843-.472-37.625.006-10.957.957-24.531.774-32.971M461.83 121.814s-.121 113.096-.434 141.108c-.05 4.421.283 7.601-1.197 10.89-1.386 3.083-4.262 5.04-5.583 7.926-1.215 2.658-1.666 6.672-1.657 9.79.125 43.479-.741 80.121-.89 120.184-.165 44.759-.337 89.709 0 134.278.026 3.371-.114 9.167.672 12.593.914 3.986 3.991 7.626 5.952 9.899 3.469 4.023 2.682 7.418 2.698 12.778.127 46.257-.239 140.566-.239 140.566M458.678 120.766c109.513.22 210.884-.521 320.668-.476M865.294 726.364s3.976-21.391.359-35.737c-3.619-14.345-14.901-21.096-30.913-23.378-12.999-1.853-44.156-1.46-44.156-1.46" class="st3"/><path d="M804.108 666.926c-.166-48.595-.157-224.139-1.309-521.737-.584-9.27-6.133-24.868-23.61-24.893M928.608 788.664s-1.77-19.587-11.561-40.655c-3.032-6.024-8.537-12.665-14.343-16.093-9.284-5.477-21.34-4.802-32.03-4.461-17.847.57-41.109.451-50.892-2.114-11.832-3.101-15.228-13.359-15.429-22.457-.29-13.025-.224-29.371-.245-35.468M440.026 660.637h18.958M440.353 622.038h18.23M438.953 551.842h11.213M438.588 513.321h12.005M438.565 442.399h12.005M375.792 513.006h-13.28M375.792 551.477h-13.371M377.003 403.803H362.33M438.766 333.368h12.005M439.211 294.275h11.56M377.731 293.95h-15.777M377.395 331.869h-15.777M440.38 225.005h18.514M360.529 147.078h100.137M557.872 121.847v23.994M540.512 721.918v-31.135M530.987 723.493v15.828M419.982 727.628v14.124M451.375 403.056H439.37M790.79 176.219h15.226M462.993 236.599h18.514M454.276 377.185h18.513M454.562 467.165h18.513M462.355 621.979h18.514M772.168 109.12v8.945M829.667 81.779l.183 78.53M954.165 79.985l-153.021-.15M828.682 118.11c-17.28-.202-32.747-.317-33.909 6.061" class="st3"/><path d="M1192.12 743.125s-48.74 1.164-73 3.289c-20.26 1.774-40.6 3.689-60.5 7.891-28.84 6.091-56.25 17.803-84.838 24.991-23.894 6.006-47.958 11.585-72.341 15.125-21.113 3.067-42.506 3.761-63.789 5.261-41.18 2.903-82.634 2.433-123.636 7.234-22.55 2.641-44.649 6.501-66.595 12.321-18.23 4.834-35.366 11.77-52.545 19.554-34.948 15.836-67.128 36.028-99.653 56.382-28.817 18.034-85.692 57.081-85.692 57.081M1060.73 753.004s2.48-254.858 3.26-383.25c.08-12.184-1.07-24.57-4.4-36.288-2.97-10.406-6.74-21.141-13.67-29.446-8.04-9.617-20.55-14.355-30.74-21.642-9.97-7.129-21.986-12.12-29.758-21.599-11.026-13.457-16.753-30.775-21.751-47.439-5.202-17.344-6.625-35.656-8.252-53.69-1.814-20.111-1.672-40.364-1.672-60.557.009-35.018-.649-93.394-.649-93.394" class="st3"/></g><g id="Highways"><path d="M404.624 40.014c-26.897 14.676-39.424 24.14-57.743 45.085-23.053 28.049-41.54 62.746-41.782 111.785M274.968 947.923c.148-153.392 2.956-330.318 4.832-484.737.938-77.21 3.189-196.881 3.744-274.029.556-77.149-.585-111.774-.511-188.473" class="st1"/><path d="M185.312 39.755c28.247 16.232 32.586 20.032 55.308 42.648 24.094 28.658 44.204 64.643 42.85 114.469M297.208 947.95c0-153.401 3.694-367.166 5.571-521.626.938-77.23 1.727-154.46 2.281-231.557.553-77.097-.121-117.144-.121-193.843" class="st1"/></g></g><g id="Rocks"><path d="M124.848 199.267c.903.968 2.482 1.57 3.768 1.256 1.812-.443 2.111-3.472 3.894-4.02.981-.301 2.005.814 3.014.629 1.223-.225 3.019-.773 3.14-2.01.142-1.444-1.898-2.264-3.14-3.015-1.02-.616-2.651-.196-3.391-1.13-.287-.363.282-1.163-.125-1.382-1.008-.539-1.874 1.575-3.015 1.633-.543.028-.977-.75-1.507-.628-1.85.427-3.325 2.425-3.768 4.271-.353 1.471.099 3.289 1.13 4.396M219.832 255.386c.233-.97 1.59-1.515 2.587-1.504.729.009 1.14 1.056 1.864 1.143.649.077 1.212-.585 1.865-.601.851-.022 1.904.022 2.466.661.4.456.366 1.211.24 1.804-.174.828-.653 1.65-1.323 2.166-.945.727-2.414 1.649-3.428 1.022-.693-.428.251-1.946-.421-2.406-.591-.404-1.446.7-2.105.421-.989-.418-1.995-1.663-1.745-2.706M219.652 297.127c-.408-.444-.216-1.304.12-1.804.585-.871 2.376-.437 2.827-1.384.23-.483-.636-1.105-.361-1.564.599-.996 2.207-.857 3.368-.902.979-.037 2.444-.332 2.887.542.232.455-.554.883-.661 1.383-.168.784-.256 1.668.06 2.406.112.26.502.336.601.601.311.828.177 1.838-.18 2.647-.269.609-.768 1.188-1.383 1.443-.945.392-2.192.467-3.068-.06-.707-.426-1.04-1.356-1.203-2.165-.071-.356.36-.81.121-1.083-.688-.783-2.423.708-3.128-.06M571.336 40.744c.964-.604 2.408-.403 3.412.132 1.244.662 1.848 2.16 2.494 3.412.635 1.23 1.387 2.556 1.313 3.938-.063 1.153-.454 2.555-1.444 3.15-1.277.767-3.124.393-4.463-.263-.835-.409-1.397-1.28-1.837-2.1-.472-.879-1.111-1.944-.788-2.887.284-.828 1.739-.778 2.1-1.575.236-.52.288-1.32-.131-1.707-.385-.356-1.287.44-1.575 0-.418-.64.272-1.694.919-2.1M582.886 41.926c-.203.501.524 1.05.394 1.575-.268 1.082-1.678 1.525-2.232 2.493-.5.877-.892 1.878-.918 2.888-.05 1.899.68 3.773 1.443 5.512.293.667.569 1.445 1.182 1.838 1.041.668 2.898-.438 3.675.525.385.478-.451 1.313-.131 1.837.52.854 1.761 1.085 2.756 1.182.623.06 1.216-.318 1.837-.394 1.304-.16 2.766.461 3.938-.131.945-.478 1.843-1.442 1.969-2.494.211-1.769-1.886-3.109-2.232-4.856-.212-1.074.502-2.252.132-3.282-.577-1.603-1.892-3.038-3.413-3.806-.824-.416-1.91.106-2.756-.262-.483-.21-1-.556-1.181-1.05-.213-.581.667-1.37.262-1.838-.373-.43-1.188.235-1.706 0-.424-.192-.459-.982-.919-1.05-.817-.12-1.791.547-2.1 1.313M899.989 677.837c.766-1.033 1.863-2.249 3.15-2.231.437.006.613.761 1.05.787.958.057 1.56-1.669 2.493-1.443.708.171 1.188 1.109 1.182 1.837-.009.789-.658 1.53-1.313 1.969-.556.372-1.379.078-1.969.394-.654.35-.884 1.302-1.575 1.575-1.221.482-3.187.946-3.937-.132-.553-.795.342-1.978.919-2.756" class="st20"/></g><g id="Pavement"><g id="Outdoors"><path d="m697.319 116.767-23.967-23.931-38.201.057-2.152 4.546.06 19.383M750.017 84.08v26.178h40.763V84.08zM753.2 266.772V156.775h37.83v109.997zM836.617 108.941V89.374h16.313v19.567zM833.325 147.552v-26.03h16.411v26.03zM827.27 171.602v-10.717h21.225v10.717zM826.876 191.159v-10.788h21.746v10.788zM500.329 739.078v55.964h35.574l52.986-24.776.175-31.188zM374.1 159.958v94.911h67.476v-94.911zm29.993 13.414c2.631.058 5.28.645 7.842 1.245 2.963.695 6.116 1.36 8.56 3.172 1.334.988 2.651 2.344 3.014 3.963.39 1.74-.457 3.572-1.11 5.231-.902 2.295-2.926 4.039-3.805 6.342-.806 2.111-1.153 4.402-1.268 6.659a27.1 27.1 0 0 0 .634 7.292c.433 1.926 1.587 3.635 2.06 5.55.395 1.604 1.133 3.34.635 4.915-.495 1.57-2.031 2.634-3.329 3.646-1.94 1.511-4.553 1.988-6.501 3.487-1.718 1.323-3.034 3.106-4.439 4.757-1.734 2.037-2.781 4.728-4.914 6.342-2.136 1.616-4.822 3.527-7.451 3.012-2.676-.526-5.025-3.113-5.867-5.708-.861-2.652.081-5.803 1.428-8.245 1.753-3.177 5.944-4.361 8.085-7.291a22.9 22.9 0 0 0 3.805-8.402c.64-2.836.678-5.861.159-8.721-.59-3.244-1.872-6.416-3.646-9.195-1.488-2.332-4.218-3.695-5.709-6.025-.921-1.438-2.131-3.064-1.902-4.756.223-1.644 1.688-2.962 3.011-3.963 2.31-1.746 5.219-2.785 8.087-3.171a16.6 16.6 0 0 1 2.621-.136M372.54 365.491V262.363h68.645v103.128zM372.853 426.591v-53.676h68.817v53.676zM372.54 473.186v-37.991h68.98v37.991zM372.452 584.402V480.308h69.224v104.094zM372.261 591.856v75.385l43.839 44.058h25.488V591.856zM398.917 739.835v15.024l-3.084 2.312v43.457l3.084 2.772v8.899h70.467V803.4l3.084-2.772v-43.457l-3.084-2.312v-15.024zM807.415 433.295v58.902h8.776l4.716-2.908 4.607-.012-.001-51.637-9.322-4.345zM825.573 631.894v-95.446h31.733v95.446zM753.338 689.294V579.322h37.692v109.972zM694.997 139.56l-.013-15.547h-52.238l.121 15.547" class="st23"/></g><g id="Garage"><path d="m640.058 139.454.306 147.744h-59.291v11.087h23.662v9.911H569.85V265.52h22.778V150.123h-70.597v59.451l-6.407.131.064-10.44-3.871-.08.033-12.249-9.61-8.672h-23.792v124.959h16.532l.003 54.312h-24.575v37.724h71.244v55.185h-71.244v38.149h66.334l-.325 103.897h-35.889v-9.508h11.127v-12.404h-33.28v74.297h34.136v48.654l53.259.153v-23.595h47.224v-97.231h24.856v-10.437h-24.856v-.009h-6.569v-2.862h-25.838v-12.111h22.823v1.042h-21.715v10.016l60.752.173v-12.372l.971-.002v12.374h.288v147.835H695.5v-29.25h25.546v-18.657h32.292v-38.553H696.85v-61.058h80.636v-.161h.434v-32.682h17.664v-59.124H777.92v-18.937h17.664v-50.673H777.92v-18.176h17.664v-58.991H777.92v-35.578h-51.274v242.439h-83.191v11.765l-1.085.002v-6.464l-22.279-.002v-20.234h-5.35v-21.634H567.68v-14.247l5.064-.152-.128-12.706-4.936-.044v-15.511h54.179v-49.984h-54.18l.03-63.067 45.782-.133v-7.109h60.703V286.56h24.449v-60.784H753.2v-38.238h-31.852v-18.282H696.57l-.176-29.802zM515.851 272.319h33.902v13.217h-33.902z" class="st23"/><path d="M464.694 408.354h7.064v6.801h14.375v15.2h-14.476v7.164h-6.66z" class="st23"/></g></g><g id="Ramps"><g id="Big_Ramps"><path d="M789.46 162.352h-36.199M784.78 232.334v34.383" style="fill:none;stroke-miterlimit:3.557;stroke-width:7.1141px;stroke:gold"/><path d="M784.704 615.891V577.54" style="stroke:gold;fill:none;stroke-miterlimit:3.557;stroke-width:7.1141px"/><path d="M789.541 682.923h-35.978" style="fill:none;stroke-miterlimit:3.557;stroke-width:7.1141px;stroke:gold"/></g><path d="M583.295 508.08v-17.127" style="fill:none;stroke-miterlimit:3.557;stroke:gold;stroke-width:10.6711px"/><path d="M486.177 279.385h18.778" style="fill:none;stroke-miterlimit:3.557;stroke-width:4.4463px;stroke:gold"/><path d="M502.577 192.868h9.267" style="fill:none;stroke-miterlimit:3.557;stroke:gold;stroke-width:4.4463px"/><path d="M474.741 422.895h11.334M500.142 576.682h11.505M611.32 567.622h16.862M789.512 416.807v12.61M595.687 290.474h-9.071M595.94 553.754h-9.119" style="fill:none;stroke-miterlimit:3.557;stroke-width:4.4463px;stroke:gold"/></g><g id="Train_Tracks"><path d="m2.542 776.146 70.972-6.723 34.676-13.434 29.825-25.398 21.634-32.581 7.143-38.784 3.372-309.83-3.879-21.637-10.66-23.604-20.353-23.011-17.624-15.649-29.107-26.277-16.026-20.699-9.225-21.195-4.093-25.753-.926-169.512" class="st10"/><path d="m3.084 781.34 71.881-6.983 36.494-13.564 31.904-26.176 23.599-35.278 7.224-40.113 3.533-309.96-3.23-21.766-10.271-23.735-18.924-23.14-17.884-16.168-29.367-26.148-16.675-19.79-10.004-21.195-4.872-25.753-.146-169.512M3.694 922.704l1184.926 1.263M3.694 929.756l1184.926 1.263" class="st10"/></g><g id="Buildings"><path d="M823.895 190.235v6.416h-2.97v-6.416zM823.8 182.724v6.965h-2.875v-6.965zM856.188 168.381v5.781h-4.661v-5.781zM799.816 85.957v2.98h-8.694v18.437h27.889V91.158h.561v-5.201zM856.178 157.924v5.755h-4.577v-5.755zM851.338 148.713v6.319h-6.024v-6.319zM840.348 148.681v6.222h-6.03v-6.222zM852.833 69.034v6.334h-6.264v-6.334zM843.238 69.062v6.302h-6.457v-6.302zM372.231 443.004l7.447-7.388 4.744 4.78-7.447 7.389zM418.735 251.076h13.931v-9.243h-13.931zM637.137 528.687h-10.462v3.731h10.462zM933.863 770.275l10.279-2.946-1.502-5.241-10.279 2.947zM934.754 772.4l10.073-2.878 1.542 5.394-10.074 2.878zM78.01 71.17v13.92h9.235V71.17zM348.959 715.574v3.164l6.329 1.26v-5.659zM531.245 80.876l1.638-5.1-6.476-.743-.93 2.977zM331.513 474.824v3.164l6.33 1.26v-5.659z" class="st21"/></g><path id="Limit" d="m816.069 530.62 2.145 4.638 40.176.043.231 61.355 92.636 41.079.08 27.516 23.521 13.856.018 90.846-37.972 9.438-36.744 7.449-96.386 5.404-71.785 4.546-68.048 10.614-45.401 12.824-38.391 17.498-52.854 29.013-49.816 30.879-17.22 9.853-13.949 6.225-25.19 2.73-161.375.098.085-23.886 6.578-7.562 6.071-536.368-89.927 1.258-46.756-1.014-.439-22.528-5.931-21.96-7.45-11.209-18.054-13.67-33.258-24.122-31.744-32.266-23.79-38.609-11.673-43.721L1.796 28.49l32.106-13.682-.076-12.738 58.9-.1v12.803l10.636 8.546 139.573.925 10.325-9.642.01-12.427 80.452-.151v12.282l10.629 9.602 294.436-2.69-.005 22.035-3.329 21.897.679 27.578 37.898.083 15.306 15.373 55.157.034-.096-43.904 4.918-2.61 11.036-12.226 32.516-.08 49.232 2.214 17.588 17.406.201 145.256-32.401.133-11.547 11.464-.123 64.705 2.782 6.141.185 59.389-3.449 2.054.56 73.058 9.544 6.268.131 51.896-4.503.032-4.977 2.732z" style="fill:none;stroke:#000;stroke-width:2px"/><g id="Powerline_Towers"><path d="m206.713 166.32 6.246.056-.056 6.186-6.246-.057zM226.406 166.376h6.133v6.414h-6.133zM210.129 351.863h6.138v5.99h-6.138zM229.878 351.765h5.742v5.989h-5.742zM210.062 537.267h5.785v5.784h-5.785zM229.66 537.381h5.898v5.974h-5.898zM210.11 722.77h6.118v5.934h-6.118zM229.579 722.724h6.164v6.027h-6.164zM209.878 903.647h6.285v6.181h-6.285zM229.509 903.674h6.286v6.234h-6.286zM872.869 908.191l6.292-.524.52 6.269-6.294.516zM863.191 749.083l6.169-.411.412 6.168-6.17.41zM860.229 562.697l5.862-.288.285 5.763-5.863.289zM860.009 405.48l6.08-.25.242 5.886-6.08.25zM860.361 240.737l5.864-.308.305 5.805-5.863.308zM897.839 96.79h6.056v6.164h-6.056zM1034.99 96.753h6.22v6.075h-6.22z" class="st21"/></g><g id="Powerlines"><path d="M212.849 947.372v-40.417l-.157-181.374V354.778l-3-185.797V0M232.639 946.554v-39.59l-.15-181.239V354.733l-3.137-185.57V.326M844.643 98.645l56.353.861h292.184M837.239 185.53l26.394 57.828-.398 164.86v157.168l3.448 186.877 9.708 158.943v33.009" class="st16"/></g></g></svg>