<svg xmlns="http://www.w3.org/2000/svg" id="svg235" viewBox="0 0 977.1 977.1"><defs><style>.st16{fill:#c6c2c2}</style></defs><g id="First_Floor"><path id="Structure-1" d="M609.974 139.454v10.948H478.506v136.724h-7.951v272.502h7.927v134.083h131.534v12.817h143.39V579.306h37.762l4.791-20.574V285.9l-4.791-19.216h-37.824v-127.23z" style="fill:#1a2632"/><g id="Pavament-1"><path d="M778.516 559.303h-54.82v134.48h-112.43v11.494h140.889V688.99h1.25v-11.787h-1.25v-99.147h26.529v1.25h11.488v-1.25l4.537-19.964V449.492h-16.193zM611.225 150.719h112.62v136.193h54.67v109.994h16.194v-110.84l-4.508-18.132v-1.25H778.7v1.25h-26.605v-98.997h1.25V156.89h-1.25v-16.187h-140.87z" class="st16"/></g><path id="Floor-1" d="M708.115 150.719v1.25h-23.11v5.976h-1.72v-5.976h-27.922v4.996h-1.72v-4.996h-10.446v.539h-1.72v-.54h-4.17v8.417h-1.721v-8.416h-27.678v7.289h-1.72v-7.29h-17.202v1.29h-1.72v-1.29h-21.327v3.352h-1.72v-3.351H550.27v6.351h-1.72v-6.351H529.02v10.666h-1.721v-10.666h-16.66v.724h-1.721v-.724h-14.219v.724h-1.72v-.724h-12.504v21.63h9.875v-13.591h1.72v.828h8.969v-.828h1.72v2.549H492.07v12.763h-11.595v2.23h21.962v4.503l1.635 3.963h11.567v1.72h-12.81l-1.925-4.837v20.312l1.942-4.352h12.793v1.721h-11.584l-1.617 3.451v3.967H480.01v32.375h29.762v1.72H481.24v10.401h2.485v-2.515h1.72v4.236h-4.205v2.969h6.44v-10h1.72v.808h10.815v1.721h-1.596v.658h-1.72v-.658H489.4v13.598h7.498v-10.813h9.103v11.598h8.725v-14.383h-9.639v-1.72h9.639v-5.899h-.83v-1.72h2.55v15.454h5.184v3.528h-1.72v-1.807h-3.464v8.268h-10.445v6.764h13.908v-8.41h1.721v10.13h-8.791v3.362H486.5v4.117h26.34v2.799h17.229v3.937h-37.584v7.906l-9.143 4.961v9.7h-1.72V300.36l9.142-4.961v-6.883h-18.547v84.975h9.404v-.909h1.828l-.107 15.579h-1.72v-12.95h-5.327v6.239h-2.684v-1.721h.963v-4.518h-2.357v25.403h9.404v-7.885h1.72v7.885h2.222v13.89h2.826v1.72h-12.953v-1.72h8.406v-12.17h-11.625v5.63h-.022v.06h-6.732v3.36l-2.707 4.864v15l2.707 3.688v3.748h5.453l3.967-8.254h13.506v1.72h-12.4l-3.772 7.827v3.717h11.125v9.087h-1.72v-7.367h-9.405v25.725h9.404v-13.79h1.72v31.07h-1.72v-15.56h-9.404v42.114h9.404V502.09h1.72v23.274h-1.72v-8.67h-9.404v41.338h18.547v-6.649l-9.143-5.748v-6.303h1.72v5.352l9.144 5.748v7.6h31.806v3.683l-24.336.041v7.162h16.465v1.721h-16.75v11.908h16.75v1.72h-16.465v5.354h-1.72v-.568H489.2v7.586h-2.078v-1.72h.358v-5.866h-7.649v5.865h5.399v1.72h-5.399v1.774h1.89v1.721h-1.89v3.857h3.28v-4.718h1.72v4.718h4.127v-3.857h-1.836v-1.72h3.557v8.775h-1.72v-1.477h-9.128v7.547h9.127v-3.91h1.721v8.1h-1.72v-2.47h-9.128v7.999h9.127v-3.37h1.721v7.735h-1.72v-2.645h-9.128v6.508h9.127v-2.017h1.721v2.017h.49v1.72h-11.338v7.817h2.073v1.721h-2.073v32.842h4.477v.064h10.217v1.72h-4.09v4.224h-1.72v-4.223h-4.407v8.975h13.55v-8.975h-1.357v-1.72h3.079v12.415h-6.668v1.092h-1.721v-1.092h-6.883v.022h-4.477v4.726h11.36v-2h1.72v2h10.713V677.14h1.721v15.394h154.018v-35.056h1.72v14.58h8.106v-14.58h1.72v14.58h7.649v-14.58h1.72v14.58h1.417v1.72h-20.612v18.756h61.362v-19.408l6.998-7.039-3.03-3.03-3.968 3.968v-2.727l6.998-7.04-3.03-3.03-3.968 3.969v-2.635l6.998-7.04-3.03-3.029-3.969 3.967v-2.822l6.998-7.04-3.029-3.028-3.969 3.966v-2.726l6.998-7.041-3.029-3.028-3.969 3.967v-2.728l6.998-7.04-3.03-3.029-3.968 3.967v-2.726l6.998-7.041-3.03-3.03-3.968 3.969v-2.728l6.998-7.04-3.03-3.029-3.968 3.967v-29.531h1.228v-9.955h-1.228v-3.864h-25.637v9.916h-1.72v-.7h-.918v-1.722h.918v-7.494h-3.448v7.494h.362v1.721h-.362v9.047h-20.734v.736h-1.723v-2.457h3.748v-.568h1.72v.568h3.76v-4.025h1.721v4.025h9.787v-7.326h-16.988v-6.039h1.72v4.318h15.268v-7.494h-9.787v4.729h-1.72v-4.729h-3.76v.56h-1.72v-.56h-11.849v3.176h-1.72v-3.176H644.36v-1.507h-6.033v5.582h-26.08v4.037h26.08v5.476h-27.801v-15.095h-29.383v-2.33h.111v-.063h17.125v-.885h49.09v-.95h1.102v-10.952h1.72v2.797h7.098v1.72h-7.098v6.436h6.239v-2.994h-4.088v-1.72h5.808v4.714h1.79v-6.436h-.715v-1.72h.714v-7.477h7.545v-15.754h-4.172v-1.72h4.172V509.02h-2.78v-1.721h3.284v.004h2.6v50.764h53.004v-44.955h14.213v1.72h-12.492v12.994h24.423v-6.97h1.721v8.691h-26.144v28.506h38.183v1.232h8.426v-1.232h5.242v-109.81h3.574v1.269h9.752v-1.27h2.965v-16.418h-6.75V428.6h1.063v2.011h5.687V416.72h-5.687v8.223h-1.063v-9.68h6.75v-17.106h-2.965v-1.25h-9.752v1.25h-3.574V288.162h-5.242v-1.256h-8.426v1.256h-38.015v28.647h25.982v8.547h-1.72v-6.827h-24.262v12.465h16.699v1.72h-18.42v-44.552h-54.582v49.633h-1.902v-15.012h-3.778v-1.72h3.778v-15.746h-7.62v-14.444h-2.209v4.41h-5.162v-1.72h3.442v-2.69h-6.48v5.65h7.644v1.721h-7.645v2.403h-1.72v-9.774H634.62v-1.31h-34.127v.998h-1.721l-.023-2.403h-28.952v-.058h-.006v-3.424h.006v-.098h2.008v-3.277h1.72v3.277h19.099v-7.533h1.72v7.533h40.004v-7.533h1.72v7.533h17.573v-5.877h1.72v5.877h27.923v-5.877h1.72v5.877h37.59v-3.277h1.274v-8.711h-1.274v-31.654l3.819 3.816 3.029-3.03-6.848-6.888v-2.728l3.819 3.818 3.029-3.03-6.848-6.89v-2.726l3.819 3.816 3.029-3.03-6.848-6.888v-2.729l3.819 3.817 3.029-3.027-6.848-6.891v-2.727l3.819 3.817 3.029-3.03-6.848-6.888v-2.823l3.819 3.817 3.029-3.03-6.848-6.888v-2.635l3.819 3.818 3.029-3.029-6.848-6.89v-2.727l3.819 3.816 3.029-3.029-6.848-6.889v-21.06h-5.701v-1.25zm-199.197 3.476h1.72v2.362h-7.878v1.2h-1.72v-1.2h-8.97v.638h-1.72v-2.36h18.568zm9.674 2.14h5.924v6.3h-1.721v-4.578h-4.203zm68.674.86h1.72v7.217h17.201v-2.342h1.721v4.063h-35.412v-4.889h-8.277v-2.924h1.72v1.203h8.278v4.89h13.049zm-71.596 3.94h1.72v16.826h-1.72zm167.615 0h1.72v2.062h-1.72zm0 4.875h1.72v8.38h12.382v87.89h-12.381v7.255h-1.72v-8.976h12.378v-84.446h-12.379zm-29.642.633h1.72v102.892h-1.72V249.32h-35.905v-1.72h35.905v-16.078h-10.51V229.8h10.51zm-29.538 4.45h13.051v43.82h-1.72V202.9h-9.684v-1.72h9.684v-28.365h-11.33zm-75.554.86h1.72v4.303h6.665v1.72h-6.665v1.936h-1.72zm62.006 1.649h6.148v1.722h-4.428v36.69h9.48v1.72h-9.48v25.623h-1.72v-25.623h-9.522v-1.72h9.522v-31.24h-8.86v-1.721h8.86zm-46.479 2.654h6.918v2.797h23.46v1.72h-6.413v9.604h-1.72v-9.604h-15.327v9.604h-1.72v-12.4h-5.198zm-33.207 1.13h4.156v3.766h-4.156zm38.404 18.153h1.721v7.979h30.04v1.72h-30.04v24.563h6.676v1.72h-6.676V247.6h30.04v1.72H586.33v16.87h10.273v1.72H584.61v-12.455l-3.808-6.135h-11.526zm-38.246 9.074h4.157v3.754h-4.157zm-27.308 27.18h4.199v3.824h-4.2zm44.232 17.902h1.72v7.127l8.622 7.348h14.734v3.74h-2.554v-2.094h-13.168l-9.354-8.08zm62.922 8.453h1.72v8.041h22.014v-7.478h1.721v7.478h5.7v1.721h-26.368v6.463h-1.72v-6.463h-9.952v-1.72h6.885zm-79.943.967h4.136v3.742h-4.136zm152.353 14.307h1.72v2.252h-1.72zm-134.728 9.394h5.072v5.284h-5.072zm1.72 1.721v1.842h1.631v-1.842zm-69.804 6.496h1.72v2.281h-7.82v-1.72h6.1zm154.789 3.389h1.72v1.348h5.899l.008 32.554h17.543v9.444h-1.613v15.142h-22.913v-24.586h-44.752v4.84l2.117 2.117-1.14 1.077-2.422-2.422h-12.656l-2.424 2.422-1.305-1.377 1.815-1.817v-4.84H544.24v15.118h15.762v1.72H542.52l-.022-43.716h56.276v-6.723h1.72v1.047h9.946v1.72h-1.006v.616h-1.723v-.616h-7.217v3.8h5.012v1.72h-5.035v9.787h7.705v-12.83h10.36v12.83h7.183v-9.787h-4.87v-1.72h4.87v-3.8h-6.998v.616H617v-.616h-.676v-1.72h13.2v1.72h-.776v7.19h4.6v-7.19h-2.368v-1.72h4.282zm12.365 8.683h1.72v.541h7.645v1.721h-.539v6.809h-3.062v-1.723h1.341v-5.086h-5.384v5.086h1.636v1.723h-1.636v1.941h-1.721zm-153.66 2.239h11.103v1.722h-9.383v11.49h31.036v-11.49h-8.7v-1.722h10.42v53.111h-2.05v-1.72h.33v-10.012h-13.97v10.011h10.163v1.721l-28.943.053-.006-24.613h1.72v9.193h13.514v-21.32h-13.513v7.941h-1.721zm15.648 0h3.531v1.722h-3.53zm-27.994 10.306h1.72v11.77h-1.72zm166.006.97h1.72v4.442h11.048v1.721h-12.768zm102.217 12.388h1.72v1.986h10.194v26.838h-1.723v-25.117h-10.191zm-4.336 1.986h1.506v1.72h-1.506zM481.62 332.12h1.72l.108 16.416h-1.72zm-8.01 8.492h2.684v7.979h-2.684v-1.72h.963v-4.538h-.963zm108.768 4.008h4.223l3.365 3.365v6.766l-2.858 2.861h-5.76l-3.279-3.281 1.215-1.217 2.777 2.778h4.334l1.85-1.852v-5.342l-2.357-2.357h-3.51zm-2.795.924 1.217 1.217-2.19 2.19-1.216-1.217zm-97.855 6.832h1.72v15.523h-1.72zm118.834 4.242h22.234v10.13h-1.72v-8.41h-19.803l-2.172 2.173-1.217-1.219zm35.343 1.52h22.912l-.015 10.123h-1.721v-2.031h-19.437v1.67h-1.721zm-94.091.361h10.953v1.72h-9.233v2.298h-1.72zm13.98 0h10.623l5.443 5.45-1.216 1.214-4.942-4.943h-9.908zm204.24 4.926h1.723v17.424h-1.723zm-218.22 1.754h1.72v7.28h31.524v-3.288l-1.885-1.887 1.217-1.217 2.388 2.39v31.745h-1.72v-8.098h-28.56v22.356h8.29v1.72h-18.684v-1.72h6.393v-22.356h-46.797v22.356h7.848v1.72h-9.568v-44.185h9.568v1.72H495.7v15.936h30.692v-15.935h-7.913v-1.721h23.334zm49.96.94 1.176 1.255-2.008 1.883v7.842h30.133v-4.244h1.72l.018 37.212-33.591-.013v-8.803h1.72v7.082h11.702v-13.14h-13.44v-2.577h14.785v-11.767h-13.047v6.572h-1.72v-18.91zm-81.378 5.876h2.517v1.72h-2.518zm125.527.86h1.72v2.914h19.438v-2.914h1.72v29.113l-2.583 2.55-1.21-1.224 2.073-2.045v-1.205h-21.176zm124.111 14.015h1.723v13.55H744.8v7.315h-1.72V398.7h16.954zM575.06 406.164h1.72v10.016h-7.943v-1.721h6.223zm-64.662 8.295h19.88v1.72h-19.88zm48.896 0h3.713v1.72h-3.713zm73.883 1.594 1.219 1.217-.987.986v7.086h.38v1.72h-2.1v-9.52zm3.572 0 1.49 1.49v9.03h.99v3.47h-1.72v-2.98h-1.37v-1.721h.38v-7.086l-.989-.986zm106.332 1.146h1.72v11.4h-1.72zm-99.877 7.645h10.027v7.062h15.123v1.721H651.51v-7.062h-8.307zm-149.222 5.767h9.568v1.721H495.7v9.078h-1.72zm16.416 0h19.084v1.721h-19.084zm25.18 0h17.753v1.721h-6.832v22.397h28.764v-8.415h1.72v19.48h-1.72v-8.444h-46.59v17.207l-10.389-.02v-1.72h7.95V457.35H495.7v15.466h7.848v1.721h-9.568v-28.223h1.72v8.415h47.444v-22.397h-7.569zm21.73 0h6.494v1.721h-6.494zm10.865 0h8.81v9.608h-1.72v-7.887h-7.09zm76.03 2.9h1.72v7.19h-1.72zm-6.694.495h1.72v3.348h-1.72zm-48.324 1.617h21.431v1.72h-3.664v28.452h14.211v-15.307h1.723v23.79h-1.723v-6.032h-30.258v9.64l2.846 2.846-1.217 1.217-3.35-3.35v-27.742h1.721v14.938h14.326v-28.451h-14.326v8.431h-1.72zm25.023 0h8.678v9.414h-1.723v-7.693h-6.955zm129.053 3.068h1.72v6.057h16.754v70.084H751.56v2.31h-1.721v-2.31h-4.512v-1.72h14.688v-66.643H743.26zm-91.75.774h16.844v1.72H653.23v6.653h5.59v3.931H657.1v-2.21h-6.8v-1.721h1.21zm-14.002 2.844h1.72v3.466h-1.72zm-1.596 5.529h9.563v1.72h-7.842v2.212h-1.72zm0 8.46h1.719v1.485h19.467V456.3h1.72v16.873h-8.886v3.306h7.82v1.721h-7.82v7.379h7.82v1.72h-4.4v5.141h4.4v1.721h-4.4v5.275h4.4v1.721h-4.4v6.149h5.957v-.006h2.441v1.72h-1.568v9.719h-17.086v31.215h-9.708v-8.66h-4.644v8.66h-3.316v-.022h-9.121v-1.72h9.12v-2.854h-4.75v-1.72h4.75v-9.407h-6.478v12.758h-11.517V534.23h-6.483v9.406h4.418v1.721h-4.976v2.854h9.894v1.72h-9.894v.881h-1.721v-5.16h-1.799v.004h-5.498v-1.72h5.346v-22.69h-54.905v-8.055h1.721v3.826h32.643v-4.625l-3.266-3.275 1.051-.965 3.244 3.506h12.045l3.95-4.15 1.048 1.029-1.049.926v1.77h5.23v3.302h-1.72v-1.582h-3.51v5.172h3.51v-1.338h1.72v1.338h37.475v-15.176h-6.502v-1.72h6.502zm-60.65 14.663h1.72v7.113l-9.992 9.815h-7.959v-1.721h7.244l8.987-8.807zm-66.737 1.855h4.489v1.721h-4.489zm27.051 0h7.96v13.352h9.794v1.72h-11.516v-13.35h-6.238zm85.586 5.797h1.723v10.278h-23.78l-3.101-3.1 1.217-1.217 2.595 2.596h21.346zm-127.182 9.219h11.225v1.72h-9.504l-.133 9.546h30.825l.132-9.545h-8.793v-1.721h10.514v10.506h.025l-.019 32.752h-1.727v-3.008h-30.824v10.813h8.713v1.72H493.98v-24.78h1.721v8.522h14.674v-21.566h-14.674v8.057h-1.72zm15.715 0h3.319v1.72h-3.319zm68.778 2.176h1.72v2.478l-1.261 1.256v6.96l-.866.868 1.622 1.623h7.105l1.129-1.127-1.992-1.988 1.701-1.693v-8.377h1.72v9.09l-.984.98 1.992 1.988-2.853 2.848h-8.53l-3.341-3.342 1.576-1.582v-6.963l1.262-1.256zm-36.658 11.22h22.45v1.721h-20.73v3.93h-1.72zm58.029 0h24.89v1.721h-24.89zm48.728 21.8h12.26v1.72h-10.539v3.656h-1.72zm-106.68 2.8h1.721V543.9h9.041v1.723h-10.761zm106.68 5.373h1.721v2.365h.645v1.721h-.645v4.947h4.086v-4.947h-1.074v-1.72h2.797v6.667h1.289v1.721h-7.098v.215h-1.72zm-122.047 3.78h1.725l-.004 5.634h-10.514v-1.72h8.793zm-17.22 3.913h4.1v1.721h-4.1zm58.205 5.042h6.32v1.72h-6.32zm91.853 23.685h1.721v11.65h-1.72zm13.569 5.176h1.72v3.316h-1.72zm22.156 2.74h1.72v98.24h-5.886v-1.72h4.166v-38.004h-5.158v-1.721h5.158v-46.428h-.918v-1.72h.918zm-35.725 6.715h1.721v50.08h21.46v1.72h-2.265v15.186h-1.72v-15.185h-17.475v15.611h-1.72zm9.82 1.213h1.721v.719h21.098v1.72h-.361v3.026h-1.721v-3.026h-11.197v19.567h11.197v-14.258h1.72v29.611h-1.72v-13.633h-11.297v19.721h11.297v-3.687h1.72v5.408l-27.6-.008.02-35.485h1.721v12.276h11.221v-19.512h-11.22v4.707h-1.721v-6.427h5.123zm-141.954 4.924 1.214 1.216-6.79 6.793-1.218-1.216zm-28.995 4.181h1.721v3.02h-4.596v6.103h3.637v1.721h-3.637v5.39h3.637v1.721h-3.637v5.569h3.637v1.72h-3.637v5.567h3.637v1.72h-3.637v5.206h3.637v1.72h-3.637v.899h-2.39v-1.721h.67v-37.336h4.595zm15.584 9.409 1.217 1.216-1.68 1.68v31.229h-1.72v-31.942zm171.284 30.353h2.128v1.72h-2.128zm-15.913 6.328h1.721v10.578h-1.72zm-184.587 2.082h10.488v5.49h16.545v-4.177h1.72v5.898h-8.01v25.953h-1.72v-5.437h-18.262v-22.004h1.721v6.697h6.285v-.76h1.72v4.01h.401v1.72h-2.12v-3.25h-6.286v11.866h16.541v-8.615h-5.705v-1.72h5.705v-8.46h-8.535v2.29h-1.72v-7.78h-6.286v.943h-1.72v-.943h-.762zm200.5 31.315h2.128v1.72h-2.128z" style="fill:#70777f"/><g id="Ramps-1"><path d="M583.405 493.21v10.599" style="fill:none;stroke-miterlimit:3.5555;stroke:gold;stroke-width:10.6665px"/><path d="M519.169 298.676h-13.174M580.271 290.754h11.914M515.725 279.73h-29.4M500.824 193.193h15.908M637.86 567.949h-25.718" style="fill:none;stroke-miterlimit:3.5555;stroke-width:4.4444px;stroke:gold"/><path d="M499.712 576.852h16.312" style="stroke:gold;fill:none;stroke-miterlimit:3.5555;stroke-width:4.4444px"/><path d="M519.075 548.082H506.05M474.632 423.361h16.322M510.006 423.361h12.942M567.958 423.279h-13.025M599.035 423.361h13.189M789.513 417.116v12.605M580.763 553.952h12.506" style="fill:none;stroke-miterlimit:3.5555;stroke-width:4.4444px;stroke:gold"/></g></g></svg>