<svg xmlns="http://www.w3.org/2000/svg" viewBox="0 0 827.287 761.164"><g style="fill:#70777f;filter:drop-shadow(0 0 2px #000)"><path d="m584.785 335.844 57.725 15.694-3.276 11.81 10.3 2.78-6.706 24.665-10.758-2.925-11.057 40.671 6.297 1.712-.285 1.05 1.838.498 2.639-9.708 22.04 5.992-18.475 67.96-22.041-5.992 2.425-8.92-2.1-.572-.213.786-4.198-1.14-.357 1.312-4.986-1.356-1.783 6.56-4.46-1.213 1.783-6.559-4.723-1.285.214-.787-21.254-5.778-1 3.674-6.558-1.784-1.631 4.341-1.227-.046-1 3.674 22.828 6.205-.922 4.453 5.664 1.455-1.203 4.917-5.51-1.498-1.427 5.248-1.574-.428-1.141 4.198-1.313-.357-.998 3.674 8.658 2.354-5.706 20.991-67.697-18.404 5.707-20.99 9.708 2.638 1.14-4.198-.786-.214 1.07-3.936-1.05-.285 1.284-4.724-13.906-3.78-5.422 19.942-3.411-.928-4.208 15.482-6.823-1.855-3.905 7.11 49.605 29.665-7.522 13.351-1.387-.956-11.214 20.277 58.723 37.082-4.987 8.934-18.263-11.35 2.873-4.454-7.942-5.057-2.386 3.66-13.656-8.007-2.66 4.125-12.143-7.52 1.953-3.15-5.14-3.19 2.587-4.077-1.151-.767-11.314 17.777 10.88 6.621-4.382 7.383-2.691-1.602-2.842 4.3-8.396-4.915-5.736 9.726 1.465 3.766-.126 4.756-1.356 3.858-2.176 2.79-.947 3.484-2.02.294-5.808-.309-1.658-3.993-3.107-3.444-3.17-1.08-6.181.233-.164 4.746-3.968.035-.33-5.994-16.651.398-.341 4.08-11.673-.165.21-9.512 9.899.15 1.96.8 28.702-1.488 3.828-4.017 4.155-2.266 5.747-9.416-3.68-2.18-1.634 2.228-9.463-6.069 5.115-7.869 7.252 4.341-.891 1.26 5.968 3.661 9.717-17.085-40.876-24.587 7.325-11.404 10.287 5.916 2.804-3.93 33.35 19.758 11.694-20.209-43.611-25.869 5.4-8.753-4.433-3.03 7.998-14.24 3.959 1 2.283-8.397.24-3.598 4.229-14.912-2.624-.714 1.213-4.46.787.213.998-3.672-.787-.214 10.843-39.885-11.02-2.996-1.284 4.724-23.091-6.278 5.707-20.99 23.09 6.277-2.567 9.445 11.282 3.067 2.497-9.183-2.1-.57 1.784-6.56 2.109.57 4.77-17.58-4.2-1.142 2.07-7.608 4.198 1.141 1.998-7.347-28.864-7.847 3.995-14.694-33.586-9.13 5.85-21.517 49.329 13.411-5.85 21.516-9.183-2.496-1.854 6.821 32.012 8.703-4.138 15.22 3.149.855 1.498-5.51 11.545 3.138-1.498 5.511 29.462 8.026 5.989-22.34-36.473-9.915 9.06-33.325 24.615 6.644zm42.3 50.67-34.374-9.346-6.063 22.303 34.373 9.345zm-85.8 8.796-9.446-2.568-4.71 17.318 1.313.357 3.709-13.645 7.085 1.926-3.781 13.907-.787-.214-4.494 16.53 2.36.642 7.209-26.51 7.418 1.966.069-.484-7.871-2.14zm49.854 13.554-36.997-10.059-1.926 7.085-2.106-.562-.137.516 39.097 10.63zm23.09 6.277-16.792-4.565-2.925 10.758 10.495 2.853-.214.787 3.674 1 .214-.788 2.623.713zm13.42 21.12-1.312-.357-.214.787-4.985-1.355-10.486 38.571 4.198 1.141-.286 1.05 2.1.571zm-22.178.733-5.773-1.57-7.49 27.551-14.694-3.994-.428 1.574-6.297-1.712-1.07 3.936 26.5 7.204zm-47.9 16.565L519 443.073l-8.132 29.913 18.892 5.136 1.498-5.51 21.255 5.777 2.425-8.92 3.673.998 3.78-13.907-5.247-1.426zm15.683 45.968-38.572-10.486-1 3.673-1.05-.285-1.14 4.198 40.67 11.057.666-3.483-.786-.214zM316.378 110.428l65.073 17.691-33.385 122.801 17.658 4.773-9.42 34.308-16.006-4.352 6.923-25.124 8.659 2.354.285-1.05-11.36-3.06-8.703 32.011-15.22-4.137-8.915 32.798-33.061-8.988 8.916-32.798-15.481-4.209 11.77-43.295-30.438-8.275-.285 1.05 7.61 2.068-5.85 21.516-14.168-3.852-3.424 12.595 9.97 2.71-1.356 4.986-14.694-3.994 10.629-39.097 5.248 1.426.285-1.048-14.694-3.995 2.14-7.872 50.834 14.101z"/></g></svg>