<svg xmlns="http://www.w3.org/2000/svg" id="svg1" viewBox="0 0 1470.3 1420.6"><defs><style>.st0{fill:#70777f}.st1{fill:gold}</style></defs><g id="Underground"><g id="Ladders"><path d="m439.525 227.042-3.871-1.062.648-2.123 3.81 1.047zM219.19 1024.35h1.148v2.905h-1.148zM1094.706 974.19h1.158v4.458h-1.158z" class="st1"/></g><g id="Buildings"><path d="m435.654 225.98-2.876-.823 2.139-7.343-.656-.172 1.48-5.374 6.088 1.532-.093.339 1.289.359.092-.345 5.607 1.392-1.492 5.787-5.706-1.399.992-3.877-1.283-.335-.932 3.587-3.641-.977-1.538 5.196 1.178.33zM213.438 1032.045h6.901v-4.79h-1.145v1.733h-5.756v-3.593l-3.591.025.006-.903 3.585-.037v-6.848h-5.539v6.885h.399v.89h-.399v7.294h5.539zM1088.963 983.457h6.901v-4.79h-1.145v1.733h-5.756v-3.593l-3.591.025.007-1.669 3.584-.037v-6.082h-5.538v6.119h.398v1.657h-.398v7.293h5.538z" class="st0"/></g></g></svg>