<svg xmlns="http://www.w3.org/2000/svg" id="svg1" viewBox="0 0 1470.3 1420.6"><defs><style>.st0{fill:#70777f}</style></defs><g id="Second_Floor"><g id="Walkable"><path d="m1369.854 1077-4.6 5.6-2.7-1.9 4.6-5.9z" class="st0"/><path d="m1330.369 1087.528 34.342-7.425.628 2.902-34.343 7.425z" class="st0"/><path d="m1355.105 1079.175 3.185-.689 1.288 5.956-3.185.688zM1330.89 1089.936l-.909.243-.233-1.579.806-.216z" class="st0"/><path d="m1330.786 1095.627-6.538.916.934 6.358-3.282.499.827 5.027 3.367-.689.782 3.821-71.913 14.702-.781-3.82 65.568-13.406-.85-5.135-2.9.4-2.089-13.671 15.801-2.274zM1367.034 1074.786l7.513-1.625.609 2.817-7.513 1.624z" class="st0"/><path d="m1373.666 1076.3 1.489-.321-.46-2.126 3.068-.602 1.042 5.27-1.712.349.121.562-2.742.593z" class="st0"/></g><path d="m1379.286 1080.746-1.725.373-.468-2.249 1.712-.349z" style="fill:gold"/></g></svg>