<svg xmlns="http://www.w3.org/2000/svg" xmlns:xlink="http://www.w3.org/1999/xlink" xml:space="preserve" width="605.324" height="831.578" viewBox="0 0 605.324 831.578"><defs><path id="a" d="M381.676 148.906v-1.548h3.26v3.096h-3.26Z"/><path id="b" d="M280.453 177.431v-1.06h1.141v-.489h1.467v2.608h-2.608Z"/><path id="c" d="m351.601 240.03 4.852.943-.739 4.856-4.971-.908Z"/><path id="d" d="m434.84 283.122.299-1.691 1.637.335 1.637.336-.085.771-.086.771-.811-.143-.812-.143-.155.883-.156.883-.883-.156-.883-.155Z"/><path id="e" d="m492.158 293.848.128-.722-.723-.127-.722-.128.141-.802.142-.803 1.445.255 1.444.255-.268 1.525-.269 1.525-.723-.128-.722-.127Z"/><path id="f" d="M275.563 363.658v-.815h1.793v3.108h-1.793Z"/><path id="g" d="m432.515 363.094.354-2.006 1.765.311 1.766.311-.184 1.044-.184 1.043-.802-.141-.803-.142-.17.963-.17.963-.963-.169-.963-.17Z"/><path id="h" d="M272.466 364.392v-1.549h1.793v3.097h-1.793Z"/><path id="i" d="M143.533 380.447v-1.467h2.119v1.63h-.978v1.304h-1.141Z"/><path id="j" d="m438.055 395.533.24-1.365-1.445-.255-1.444-.254.184-1.044.184-1.043 2.568.453 2.568.453-.424 2.408-.425 2.407-1.123-.198-1.124-.198Z"/><path id="k" d="m425.878 392.31.425-2.408 2.568.453 2.569.453-.184 1.043-.184 1.044-1.445-.255-1.445-.255-.24 1.364-.241 1.365-1.124-.198-1.123-.198Z"/><path id="l" d="m408.637 427.465.416-2.354 2.438.43 2.438.43-.415 2.354-.415 2.354-2.438-.43-2.439-.429Z"/><path id="m" d="m208.028 427.533.684-1.667 1.65.676 1.36.55-.641 1.587-.641 1.587-1.512-.611-1.511-.61Z"/><path id="n" d="M275.563 429.755v-1.549h1.793v3.097h-1.793Z"/><path id="o" d="M272.466 429.755v-1.549h1.793v3.097h-1.793Z"/><path id="p" d="m218.979 430.578.61-1.512 1.663.672 1.206.482-.547 1.367-.672 1.662-1.435-.58-1.436-.58Z"/><path id="q" d="m192.755 442.334.616-1.512 1.657.672 1.36.55-.61 1.511-.611 1.511-1.511-.61-1.512-.611Z"/><path id="r" d="m371.773 449.959.421-2.387 2.557.451 2.556.451-.42 2.386-.421 2.386-2.557-.45-2.556-.451Z"/><path id="s" d="M272.792 458.687v-1.467h3.097v1.467h-1.467v1.467h-1.63Z"/><path id="t" d="M186.891 520.709v-.734h-1.467v-1.63h3.097v3.097h-1.63Z"/><path id="u" d="M276.704 521.931v-.815h1.467v1.63h-1.467Z"/><path id="v" d="M254.862 521.931v-.815h1.467v1.63h-1.467Z"/><path id="w" d="M280.29 522.665v-1.549h1.467v3.097h-1.467Z"/><path id="x" d="M258.448 522.665v-1.549h1.467v3.097h-1.467Z"/><path id="y" d="M461.506 569.161v-2.123h1.304v-1.467h1.467v4.405h-2.771Z"/><path id="z" d="M452.092 570.75v-1.223h1.304v2.445h-1.304Z"/><path id="A" d="M417.21 573.765v-.815h1.304v-1.467h1.467v3.097h-2.771Z"/><path id="B" d="M407.593 573.032v-1.549h1.467v1.467h1.304v1.63h-2.771Z"/><path id="C" d="m548.44 584.083.324-.658.731.36.732.36.323-.659.324-.658.805.396.804.396-.648 1.316-.647 1.316-1.536-.755-1.536-.756Z"/><path id="D" d="M427.968 592.429v-1.386h2.934v1.467h-1.304v1.304h-1.63Z"/><path id="E" d="m467.985 597.544-2.084-1.428.768-1.232.831-1.233 1.954 1.163 1.89 1.163-.839 1.597-.694 1.128Z"/><path id="F" d="M122.832 696.26v-.734h-1.467v-1.63h3.097v3.097h-1.63Z"/><path id="G" d="M62.848 695.445v-1.549h3.097v1.63h-1.467v1.467h-1.63Z"/><path id="H" d="M485.344 690.31v-2.282h5.053v3.097h-2.445v1.467h-2.608Z"/><path id="I" d="M485.344 708.729v-2.282h2.608v1.467h2.445v3.097h-5.053Z"/><path id="J" d="M499.199 681.373h3.097v1.793h-3.097Z"/><path id="K" d="M499.199 716.747v-.978h3.097v1.956h-3.097Z"/></defs><g style="filter:drop-shadow(0 0 2px #000)"><g style="fill:gold"><use xlink:href="#a"/><use xlink:href="#b"/><use xlink:href="#c"/><use xlink:href="#d"/><use xlink:href="#e"/><use xlink:href="#f"/><use xlink:href="#g"/><use xlink:href="#h"/><use xlink:href="#i"/><use xlink:href="#j"/><use xlink:href="#k"/><use xlink:href="#l"/><use xlink:href="#m"/><use xlink:href="#n"/><use xlink:href="#o"/><use xlink:href="#p"/><use xlink:href="#q"/><use xlink:href="#r"/><use xlink:href="#s"/><use xlink:href="#t"/><use xlink:href="#u"/><use xlink:href="#v"/><use xlink:href="#w"/><use xlink:href="#x"/><use xlink:href="#y"/><use xlink:href="#z"/><use xlink:href="#A"/><use xlink:href="#B"/><use xlink:href="#C"/><use xlink:href="#D"/><use xlink:href="#E"/><use xlink:href="#stairs-85"/><use xlink:href="#stairs-87"/><use xlink:href="#F"/><use xlink:href="#G"/><use xlink:href="#stairs-90"/><use xlink:href="#stairs-92"/><use xlink:href="#H"/><use xlink:href="#I"/><use xlink:href="#J"/><use xlink:href="#K"/><path d="m434.308 401.789 5.119.839-.848 5.173-5.119-.839ZM429.358 428.01l5.706.881-.833 5.391-5.706-.881ZM502.305 717.72h-2.648v2.295h2.648ZM502.305 678.864h-2.648v2.295h2.648Z"/></g><g style="fill:#70777f"><path d="M381.793 146.217v-1.141h2.934v2.282h-2.934Z"/><path d="M372.337 151.76v-2.12h3.913v-.978h.978v-.326h-.978v-1.141h-.326v2.119h-3.587v-3.423h3.559l.096.204.095.204.095-.204.096-.204h.625v-.326h-4.566v-2.771h6.195v2.771h-.651v.326h.651v.815h2.935v1.63h-.652v.326h.652v2.609h.326v-.816h2.934v3.424h-2.934v-1.63h-.326v1.63h-2.283v-5.217h.653v-.326h-1.631v.326h.653v5.217h-6.522ZM279.463 177.507v-2.771h-1.794v-.815h-5.215v6.195h-2.935v-6.195h-1.467v-14.345h-.326v1.467h-1.63v.326h1.63v2.608h-4.239v-2.608h1.305v-.326h-1.63v9.781h-11.901v-10.433h7.662v-.326h-7.662v-7.499h9.781v7.499h-.814v.326h1.14v-3.424h4.075v-.326h-.814v-2.119h3.097v2.119h-.978v.326h.978v1.305h.326v-18.095h2.608v31.625h13.204v8.477h-4.401Zm3.586-.326v-1.304h-1.467v.489h-1.141v2.119h2.608Z"/><path d="M251.261 177.51v-2.772h7.173v-.326h-.652v-.978h-.326v.978h-6.195v-3.26h6.195v.978h.326v-.978h2.608v3.26h-.651v.326h.651v3.75h.327v-3.75h3.586v5.543h-3.586v-.489h-.327v.489h-9.129ZM344.304 218.292l-2.767 15.19q.415-.032.829-.068c.105.074.247.119.305.241-.042.039-.145.008-.211.02q-.447.004-.896.01c-.083.202-.176.403-.208.623-.286 1.4-.53 2.808-.78 4.216l-.799 4.584c2.697.511 5.399 1.009 8.09 1.542q.32.061.634.142c.536.098 1.077.159 1.619.215l1.085-6.586.211.037-.055.901c1.404.241 2.801.514 4.211.706.245.039.495.027.743.033l.55-3.246c.066.021.17.015.213.05l-.635 3.602c-1.611-.261-3.22-.533-4.834-.781l-.351-.045q-.414 2.546-.83 5.092l.201.501q.449.079.898.159c.13-.147.278-.285.343-.475.132-.276.122-.602.295-.859.055-.049.115-.099.19-.061l1.528.285.164-1.268.518-.574q.336.15.672.302.361-.072.722-.141l-.085-.216c.097.057.177.14.261.216-.212 1.193-.439 2.385-.613 3.586.185-.027.369-.098.558-.081.168.012.363.033.541.055 1.132.141 2.249.347 3.378.527l.226.038.581-3.837.302.054q-.317 1.822-.635 3.645c.188.082.369.188.575.216 1.129.228 2.268.41 3.405.601 1.832.299 3.666.595 5.505.849.241.03.481.071.723.076.06-.001.099-.037.117-.093.114-.387.179-.788.263-1.183.502-2.542.936-5.096 1.397-7.645l.206-1.147-3.795-.572.089-.235q1.879.283 3.757.57l1.739-9.888c-.368-.035-.725-.066-1.09-.145q-.154-.032-.309-.068l.044-.247q.221.037.441.078l.777-4.361c-.307-.11-.61-.233-.932-.291-1.32-.288-2.658-.483-3.988-.713q-.042.24-.086.48l-1-.176c-.148.178-.336.328-.439.538-.067.146.037.304.172.363.312.158.655.243.982.361.111.001.087.083.067.162l-.474 2.683c.914.185 1.828.358 2.737.556l-.143.239-6.883-1.316q-.194.325-.387.65l-.226-.136.333-.73q-.442.058-.883.119l-.653-.293c.039-.042.046-.148.106-.149.434.058.867.109 1.303.142l.749-4.245-4.761-.839c-.218 1.354-.451 2.705-.649 4.061-.013.108-.02.217-.03.326l1.533.19-.162.354a8 8 0 0 0-1.426-.263c-.063.002-.166-.034-.206-.01l.097.501-.26.05c.237-1.67.522-3.334.755-5.004.01-.09.009-.18.014-.269l-15.251-2.6zm9.461 5.351c.085-.001.135.026.097.116-.139 1.024-.31 2.041-.468 3.062-.128.828-.265 1.654-.376 2.485l-.019.305c1.524.2 3.046.414 4.562.666l.501.081.239-1.958c.121-.144.209-.341.396-.412.058.025-.009.14 0 .2l-.29 2.153c1.144.172 2.287.353 3.432.524.296.034.603.097.895.015.22-.064.327-.29.37-.498.105-.5.201-.996.307-1.497.061 0 .153-.041.196-.018l.053.658c1.466.275 2.937.533 4.396.846l.654.148.486-.194.197-1.114c.426-.013.863.013 1.277.084l.418.074c-.017.331-.087.659-.132.988-.114.717-.237 1.432-.357 2.149-.352-.029-.7-.1-1.049-.149-3.743-.587-7.478-1.226-11.225-1.783-.082-.024-.049.115-.078.166q-.322 1.594-.641 3.188c-.05-.011-.189.067-.174-.01.161-1.117.371-2.226.563-3.339l-4.858-.692-.324.229-.396 2.244-.27.005 1.513-8.74zm-6.03 10.859c1.238.224 2.476.458 3.716.666l.367.04-.058-.82.284.108-.269 1.957-.327-.059q.135-.36.274-.721c-.316-.113-.624-.247-.954-.311-1.602-.361-3.224-.619-4.837-.916q-.804-.147-1.609-.299l.047-.262q1.684.31 3.366.617m14.522 1.849c.671.026 1.334.158 1.99.295.542.123 1.095.25 1.614.462.064.029.13.057.186.101-.016.072-.138-.007-.199-.001l-3.274-.594-.453.18-.463 3.222-.301-.053.528-3.554c.116-.059.246-.058.372-.058M438.293 262.588l-.748 4.617 6.536 1.056.374-1.244.212.19-1.367 7.953c-.057.005-.143.101-.175.019-.067-.058-.05-.135-.033-.212.27-1.677.566-3.351.805-5.032.051-.394.118-.786.132-1.184-.002-.096-.086-.161-.13-.239l-6.143-1.016c-.117.137-.249.264-.354.406l-1.407 8.263 7.006 1.118-.436 2.466-.243-.043q.17-1.086.297-2.176c-2.232-.369-4.464-.748-6.699-1.102q-.36 2.13-.72 4.259l6.553 1.097.179-.2.28.169-.071.404-3.827-.675c-.1.56-.179 1.124-.314 1.677l-1.433-.373-.292 1.66c-.396-.029-.78-.139-1.166-.226l-.376-.089c-.159.491-.34.989-.337 1.513l-.01.324q2.523.398 5.043.8c.403.054.808.133 1.216.09a.6.6 0 0 0 .512-.37c.125-.322.143-.67.214-1.005q.12-.642.243-1.284l.249-.004-.53 2.998c-.066.038-.126.103-.196.126-2.277-.36-4.555-.726-6.835-1.079l-.742 4.208c.19.07.375.159.579.183 2.267.421 4.54.817 6.81 1.22 8.76 1.548 17.525 3.063 26.286 4.61 8.512 1.497 17.022 3.004 25.534 4.501l.624-4.108c-1.016-.212-2.041-.377-3.06-.566l-2.99-.533-.278-.249.388-2.854.218.132c.022.337-.012.671-.064 1.004-.089.558-.216 1.111-.251 1.677l5.956 1.075c.127-.337.281-.671.305-1.035.017-.2-.02-.399-.03-.598-.516-.13-1.018-.306-1.533-.433.108-.476.237-.951.262-1.44l-1.626-.164c.049-.561.207-1.104.332-1.652.061-.101-.038-.093-.112-.101q-1.569-.217-3.138-.431a31 31 0 0 0 .263-1.953c.039-.28.092-.563.223-.816l.227.04c-.153.812-.3 1.624-.407 2.443 1.772.277 3.541.577 5.317.821.242.023.487.088.729.037.087.007.139-.023.131-.117.212-1.357.444-2.713.634-4.074.011-.106.015-.214.022-.32-2.101-.317-4.201-.648-6.312-.894-.05-.248.012-.499.035-.747.285-2.24.661-4.466.982-6.701.162-1.089.321-2.179.435-3.274.104-.984.224-1.966.288-2.954.008-.138.021-.285-.052-.411-.006-.094-.099-.082-.168-.097-8.449-1.51-16.897-3.025-25.346-4.533q-9.767-1.737-19.536-3.476-.13.728-.256 1.452l-.248-.043c.046-.483.176-.951.29-1.421-1.843-.354-3.678-.742-5.53-1.038-.391-.063-.788-.091-1.181-.135Zm20.55 7.95c-.026.457-.101.909-.164 1.36-.149.988-.297 1.973-.511 2.947-.006.081-.115.005-.171.011-.112.016-.076-.073-.062-.147.211-1.27.44-2.537.612-3.811l.047-.36.231-.044Zm2.876.653c.811.075 1.628.2 2.44.32 1.525.235 3.05.513 4.575.77l3.933.675c.058.108 0 .231-.001.345-.168 1.264-.372 2.537-.569 3.802-.551 3.472-1.128 6.942-1.688 10.414q-.355 2.179-.704 4.358c-.153.042-.308-.019-.461-.032-2.076-.333-4.146-.698-6.217-1.052l-4.966-.851c.106-.749.25-1.491.377-2.238q1.456-8.247 2.952-16.487c.109-.012.217-.039.327-.024Zm13.824 2.236c.085.005.159.018.111.118a219 219 0 0 1-.654 3.761q-.024.12-.05.237c-.061-.021-.163-.011-.201-.047l.671-4.091zm-17.845 3.476c.052.035.185.025.139.117l-1.203 6.955c-.055-.009-.19.066-.181-.009.122-.87.271-1.738.408-2.605q.365-2.25.734-4.498zm16.758 2.561c.04.034.129.028.114.101-.005.354-.078.701-.125 1.051-.327 2.033-.66 4.065-.988 6.099l-.216-.039c.036-.372.11-.746.165-1.121.325-2.042.662-4.082.996-6.124zm-18.31 6.57c.056.022.188-.008.142.087l-.631 3.717-.219-.039.561-3.79Zm16.632 4.57-.306 1.897-.243-.044c.186-1.243.398-2.481.6-3.723l.253-.004zM272.41 361.478v-1.385h4.89v2.77h-4.89ZM275.67 363.679v-.652h1.63v1.303h-1.63ZM220.032 427.773l.581-1.436 1.511.61 1.511.612-.581 1.435-.579 1.437-1.511-.612-1.512-.61ZM210.044 427.254l.337-.831.604.244.605.245-.336.831-.337.83-.604-.243-.605-.244ZM220.259 431.997l.245-.604.68.274.681.275-.245.605-.244.604-.68-.275-.681-.274ZM211.069 428.635l.671-1.662 1.209.488 1.209.489-.671 1.663-.672 1.661-1.209-.488-1.209-.489ZM206.686 426.864l.671-1.662.756.305.755.306-.671 1.661-.672 1.663-.756-.304-.756-.306ZM217.986 432.837l.306-.756 1.511.61 1.511.612-.305.755-.305.756-1.512-.612-1.511-.61ZM423.847 348.195q-.66 3.62-1.315 7.239.103.15.207.298 1.695.273 3.391.549l.517-.296.028-.961.659-.125.358.278c-.164.095-.359.035-.539.044-.061.017-.189-.048-.187.045l-.663 4.135c-1.132-.159-2.262-.338-3.392-.51-1.622-.248-3.243-.504-4.863-.759-.362.762-.748 1.516-1.068 2.298-.261.619-.59 1.206-.895 1.801.122.109.237.233.4.279.305.113.628.171.946.241-.19.287-.274.626-.356.956l-.101.44a1 1 0 0 1-.338-.011q.152-.387.303-.775l-.211-.465-4.112-.742c-.127.666-.283 1.329-.375 2.001-.047.382-.08.805.134 1.145.214.336.614.479.981.578.748.188 1.518.262 2.281.358l.9.104-.207-.518.271-.604c.046.044.167.049.155.122q-.073.584-.144 1.168c-.213.034-.426.079-.639.106l-3.505-.707-.634.222-.764 4.086c.095.082.176.198.31.212.706.169 1.423.285 2.136.417 1.259.22 2.52.433 3.788.605l1.422-8.054c-.087-.089-.228-.155-.225-.298.006-.049-.011-.168.042-.168l3.105.615.242.215c-.054.036-.09.164-.162.113l-.747-.335c-.3 1.477-.574 2.958-.862 4.438l-.748 3.902q.414-.004.829-.012l.049.252c-.073.053-.174.011-.257.017-.75-.066-1.497-.23-2.246-.353-.062.006-.184-.074-.198.001l-2.751 15.549q1.359.274 2.717.544l-.044.248c-.809-.115-1.602-.287-2.402-.442l-.48-.094c-.161.759-.292 1.532-.579 2.258-.041.1-.098.193-.154.285l-2.573-.454c-.122.344-.254.686-.324 1.045-.146.65-.23 1.311-.333 1.968q.118.17.237.34c1.709.328 3.417.666 5.127.987.824.154 1.655.271 2.473.455.348.091.727.181.985.45.238.265.241.648.227.986-.045.701-.192 1.392-.311 2.084a145 145 0 0 0-.518 2.994q2.169.36 4.337.72c.136-.641.265-1.277.417-1.914 1.346.199 2.692.402 4.044.56.299.045.628.071.915.199.081.029.126.113.094.194.006.099-.119.019-.179.027-1.538-.214-3.072-.461-4.619-.604-.067.002-.176-.052-.159.058l-1.069 6.242c.154.132.3.28.459.401.906.18 1.817.326 2.713.551.097.023.191.053.277.101.239.042.452-.115.675-.177.185-.059.385-.075.574-.023l.244.042q.028-.16.057-.32c.259.065.531.02.784-.054.523-.068 1.054-.069 1.582-.074.545.002 1.09.001 1.634.011.648.188 1.318.326 1.931.616.167.095.314.259.519.258.403.071.749.31 1.075.541.838.631 1.549 1.413 2.198 2.232a15.5 15.5 0 0 1 1.612 2.505l.323.604c-.032.17-.088.379.048.518.04.043.098.059.155.065.121.784.264 1.561.298 2.356.032.61.017 1.23-.048 1.83-.129 1.189-.472 2.386-1.067 3.437-.33.573-.729 1.111-1.12 1.64-.296.383-.588.781-.933 1.129q-.19.153-.38.301a84 84 0 0 1-.533 3.79q-.045.277-.087.554l-.825-.138c.009.258-.014.513-.049.768-.157 1.338-.378 2.67-.481 4.013-.007.163-.038.338.046.487.031.061.031.163.123.147l2.291.335.398-2.963.244.147c-.098.781-.262 1.553-.405 2.327l.466.665.72.127a13 13 0 0 0 1.024-.805 79 79 0 0 1 1.64-1.417c.395-.337.763-.703 1.128-1.072q.261-.264.568-.475c.473-.373.882-.822 1.351-1.2.278-.189.516-.43.765-.655.285-.272.581-.534.836-.835.068-.105.053-.241.086-.358-.013-.044-.133.044-.189.052-.083.033-.165.082-.258.06-.863-.076-1.719-.203-2.577-.319a160 160 0 0 1-4.453-.686q-.204 1.393-.406 2.788c-.06.022-.116.05-.177.066-.041-.258.009-.52.031-.778.09-.751.194-1.501.29-2.252.113-.062.243-.013.365-.013 1.517.157 3.036.401 4.555.617.921.131 1.841.269 2.766.375.036-.462.062-.925.062-1.39.029-2.59.026-5.181.026-7.772-.007-3.429-.009-6.857-.051-10.287-.011-.385-.002-.773-.05-1.156a37 37 0 0 1-.068-2.245q-.003-1.119-.004-2.235c-1.945-.317-3.888-.644-5.835-.95l-.318-.047c.024.239.078.478.046.719-.096 1.224-.299 2.45-.428 3.678-.022.268-.064.537-.053.807.039.072-.002.103-.073.131-.101.051-.199.124-.304.164l-4.6-.746c-.056-.121-.017-.261-.018-.389.056-.85.18-1.701.272-2.55.095-.835.17-1.673.291-2.504l-2.798-.363c-.018-.066-.076-.145-.068-.203.087-.04.201-.013.285-.013.8.073 1.595.2 2.391.308l2.175.315.473-.247c.248-1.492.487-2.985.745-4.475.202-1.144.431-2.284.656-3.423-.007-.167-.178-.256-.304-.33-.094-.048-.191-.09-.285-.134l.198-1.131c-1.928-.343-3.862-.65-5.793-.979-1.6-.271-3.2-.535-4.797-.825-1.467-.284-2.942-.599-4.422-.836l-2.087-.345q-.075-.109-.152-.215c.054-.042.086-.151.165-.103.988.255 1.989.468 3 .604.185.015.383.07.555-.025.075-.022.147-.046.136-.138l2.673-15.307-.223-.316q-2.23-.389-4.461-.783l.037-.211c.473.046.936.155 1.392.281.082.035.049-.113.078-.164q.784-3.968 1.57-7.935-.725-.128-1.451-.255l.043-.245c.841.125 1.676.289 2.514.435l4.034.735c.455-2.933.899-5.867 1.393-8.793.041-.216.066-.427.124-.637 1.118.171 2.234.36 3.355.506.13-.69.253-1.381.382-2.072.039-.157.073-.373.26-.413.285-.05.575.017.858.047.773.109 1.547.211 2.321.316-.252 1.301-.512 2.6-.757 3.904q-.35 1.92-.699 3.839l-1.548-.323-.367 2.132-1.647-.299-.338 2.203 9.197 1.846c.008.059.085.134.048.182-.108.102-.232.192-.329.3-.227 1.141-.44 2.287-.711 3.42l-.189.749c.123.104.237.223.366.318 2.697.531 5.4 1.051 8.087 1.613l1.425.306 1.519-8.37c-1.524-.29-3.039-.623-4.557-.944-.25 1.124-.432 2.26-.635 3.392-.164.047-.326.113-.49.151-1.118-.237-2.235-.47-3.351-.712l2.843-15.553c-.553-.138-1.118-.222-1.679-.33-4.923-.903-9.846-1.794-14.771-2.689q-.224 1.03-.363 2.074c-.182 1.264-.361 2.53-.601 3.785-.042.172-.057.359-.161.508l-.884-.155.041-.232.77-.056c.105-.909.23-1.815.367-2.718.161-1.08.332-2.158.5-3.236l-6.573-1.197zm-1.236 47.235 1.536.302.06.304c-.088.072-.214.032-.318.036-.709-.063-1.412-.22-2.112-.377l-.73-.169.07-.39zm4.489 1.007 1.433.252-.129.392q-1.449-.253-2.899-.511.065-.195.128-.391zm2.448 4.157c.082.005.153.02.142.119-.002.056.078.195-.028.15l-.372-.066.135-.225zm1.236.264c-.025.055 0 .185-.058.192l-.312-.055a.51.51 0 0 1 .395-.277z"/><path d="M429.939 407.032c-.272.092-.551.197-.846.179-.311-.045-.623.032-.928.091-.463.1-.913.262-1.381.338-.208.015-.376.16-.542.271-.055.052-.158.071-.151.162l-2.27 13.445c-.08-.019-.171-.019-.237-.072.24-1.559.502-3.117.753-4.674-.321.006-.644.033-.964-.004a18 18 0 0 1-1.092-.137c-.434-.061-.869-.13-1.308-.136l-.417.032c-.037.407-.065.819-.186 1.213-1.124-.231-2.243-.503-3.361-.765-1.395-.31-2.812-.519-4.223-.733-.621-.101-1.238-.237-1.863-.325a.27.27 0 0 0-.253.07c-.067.031-.104.082-.103.156-.389 2.079-.787 4.153-1.159 6.234l-.427 2.357q.089.184.174.368c.928.207 1.853.422 2.783.624l2.122.383c.084-.794.171-1.586.242-2.381.065.021.159.011.204.049.052.302.009.604-.024.902-.073.642-.19 1.294-.319 1.932.101.088.194.198.334.22.755.2 1.523.343 2.29.493.914.178 1.83.348 2.733.577.12.033.233.088.348.132-.009.147-.159.225-.272.291q-.18.09-.361.177c.026.367-.002.742.098 1.098.025.1.097.192.207.198q.68.178 1.362.351l.259-1.469-.411-.448c.083-.032.165-.083.25-.101l1.357.318c.177-.831.3-1.672.447-2.508l.361-2.138q.137.055.276.108-.674 4.218-1.352 8.435c.26.087.52.184.792.226 1.542.295 3.089.558 4.638.81.339.054.681.106 1.025.133q.416-2.738.834-5.476c1.323.194 2.64.417 3.96.628l1.761.285.353-.247c.184-1.269.368-2.538.516-3.812.377-.4.757-.797 1.096-1.231.281-.363.575-.72.809-1.116.167-.323.384-.618.559-.937q.328-.573.63-1.16l.727-3.564-.317-.056.152-.855c-.241-.748-.456-1.505-.723-2.244-.306-.86-.839-1.609-1.341-2.363-.702-1.041-1.565-1.985-2.602-2.702-.618-.43-1.268-.841-1.998-1.053-.836-.249-1.705-.359-2.562-.514-.147-.021-.295-.06-.442-.07l-.011.004Zm-1.638 5.1c.037.077.097.149.121.227l-1.084 7.132a42 42 0 0 0-2.023-.263q.068-.205.135-.409c.494.06.988.122 1.482.177a444 444 0 0 0 1.09-7.017c.06.005.148-.05.19-.005zM278.441 429.048v-1.467h-.325v.651h-7.989v-2.607h7.989v.651h.325v-35.7h-.325v3.75h-3.587v2.934h-4.402v-5.38h5.869v-1.467h-.326v1.141h-5.543v-8.314h5.543v5.869h.326v-3.423h2.12v3.585h.325V368.08h-.325v.489h-7.989v-2.608h7.989v.489h.325v-.489h2.772v24.941h.326v-4.076h.814v-.325h-.814v-2.445h3.748v2.445h-1.629v.325h1.956v-2.77h6.031v5.215h-7.825v1.794h.327v-1.467h7.498v3.75h-7.498v-.978h-.327v2.118h.327v-.815h7.498v7.499h-7.498v-5.379h-.327v1.956h-2.281v-5.543h-.326v38.309h-2.772Zm2.445-30.158v-2.446h-2.119v4.891h2.119Z"/><path d="M275.67 430.515v-.653h1.63v1.305h-1.63ZM272.41 432.716v-1.387h4.89v2.772h-4.89ZM195.6 443.497l.642-1.589 5.291 2.139 5.289 2.137-.641 1.587-.641 1.587-5.29-2.137-5.29-2.137ZM193.905 443.778l.305-.756.604.245.606.243-.306.757-.306.755-.604-.244-.605-.245ZM191.369 441.786l.641-1.587.681.275.679.274-.641 1.588-.641 1.587-.68-.275-.681-.275ZM376.103 457.723l-.034-1.157.149.092.149.093.001 1.064.001 1.065h-.233Z"/><path d="M406.921 430.112a232 232 0 0 1-.871 4.535c-.79 3.945-1.587 7.887-2.381 11.832.8.115 1.602.207 2.398.347.269.054.557.095.821.189.052.043.169.053.178.116-.025.055.008.194-.088.146q-2.269-.404-4.539-.812l-.482.193c-.727 3.724-1.446 7.452-2.226 11.166-.116.53-.221 1.06-.362 1.584-.579-.069-1.158-.173-1.741-.269-2.197-.373-4.389-.793-6.584-1.192-4.106-.76-8.215-1.519-12.317-2.314-.849-.167-1.705-.328-2.545-.52-.089-.002-.011-.112-.015-.165.13-.56.213-1.129.317-1.694-.727-.17-1.465-.282-2.199-.419-.972-.174-1.944-.342-2.917-.515.065-.254.082-.518.147-.774l.316-1.528a568 568 0 0 1-6.478-1.225c-.421 1.904-.846 3.807-1.265 5.711l-.956 5.379c.68.071 1.354.141 2.03.24 3.301.461 6.596.958 9.891 1.457l.666-3.774.252-.271c8.892 1.644 17.783 3.296 26.678 4.919l3.906.712 1.775-9.901.166-.187 2.797.549c.348-1.538.624-3.092 1.021-4.619.05-.225.14-.435.236-.643.01-.059.103-.16.058-.189l-3.547-.625.043-.243c.913.151 1.83.29 2.74.464.184.033.381.095.569.146.178-.537.365-1.07.536-1.608l2.715-14.643c-1.226-.234-2.451-.476-3.685-.669.032-.183.071-.366.107-.548l-1.999-.4c-.035.179-.073.357-.104.537l-3.04-.597ZM184.544 516.667v-1.711h3.913v3.423h-3.913ZM254.804 519.439v-1.712h5.053v3.424h-5.053ZM276.649 524.737v-1.957h1.467v1.468h3.586v2.445h-5.053Z"/><path d="M271.105 531.583v-4.564h1.631v-.326h-3.423v-1.63h3.259v-.652h-.162a.164.164 0 0 0-.163.163v.163h-2.934v-7.01h2.934v5.543h.325v-1.277l.205-.095.204-.096-.204-.094-.205-.095v-3.886h1.467v-.326h-.978v-1.303h6.522v-12.879h2.119v14.182h-.816v.326h.816v3.424h-5.053v-3.424h.814v-.326h-2.445v.326h1.304v3.913h-2.608v.162c0 .091.074.164.163.164h.162v.652h.327v-.652h1.956v2.934h-1.956v-1.467h-.327v2.119h.164c.09 0 .163-.073.163-.162v-.164h1.956v1.467h-1.929l-.067-.202-.068-.203-.272.273c-.149.15-.272.314-.272.365v.093h2.608v9.129h-5.217Z"/><path d="M262.14 532.643v-3.505h3.261v-.325h-3.424v-.489h-.326v.489h-13.204v-1.794h7.173v-.326h-.816v-3.913h1.467v1.468h3.586v2.445h-.814v.326h2.608v.489h.326v-.489h1.467v-.326h-3.26v-8.966h4.564v8.966h-.163a.164.164 0 0 0-.163.164v.162h4.269l-.035 1.019a34 34 0 0 0-.014 1.631l.018.611h2.12v5.868h-3.75v-7.01h.163c.09 0 .164-.073.164-.163v-.162h-.978v.162c0 .09.073.163.162.163h.163v7.01h-4.564ZM184.708 531.421v-4.728h1.63v-.325h-6.031v-2.609h5.053v-3.749h1.467v1.467h1.63v2.282h2.771v-.326h-2.445v-8.477H194v8.477h-1.631v.326h3.75v-.326h-1.794v-8.477h4.728v8.477h-1.63v.326h.815v2.609h-.815v.325h1.63v9.292h-4.401v-9.292h1.467v-.325h-3.586v.325h1.792v9.292h-5.053v-9.292h1.794v-.325h-3.423v.325h1.303v9.455h-4.238Zm13.313-11.648.011-1.495-1.167-.008-1.169-.007-.012 1.495-.011 1.494 1.167.008 1.169.007ZM461.507 569.403v-.652h2.771v1.304h-2.771ZM407.548 569.484v-2.037h2.772v4.075h-2.772ZM417.167 572.338v-.653h1.304v1.304h-1.304ZM409.016 572.338v-.653h1.304v1.304h-1.304ZM426.459 592.469v-1.385h1.467v2.772h-1.467Z"/><path d="m466.594 596.751-.374-.18.077-.202.079-.2-.312-.283-.312-.282-.098.256-.098.254-1.495-.889c-.821-.489-1.592-.948-1.709-1.02l-.215-.13.502-1.096.502-1.097.152.095.153.095.188-.352.189-.351-.162-.102-.161-.101.4-.816c.221-.448.517-1.097.659-1.442l.257-.627-.229-.145c-.356-.226-.446-.183-.717.34l-.253.489h-10.261v.325h7.825v4.566h-13.856v-4.566h5.053v-.325h-19.073v4.891h-3.75v-1.305h1.468v-1.793h-4.564v-5.053h-.327v1.467h-5.868v-1.467h-.326v2.934h-2.445v-.978h-.326v.978h-9.619v-4.402h.653v-.326h-.653v-9.292h2.772v1.305h-.489v7.987h-.489v.326h7.825v2.446h.326v-10.759h-.326v-1.305h2.771v4.728h.326V569.24h-.326v2.282h-2.771v-5.379h2.771v1.956h.326v-1.956h1.467v15.649h-1.467v-1.304h-.326v4.076h.326v-1.305h5.868v1.305h.327v-2.934h10.432v4.89h15.487v-.326h-4.891v-4.564h10.433v4.564h-4.564v.326h7.009v-.326h-2.119v-4.564h1.957v-.327h-1.141v-5.706h1.141v-.325h-2.772v-3.75h-.325v3.75h-5.055V563.86h5.055v6.358h.325v-6.358h6.847v1.794h-1.468v1.467h-1.629v3.261h3.097v4.89h-2.771v.325h1.141v5.706h-1.141v.327h5.691l-.414.825-.415.824.091.235.09.234h.494l.453-.895.452-.896 6.927 4.013c3.809 2.207 7.013 4.096 7.12 4.196l.194.184-.52.851c-.643 1.052-.287 1.112-3.235-.544-4.368-2.452-8.842-4.983-9.377-5.305l-.518-.311-.297.326c-.163.179-1.031 1.684-1.927 3.343l-1.63 3.018-.224-.036-.222-.037-.185.292-.185.292.408.315c.225.172.481.298.571.28.089-.02.582.201 1.094.491l.93.526-.271.474-.273.475.217.261c.298.36.38.333.699-.228.309-.545.428-.584.842-.28l.286.209-.58.963c-.32.531-.581 1.023-.581 1.095 0 .17-.155.153-.618-.069m-.843-10.242.386-.826-.167-.265c-.092-.145-.246-.291-.344-.324l-.176-.058-.191.579-.192.579h-3.724v.326h3.443l-.116.187-.116.188.301.22c.439.321.472.299.896-.606"/><path d="m471.74 599.75-1.893-1.107.344-.544.345-.545-.501-.423-.501-.423.132-.35c.072-.193.204-.395.292-.448l.159-.099.766.329.767.327-.221.284-.223.283.245-.182.244-.182 1.667.916c1.955 1.073 1.843.826.973 2.18l-.702 1.09ZM124.392 695.495v-1.549h.978v3.098h-.978ZM61.795 695.495v-1.549h.978v3.098h-.978Z"/><path d="M82.172 710.818v-3.504h4.401v-1.142h-.326v.815h-4.075v-2.771h4.075v.978h.326v-1.956h-.326v.653H58.37v-2.12h6.847v-.326h-1.793v-2.609h4.727v2.609h-1.63v.326h4.728v-6.032h.489v-.326h-.49v-.489h-.325v1.142h-2.609v.978h-3.912v-1.467h1.467v-1.794h-4.075v-.489h9.129v.489h.326v-.489h1.956v2.119h-.49v.326h.49v6.032h13.04v.652h.327v-3.587h.652v-.325h-.652v-5.217h7.499v5.217h-5.869v.325h.652v.816h.326v-.816h4.89v2.609h-4.89v-.815h-.326v1.141h9.781v-.326h-1.304v-.815h-.326v.815h-2.608v-2.609h2.608v.816h.326v-.816h1.63v-.325h-4.564v-5.217h6.846v5.217H99.94v.325h4.891v-.325h-3.261v-5.217h5.38v5.217h-.652v.325h1.793v-.325h-.815v-5.217h6.357v5.217h-4.727v.325h.652v.978h.326v-.978h3.749v2.609h-3.749v-.815h-.326v.815h-1.63v.326h6.031v-6.032h.49v-.326h-.49v-2.119h1.957v.489h.326v-.489h9.128v.489h-4.075v1.794h1.467v1.467h-3.912v-.978h-2.608v-1.305h-.326v.652h-.489v.326h.489v6.032h4.727v-.326h-1.63v-2.609h4.727v2.609h-1.793v.326h6.846v2.12h-24.288v-2.12h2.445v-.326h-7.01v.326h1.304v.652h.326v-.652h2.609v2.12h-2.609v-.653h-.326v.653h-4.075v.325h2.12v.815h.325v-.815h5.543v10.107h-5.543v-8.314h-.326v8.314h-5.542v-10.107h1.956v-.325h-6.195v10.432h-7.335ZM495.087 678.865v4.076h.816v.325h-5.133V699h-.38v-7.823h-2.412v2.117h-2.618v12.553h2.618v2.117h2.412v-7.823h.38v15.315h5.133v.326h-.816v4.238h4.566v-1.793h-.772v-2.445h-1.022v-.326h2.772v-4.646l-.978-4.005v-14.77l.978-4.002v-4.767h-2.772v-.325h1.022v-2.283h.772v-1.793Zm-8.802 14.918h.978v2.608h-.978Zm0 3.913h.978v2.607h-.978Zm0 5.216h.978v2.608h-.978Z"/></g></g></svg>