<svg xmlns="http://www.w3.org/2000/svg" xmlns:xlink="http://www.w3.org/1999/xlink" xml:space="preserve" width="605.324" height="831.578" viewBox="0 0 605.324 831.578"><defs><path id="a" d="M112.074 641.981v-1.549h3.097v1.63h-1.467v1.467h-1.63Z"/><path id="b" d="M171.895 665.127v-1.549h1.63v1.467h1.467v1.63h-3.097Z"/><path id="c" d="M60.892 671.321v-.734h-1.467v-1.63h3.097v3.097h-1.63Z"/><path id="d" d="M122.832 696.26v-.734h-1.467v-1.63h3.097v3.097h-1.63Z"/><path id="e" d="M62.848 695.445v-1.549h3.097v1.63h-1.467v1.467h-1.63Z"/></defs><g style="filter:drop-shadow(0 0 2px #000)"><g style="fill:gold"><use xlink:href="#a"/><use xlink:href="#b"/><use xlink:href="#c"/><use xlink:href="#d"/><use xlink:href="#e"/><path d="M297.512 278.561h-5.038v3.561h5.038ZM294.762 321.385h-5.009v3.417h5.009ZM335.386 327.929l.723-3.445 4.962 1.042-.724 3.446ZM333.71 289.314l-.676 3.484 4.975.964.676-3.483Z"/></g><g style="fill:#70777f"><path d="m328.042 326.505-5.746-.011-5.828-.011v-2.608h-3.424v2.608h-2.445v-2.608h-3.423v2.608h-8.151v-1.68h-4.217v-3.423h4.217v-39.236h-1.465v-3.587h30.482v9.53l5.654 1.201-.618 3.524-5.036-1.023v30.904l8.005 1.764-.586 3.542Zm-23.8-6.519v-.815h-1.63v1.629h1.63Zm19.888 0v-.815h-1.631v1.629h1.631Zm-5.054-7.58v-7.744h-11.248v15.487h11.248Zm-14.834 1.874v-.815h-1.63v1.631h1.63Zm19.888 0v-.815h-1.631v1.631h1.631Zm-19.888-5.706v-.814h-1.63v1.63h1.63Zm19.888 0v-.814h-1.631v1.63h1.631Zm-19.888-5.704v-.816h-1.63v1.63h1.63Zm19.888 0v-.816h-1.631v1.63h1.631Zm-5.054-11.33v-7.743h-11.248v15.485h11.248Zm-14.834 5.624v-.816h-1.63v1.631h1.63Zm19.888 0v-.816h-1.631v1.631h1.631Zm-19.888-5.706v-.815h-1.63v1.63h1.63Zm19.888 0v-.815h-1.631v1.63h1.631Zm-19.888-5.705v-.815h-1.63v1.629h1.63Zm19.888 0v-.815h-1.631v1.629h1.631ZM171.873 666.963v-.245h3.098v-1.631h-1.467v-1.467h-1.631v-2.281h3.75v5.868h-3.75ZM110.58 709.101v-3.748h1.304v-.327h-1.304v-6.031h-.326v9.944h-7.173v-9.944h-.326v6.358H63.143v-3.098h7.988v-9.128h-7.5v.325h3.261v4.076h-5.868v-4.076h.978v-.325h-13.53v-22.985h5.216v6.846h9.292v-7.01h-.326v4.076H58.74v-6.032h4.239v-8.639h4.89v-1.305h.978v-.326h-1.304v1.304H62.98v-6.684h7.987v5.38h-.978v.326h1.305v-5.706h38.797v-5.704h5.542v-5.38h-.325v3.749h-3.587v-5.869h3.587v.978h.325v-.978h5.706v13.204h44.014v5.544h4.239v-.327h-3.912v-5.217h5.868v5.217h-.815v.327h.815v6.846h.325v1.467h-.325v21.192h-45.156v5.379h-.814v.327h.814v3.748h-1.956v-2.934h-3.097v1.631h1.467v1.303h-2.282v-3.748h3.587v-.327h-5.869v9.944h3.423v2.282h-8.151v.327h8.151v7.498H110.58Zm-46.133-12.796v-.733h1.467v-1.631h-3.097v3.098h1.63Zm63.087-26.49v-5.868H115.96v11.737h11.574Zm37.982-.082v-5.46h-5.705v10.922h5.705Zm-103.025.816V669h-3.098v1.631h1.468v1.467h1.63Zm51.186-27.713v-.734h1.467v-1.629h-3.097v3.096h1.63Z"/></g></g></svg>