<svg xmlns="http://www.w3.org/2000/svg" xmlns:xlink="http://www.w3.org/1999/xlink" xml:space="preserve" width="605.324" height="831.578" viewBox="0 0 605.324 831.578"><defs><path id="a" d="M275.563 363.658v-.815h1.793v3.108h-1.793Z"/><path id="b" d="M272.466 364.392v-1.549h1.793v3.097h-1.793Z"/><path id="c" d="M143.533 380.447v-1.467h2.119v1.63h-.978v1.304h-1.141Z"/><path id="d" d="M275.563 429.755v-1.549h1.793v3.097h-1.793Z"/><path id="e" d="M272.466 429.755v-1.549h1.793v3.097h-1.793Z"/><path id="f" d="m192.755 442.334.616-1.512 1.657.672 1.36.55-.61 1.511-.611 1.511-1.511-.61-1.512-.611Z"/><path id="g" d="M272.792 458.687v-1.467h3.097v1.467h-1.467v1.467h-1.63Z"/><path id="j" d="M276.704 521.931v-.815h1.467v1.63h-1.467Z"/><path id="k" d="M254.862 521.931v-.815h1.467v1.63h-1.467Z"/><path id="l" d="M280.29 522.665v-1.549h1.467v3.097h-1.467Z"/><path id="m" d="M258.448 522.665v-1.549h1.467v3.097h-1.467Z"/><path id="h" d="M461.506 569.161v-2.123h1.304v-1.467h1.467v4.405h-2.771Z"/><path id="i" d="m548.44 584.083.324-.658.731.36.732.36.323-.659.324-.658.805.396.804.396-.648 1.316-.647 1.316-1.536-.755-1.536-.756Z"/></defs><g style="filter:drop-shadow(0 0 2px #000)"><g style="fill:gold"><use xlink:href="#a"/><use xlink:href="#b"/><use xlink:href="#c"/><use xlink:href="#d"/><use xlink:href="#e"/><use xlink:href="#f"/><use xlink:href="#g"/><use xlink:href="#h"/><use xlink:href="#i"/><use xlink:href="#j"/><use xlink:href="#k"/><use xlink:href="#l"/><use xlink:href="#m"/></g><g style="fill:#70777f"><path d="M272.41 361.431v-1.385h4.89v2.771h-4.89ZM139.699 347.907l-.028 18.918h.657v.372h-.657v4.399h6.636v5.991h.623v.432h-.651v.978h-.653v1.631h-.978v1.304h4.565v-3.913h-.637v-.428h.637v-8.815l-6.506-.015v-1.564h-.509v-.372h.509v-18.918Z"/><path d="M142.203 380.465v-1.468h1.304v2.935h-1.304ZM278.441 429.001v-1.467h-.327v.652h-7.987v-2.608h7.987v.652h.327v-58.197h-.327v.49h-7.987v-2.608h7.987v.489h.327v-.489h2.772v24.941h.325v-4.076h4.076v-2.771h6.031v5.216h-7.825v1.794h.327v-1.468h7.498v3.75h-7.498v-.978h-.327v2.119h.327v-.816h7.498v7.5h-7.498v-5.38h-.327v1.957h-2.282v-5.544h-.325v38.31h-2.772Z"/><path d="M275.669 430.469v-.653h1.631v1.304h-1.631ZM276.26 456.877h-.264v-3.261h-.327v3.261h-5.542v-9.945h3.586v2.12h.326v-2.12h.198l.001-.325h-4.11v-12.226h4.075v-.327h-1.793v-2.771h4.891v2.771h-1.794v.327h2.608v12.226h-2.608v.325h2.608v2.12h.326v-2.12h12.715v3.913h-3.423v1.793h-2.772v.327h3.099v-1.794h1.629v5.706h-7.173v-3.912h1.467v-.327h-5.542v-2.445h-.326v4.401h.326v-1.629h3.75v3.912h-3.75v-1.142h-.326v1.142h-.308l-.13.28-.154-.28h-.304l-.149.28-.182-.28h-.318l-.163.28ZM274.366 459.403v-.734h1.467v-1.467h2.281v2.934h-3.748ZM270.127 458.669v-1.467h2.608v2.934h-2.608ZM461.506 569.357v-.653h2.772v1.305h-2.772Z"/><path d="M452.051 569.52v-5.706h5.054v6.032h.326v-6.032h6.847v1.793h-1.468v1.467h-1.629v3.261h3.097v4.891h-6.847v-2.61h-.326v2.61h-5.054ZM551.779 584.932l.646-1.316.805.395.804.396-.646 1.317-.648 1.317-.805-.396-.804-.396Z"/><path d="m546.805 582.485.648-1.316.219.107.22.109.072-.147.072-.146-.22-.108-.219-.108.143-.292.145-.293-.147-.072-.146-.071-.144.292-.144.292-3.29-1.619-3.291-1.62 1.259-2.558 1.259-2.561 3.291 1.619 3.292 1.62-.865 1.756-.863 1.754.147.072.145.072 1.656-3.364 1.655-3.364 1.17.576 1.17.576-1.367 2.779-1.368 2.779.294.143.292.144.072-.145a.164.164 0 0 0-.075-.219l-.146-.072 1.296-2.632 1.296-2.634 1.974.972 1.975.972-1.296 2.632-1.296 2.634-1.316-.648-1.317-.648-.072.147-.072.145.294.144.292.145-.217.439-.215.439.146.07.146.073.216-.439.216-.439.878.433.878.431-.685 1.389-.683 1.39-.878-.431-.877-.432.215-.439.217-.439-.147-.072-.146-.072-.216.439-.216.439-1.536-.756-1.536-.755-.072.145-.072.147 1.025.503 1.023.504-.324.658-.324.659-.658-.324-.657-.324-.324.658-.324.659-1.097-.541-1.098-.539ZM279.583 503.219v12.879h-6.522v1.303h.978v.326h-1.467v3.922h.204v.335l-.204.01v1.276h-.325v-5.542h-2.934v7.009h2.934v-.163l.001-.162h.325v.651h-3.26v.278h-.265v-7.613h-4.564v8.965h2.71v.327h-5.217v.489h-.326v-.489h-2.608v-.327h.814v-2.445h-3.585v-1.467h-1.468v3.912h.816v.327h-7.173v1.793h13.204v-.489h.326v.489h3.424v.325h-3.261v7.011h4.564v-7.011h-.329l.004-.162v-.163h.978v.163l.001.162h-.327v7.011h3.75v-5.869h-2.12l-.019-.611.011-1.412h.257v1.712h1.886v-2.943h-1.886v.415h-.233l.014-.421h-.518v-.326l.162-.001h.713v-.309h.266v.309h3.423v.326h-1.631v9.129h5.217v-9.129h-2.608l-.004-.321.329-.011.002-.41.33-.003.022.419h1.929v-1.467h-1.956v.164l.001.162h-.328v-2.119h.327v1.467h1.956v-2.934h-1.956v.652h-.327v-.652h-.324l-.001-.164v-.162h2.608v-3.913h-1.305v-.326h2.446v.326h-.815v3.424h5.053v-3.424h-.815v-.326h.815v-14.182Z"/></g></g></svg>