<svg xmlns="http://www.w3.org/2000/svg" xml:space="preserve" viewBox="0 0 720 586"><g style="filter:drop-shadow(0 0 8px #000)"><path d="M296.607 143.179h4.347v215.983h-4.347Zm45.647 0h4.347v205.984h-4.347Z" style="fill:#1a1a1a"/><path d="M438.98 180.177h58.689v53.995H438.98Z" style="fill:#404040;stroke:#000;stroke-width:2"/><path d="M406.376 498.148h39.125v23.998h-39.125Z" style="fill:#435570"/><path d="M406.376 498.148h39.125v23.998h-39.125Zm1.087 1v21.999h36.951v-21.999Z" style="display:inline"/><path d="M158.581 444.155h71.73v11.999h-71.73Z" style="fill:#4c3333;stroke:#000;stroke-width:2"/><path d="M73.809 444.155h19.563v89.993H73.809Z" style="fill:#6b4848;stroke:#000;stroke-width:2"/><path d="M93.372 444.155h32.604v11.999H93.372Z" style="fill:#4c3333;stroke:#000;stroke-width:2"/><path d="M307.475 498.151h-45.646v17.996h-26.084v-59.993h71.73Zm-48.907-29.998h-13.042v17.998h13.042Z" style="fill:#595959;stroke:#000;stroke-width:2"/><path d="M261.829 498.147h45.646v17.998h-45.646Z" style="fill:#595959;stroke:#000;stroke-width:2"/><path d="M93.372 516.146h84.772v17.999H93.372Zm104.334 0h163.023v17.999H197.706Z" style="fill:#6b4848;stroke:#000;stroke-width:2"/><path d="M178.143 456.154h19.563v77.993h-19.563Z" style="fill:#6b4848;stroke:#000;stroke-width:2"/><path d="M348.774 258.17h92.38v11.999h-92.38Z" style="fill:#6b6348"/><path d="M441.154 258.17v11.999h-92.38V258.17Zm-1.087.999h-90.206v10h90.206Z"/><path d="M578.093 443.154h27.171v19.999h-27.171Z" style="fill:#595959"/><path d="M578.093 443.154h27.171v19.999h-27.171Z" style="fill:none;stroke:#000;stroke-width:2"/><path d="M471.588 132.18h26.083v47.996h-26.083Z" style="fill:#435570;stroke:#000;stroke-width:2"/><path d="M223.79 48.188h45.646v71.994H223.79Z" style="fill:#595959"/><path d="M269.436 48.188v71.994H223.79V48.188Zm-1.087 1h-43.472v69.995h43.472Z"/><path d="M64.028 120.182h107.595v23.998H64.028Z" style="fill:#435570"/><path d="M171.623 120.182v23.998H64.028v-23.998Zm-1.087.999H65.115v21.999h105.421Z"/><path d="M155.321 180.176h13.041v23.998h-45.646v-29.997H90.111v-29.998h65.21Z" style="fill:#595959"/><path d="M155.321 180.176h13.041v23.998h-45.646v-29.997H90.111v-29.998h65.21Zm-1.087 0v-34.997H91.198v27.998h32.605v29.997h43.473v-21.998h-13.042Z"/><path d="M139.018 204.174h26.084v23.998h-26.084Z" style="fill:#435570"/><path d="M165.102 204.174v23.998h-26.084v-23.998Zm-1.088 1h-23.909v21.998h23.909Z"/><path d="M197.707 216.173h32.605v11.999h-32.605Z" style="fill:#435570"/><path d="M230.312 216.173v11.999h-32.605v-11.999Zm-1.087 1h-30.432v9.999h30.432Z"/><path d="M344.427 11.19h17.389v13.999h-17.389Z" style="fill:#ccc;stroke:#000;stroke-width:2"/><path d="M344.427 360.162h-45.646v41.996h45.646Zm-11.955 10.999h-21.736v19.998h21.736Z" style="fill:#435570;stroke:#000;stroke-width:2"/><path d="M310.735 371.161h21.737v19.998h-21.737Z" style="fill:#595959"/><path d="M310.735 371.161h21.737v19.998h-21.737Z" style="fill:none;stroke:#000;stroke-width:2"/><path d="M125.976 438.155h32.605v17.999h-32.605Z" style="fill:#4c3333;stroke:#000;stroke-width:2"/><path d="M306.39 534.148h17.389v13.999H306.39Z" style="fill:#ccc;stroke:#000;stroke-width:2"/><path d="M289.001 534.148h17.389v13.999h-17.389Z" style="fill:#595959"/><path d="M289.001 534.148h17.389v13.999h-17.389Z" style="fill:none;stroke:#000;stroke-width:2"/><path d="M282.477 378.16h13.042v23.998h-13.042Z" style="fill:#595959"/><path d="M282.477 378.16h13.042v23.998h-13.042Z" style="fill:none;stroke:#000;stroke-width:2"/><path d="M334.646 492.149h26.084v23.998h-26.084Z" style="fill:#ccc"/><path d="M360.73 492.149v23.998h-26.084v-23.998Zm-3.261 2.999h-19.563v17.999h19.563Z" style="fill:#0d79f2"/><path d="M334.646 492.149h26.084v23.998h-26.084Z" style="fill:none;stroke:#000;stroke-width:2"/><path d="M70.549 534.147h26.083v23.998H70.55Z" style="fill:#ccc"/><path d="M96.632 534.147v23.998H70.55v-23.998Zm-3.26 3.005H73.809v17.988h19.563Z" style="fill:#2c8217"/><path d="M96.632 534.147v23.998H70.55v-23.998Zm-1.086 1.001h-23.91v21.995h23.91Z"/><path d="M266.175 360.165h32.604v17.998h-32.604Zm78.251 0h32.604v17.998h-32.604ZM158.581 54.188h19.563v29.997h-19.563Z" style="fill:#ccc;stroke:#000;stroke-width:2"/><path d="M406.376 522.149h39.126v11.999H360.73v-17.999h45.646Z" style="fill:#6b4848"/><path d="M406.376 522.149h39.126v11.999H360.73v-17.999h45.646Zm-1.087 10.999h39.126v-9.999h-39.126v-6h-43.473v15.999Z"/><path d="M243.353 258.17h51.081v11.999h-51.081v47.996h51.081v11.999h-51.081v47.996h-13.042v-47.996h-13.042v-11.999h13.042v-47.996h-13.042V258.17h13.042v-41.996h13.042Z" style="fill:#6b6348;stroke:#000;stroke-width:2"/><path d="M184.665 204.174v-59.995h13.042v83.993h-32.605v-23.998Z" style="fill:#435570"/><path d="M184.665 204.174v-59.995h13.042v83.993h-32.605v-23.998Zm11.955 2v-60.995h-10.869v59.995h-19.562v21.998h30.431Z"/><path d="M239.007 49.187h17.389v8h-17.389Zm0 39.997h17.389v8h-17.389Z" style="fill:#ccc"/><path d="M295.519 54.186h52.167v29.998h-52.167Z" style="fill:#595959"/><path d="M347.686 54.186v29.998h-52.167V54.186Zm-1.087 1h-49.993v27.998h49.993Z"/><path d="M471.585 132.18v11.999H321.604v-23.998h26.084V90.183H295.52v6h6.521v17.999h-6.521v5.999h26.084v23.998H171.623v-23.998h39.125V84.184h-32.604v-12h45.646v47.997h45.647V40.188h-15.216 14.129v7.999h-23.91v-5h-1.087v5H223.79V30.188h45.647v-6h52.167v29.998H295.52v29.998h52.168V54.186h-26.084V24.19h52.167v95.992h39.126V96.183h84.772v35.997Zm0-23.998h-32.604v23.998h32.604Z" style="fill:#435570"/><path d="M471.585 144.179H171.623v-23.998h39.125V84.184h-32.604v-12h45.646v47.997h45.647V40.188h-1.087v7.999h-23.91v-5h-1.087v5H223.79V30.188h45.647v-6h104.334v95.993h39.126V96.183h84.772v35.997h-26.084v-23.998h-32.604v23.998h32.604ZM254.221 41.187v-2h16.302v81.994h-47.82V73.185h-43.472v10h32.604v37.996H172.71v21.998h147.807v-21.998h-26.083v-7.999h6.52v-16h-6.52v-7.998h54.341v31.997h-26.084v21.998h147.807v-9.999h-32.604v-25.998h34.778v23.998h23.91V97.183h-82.598v23.998h-41.299V25.189h-49.994v27.998h26.084v31.997h-54.341V53.187h26.083V25.189h-49.994v6h-45.646v15.998h17.389v-5h3.261v5h21.736v-6Zm93.467 13H295.52v29.997h52.168ZM295.52 120.18h52.168V90.183H295.52v6h6.521v17.999h-6.521Z"/><path d="M394.421 348.163v59.997h6.521v11.997h-6.521v41.997h6.521v11.997h-6.521v41.998h-13.042V360.162h-32.604v-11.999Z" style="fill:#6b6348"/><path d="M394.421 348.163v59.997h6.521v11.997h-6.521v41.997h6.521v11.997h-6.521v41.998h-13.042V360.162h-32.604v-11.999Zm-1.087 1h-43.473v9.999h32.605v155.987h10.868v-41.998h6.521v-9.997h-6.521v-43.997h6.521v-9.997h-6.521Z"/><path d="M230.311 378.16h52.167v77.994h-52.167v-11.999h32.605V390.16h-32.605Z" style="fill:#4c3333;stroke:#000;stroke-width:2"/><path d="M466.151 366.161h31.518v11.999H394.421v-11.999h58.688v-5.999h13.042Z" style="fill:#6b6348"/><path d="M466.151 366.161h31.518v11.999H394.421v-11.999h58.688v-5.999h13.042Zm-1.087 0v-4.999h-10.868v5.999h-58.688v10h101.074v-10h-31.518Z"/><path d="M423.765 300.167h24.997v23.998h23.91v35.997h-26.084v-23.998h-24.997v-23.998h-53.254v-41.997h55.428Z" style="fill:#595959"/><path d="M423.765 300.167h24.997v23.998h23.91v35.997h-26.084v-23.998h-24.997v-23.998h-53.254v-41.997h55.428Zm-1.087 0v-28.998h-53.254v39.997h53.254v23.998h24.997v23.998h23.91v-33.997h-23.91v-23.998h-24.997Z"/><path d="M454.196 258.17h43.473v11.999h-56.515v-35.997h13.042Z" style="fill:#6b6348"/><path d="M454.196 258.17h43.473v11.999h-56.515v-35.997h13.042Zm-1.087 0v-22.998h-10.868v33.997h54.341v-9.999h-43.473Z"/><path d="M530.274 414.158h-19.563" style="fill:none;stroke:#000;stroke-width:1"/><path d="M510.711 210.174v-80.993h-13.042v-17.999h32.605v98.992Z" style="fill:#6b6348"/><path d="M510.711 210.174v-80.993h-13.042v-17.999h32.605v98.992Zm1.087-1h17.389v-96.992h-30.431v15.999h13.042Z"/><path d="M530.274 210.174v107.991h-19.563v-44.996h-13.042V255.17h13.042v-44.996Z" style="fill:#6b6348"/><path d="M530.274 210.174v107.991h-19.563v-44.996h-13.042V255.17h13.042v-44.996Zm-1.087 1h-17.389v44.996h-13.042v15.999h13.042v44.996h17.389Z"/><path d="M559.618 462.154c-46.722 0-48.907-28.358-48.907-47.996V381.16h-13.042v-17.998h13.042v-44.997h19.563v95.993c0 22.292 11.828 29.997 29.344 29.997v-11.999h45.646v11.999H579.18v17.999h26.084v11.999h-45.646Z" style="fill:#6b6348"/><path d="M559.618 462.154c-46.722 0-48.907-28.358-48.907-47.996V381.16h-13.042v-17.998h13.042v-44.997h19.563v95.993c0 22.292 11.828 29.997 29.344 29.997v-11.999h45.646v11.999H579.18v17.999h26.084v11.999h-45.646Zm1.086 10.999h43.473v-9.999h-26.083v-19.999h26.083v-9.999h-43.473v11.999h-1.086c-9.081 0-16.671-2.044-22.007-6.93-5.307-4.86-8.424-12.573-8.424-24.067v-94.993h-17.389v44.997h-13.042v15.998h13.042v33.998c0 11.551.686 26.201 11.197 36.057 6.995 6.558 18.333 10.939 36.623 10.939h1.086Z"/><path d="M452.022 108.182h19.563v23.998h-19.563Z" style="fill:#ccc"/><path d="M471.585 108.182v23.998h-19.563v-23.998Zm-1.087 1h-17.389v21.999h17.389Z"/><path d="M344.427 144.179v204.984m-45.646-204.984v213.983" style="fill:none;stroke:#333;stroke-dasharray:3.99,2,0,0;stroke-opacity:.6;stroke-width:4.169616113370807"/><path d="M347.688 359.162h-24.997v-57.995h-2.174v57.995h-18.476v-29.998h-6.521v-9.999h6.521v-49.996h-6.521v-9.999h6.521V143.179h18.476v80.994h2.174v-80.994h18.476V259.17h6.521v9.999h-6.521v79.994h6.521Zm-24.997-71.994v-48.996h-2.174v48.996Z" style="fill:#595959"/><g style="display:inline"><path d="m461.803 115.181 7.608 9.999h-15.215z" style="fill:#0bb300"/><path d="m461.803 115.181 7.608 9.999h-15.215zm0 1.744-5.52 7.255h11.041z"/><path d="m168.362 64.185 7.608 10h-15.216z" style="fill:#0bb300"/><path d="m168.362 64.185 7.608 10h-15.216zm0 1.744-5.52 7.256h11.04z"/><path d="m83.59 541.145 7.608 9.999H75.983Z" style="fill:#0bb300"/><path d="m83.59 541.145 7.608 9.999H75.983Zm0 1.743-5.52 7.256h11.04z"/><path d="m347.687 499.148 7.608 9.999H340.08Z" style="fill:#0bb300"/><path d="m347.687 499.148 7.608 9.999H340.08Zm0 1.744-5.52 7.255h11.041z"/><path d="m282.478 364.161 7.608 9.999h-15.215z" style="fill:#0bb300"/><path d="m282.478 364.161 7.608 9.999h-15.215zm0 1.744-5.52 7.255h11.04z"/><path d="m360.729 364.161 7.608 9.999h-15.215z" style="fill:#0bb300"/><path d="m360.729 364.161 7.608 9.999h-15.215zm0 1.744-5.52 7.255h11.04z"/><path d="m247.7 47.187 7.608 9.999h-15.216z" style="fill:#0bb300"/><path d="m247.7 47.187 7.608 9.999h-15.216zm0 1.743-5.52 7.256h11.04z"/><path d="m247.7 87.183 7.608 10h-15.216z" style="fill:#0bb300"/><path d="m247.7 87.183 7.608 10h-15.216zm0 1.744-5.52 7.256h11.04z"/></g><g style="display:inline"><path d="M181.404 454.154h13.042v3.999h-13.042zm14.129 76.993v-11.999h4.347v11.999zm-19.563 0v-11.999h4.347v11.999zm-84.772 0v-11.999h4.347v11.999zm267.358 0v-11.999h4.347v11.999zm33.691-152.987v-11.999h4.348v11.999zm60.862-19.998h13.042v3.999h-13.042zm-76.077-89.993h13.042v4h-13.042zm64.122-35.997h13.042v3.999h-13.042zm14.129-101.992h13.042v4h-13.042zm-135.853 7.999V126.18h4.348v11.999zm-149.981 0V126.18h4.347v11.999zM79.243 532.147h8.695v4h-8.695Zm16.302-85.993v8h-4.347v-8zm32.605 0v8h-4.347v-8zm32.605 0v8h-4.348v-8zm71.73 0v8h-4.348v-8zm31.517 56.994v7.999h-4.347v-7.999zm-18.476 10.999h8.695v4h-8.695zm65.21 18h8.694v4h-8.694zm-43.473-77.993h8.694v3.999h-8.694zm-34.778-77.994h8.694v4h-8.694zM343.34 514.147h8.695v4h-8.695zm40.213 0h8.694v4h-8.694zm46.733 5.999h8.694v4h-8.694zM300.954 365.161v7.999h-4.347v-7.999zm45.647 0v7.999h-4.348v-7.999zm-40.213-6.999h8.695v3.999h-8.695zm209.757-149.988h8.694v3.999h-8.694zm0 107.991h8.694v4h-8.694zm-16.303 51.996v7.999h-4.347v-7.999zm-148.894-17.999v7.999h-4.347v-7.999zm-54.341-29.997v7.999h-4.347v-7.999zm0-59.996v8h-4.347v-8zm54.341 0v8h-4.347v-8zm-118.463-41.975v7.999h-4.348v-7.999zm-32.605-.021v7.999h-4.347v-7.999zm-32.605-9.999v7.999h-4.347v-7.999zm19.563-65.995h8.695v4h-8.695zm-76.077 0h8.694v4h-8.694zm32.604 59.995h8.695v4h-8.695zm36.952-127.99v8h-4.347v-8zm47.82-27.997h8.695v4h-8.695zm72.817 6h8.695v3.999h-8.695zm32.605 0h8.694v3.999h-8.694zm15.215-29.998h8.695v4h-8.695zM484.627 130.18h8.694v4h-8.694zm-8.695 47.996h8.695v4h-8.695zm23.91-61.995v7.999h-4.347v-7.999zm0 143.988v8h-4.347v-8zm-56.514 0v8h-4.348v-8z" style="fill:#8c737c"/><path d="M323.778 33.188v11.998h-4.347V33.189z" style="fill:red"/><path d="M284.652 390.159v7.999h-4.347v-7.999zm8.695 141.986h8.694v4h-8.694z" style="fill:#f30000"/></g><g style="display:inline"><path d="M281.391 468.152h19.563v8.999h-19.563zM449.85 190.179h26.084v11.999H449.85ZM281.391 483.151h19.563v8.999h-19.563zM449.85 212.177h26.084v11.999H449.85ZM236.831 61.187h19.563v9.999h-19.563zM236.831 75.185h19.563v10h-19.563z" style="fill:#337bcc"/></g></g></svg>